<?xml version="1.0" encoding="utf-8"?>
<!-- Generator: Adobe Illustrator 16.0.0, SVG Export Plug-In . SVG Version: 6.00 Build 0)  -->
<!DOCTYPE svg PUBLIC "-//W3C//DTD SVG 1.1//EN" "http://www.w3.org/Graphics/SVG/1.1/DTD/svg11.dtd">
<svg version="1.1" id="Layer_1" xmlns="http://www.w3.org/2000/svg" xmlns:xlink="http://www.w3.org/1999/xlink" x="0px" y="0px"
	 width="226.771px" height="139.016px" viewBox="0 0 226.771 139.016" enable-background="new 0 0 226.771 139.016"
	 xml:space="preserve">
<g id="Warstwa_x0020_1">
	<g id="_67932752">
		<path id="_69587864" fill="#333333" d="M179.987,128.272c-18.795,7.165-41.855,10.746-66.701,10.746
			c-21.502,0-41.654-2.685-58.892-8.061C21.936,120.661,0,100.514,0,69.622c0-31.12,21.936-51.266,54.395-61.341
			c17.238-5.596,37.39-8.282,58.892-8.282c25.076,0,48.109,3.583,66.701,10.746c28.426,10.969,46.784,30.219,46.784,58.877
			C226.771,98.05,208.206,117.305,179.987,128.272z M54.395,122.452c17.238,4.479,37.39,6.494,58.892,6.716
			c25.076,0.226,48.109-2.464,66.701-8.507c26.865-8.953,44.333-25.072,44.104-51.263c0-25.969-17.238-42.085-44.104-50.817
			c-18.592-6.269-41.625-8.953-66.701-8.953c-21.735-0.225-41.858,1.787-58.892,6.267C23.29,24.178,2.681,40.964,2.477,69.397
			C2.477,98.05,23.29,114.391,54.395,122.452L54.395,122.452z"/>
		<path id="_3994536" fill="#333333" d="M179.987,54.174c-6.05,0-10.751,4.924-10.751,10.969c0,5.823,4.701,10.747,10.751,10.747
			h0.23c5.822,0,10.751-4.924,10.751-10.747c0-6.044-4.929-10.969-10.751-10.969H179.987z M179.987,93.352
			c-3.805,0-7.609-0.896-10.751-2.24v19.478h-17.468V36.714h17.468v2.237c3.142-1.565,6.946-2.237,10.751-2.237h0.23
			c15.449,0,28.195,12.759,28.195,28.428c0,15.445-12.746,28.209-28.195,28.209H179.987z"/>
		<path id="_3994176" fill="#333333" d="M113.287,53.953c-5.825,0-10.754,4.923-10.754,10.965c0,5.821,4.929,10.524,10.754,10.747
			h0.228c6.026,0,10.725-4.926,10.725-10.747c0-6.042-4.699-10.965-10.725-10.965H113.287z M113.287,93.127
			c-15.453-0.226-27.992-12.76-27.992-28.209c0-15.67,12.539-28.428,27.992-28.428h0.228c3.807,0,7.61,0.671,10.956,2.012v-1.788
			h17.236v56.188H124.47v-2.015c-3.346,1.343-7.148,2.24-10.956,2.24H113.287z"/>
		<path id="_3994680" fill="#333333" d="M54.395,36.714c-3.805,0-7.61,0.672-10.956,2.237v-2.237H26.202v73.875h17.237V91.112
			c3.346,1.344,7.151,2.24,10.956,2.24c15.683,0,28.218-12.765,28.218-28.209C82.613,49.473,70.077,36.714,54.395,36.714z
			 M54.395,75.889c-6.025,0-10.956-4.924-10.956-10.747c0-6.044,4.931-10.969,10.956-10.969c6.052,0,10.981,4.924,10.981,10.969
			C65.375,70.965,60.447,75.889,54.395,75.889z"/>
	</g>
</g>
</svg>
