<?xml version="1.0" encoding="utf-8"?>
<!-- Generator: Adobe Illustrator 16.0.0, SVG Export Plug-In . SVG Version: 6.00 Build 0)  -->
<!DOCTYPE svg PUBLIC "-//W3C//DTD SVG 1.1//EN" "http://www.w3.org/Graphics/SVG/1.1/DTD/svg11.dtd">
<svg version="1.1"
	 id="Warstwa_1" xmlns:rdf="http://www.w3.org/1999/02/22-rdf-syntax-ns#" xmlns:svg="http://www.w3.org/2000/svg" xmlns:cc="http://creativecommons.org/ns#" xmlns:dc="http://purl.org/dc/elements/1.1/"
	 xmlns="http://www.w3.org/2000/svg" xmlns:xlink="http://www.w3.org/1999/xlink" x="0px" y="0px" width="641.511px" height="224px"
	 viewBox="74.797 74.964 641.511 224" enable-background="new 74.797 74.964 641.511 224" xml:space="preserve">
<title  id="title9">Logotyp Polskiego Radia</title>
<path id="path47" fill="#333333" d="M186.887,89.364c-53.886-0.071-97.628,43.554-97.7,97.439
	c-0.072,53.887,43.554,97.629,97.44,97.7c53.886,0.072,97.628-43.553,97.7-97.439c0-0.044,0-0.087,0-0.13
	c0.039-53.849-43.582-97.532-97.43-97.57C186.894,89.364,186.891,89.364,186.887,89.364 M186.887,270.034
	c-45.895,0.055-83.145-37.105-83.2-83c-0.055-45.895,37.105-83.145,83-83.2c45.895-0.055,83.145,37.105,83.2,83
	c0,0.033,0,0.066,0,0.101c0.055,45.838-37.06,83.043-82.9,83.1C186.954,270.034,186.921,270.034,186.887,270.034"/>
<path id="path49" fill="#333333" d="M186.837,119.683c-37.158-0.071-67.338,29.993-67.41,67.15
	c-0.072,37.158,29.992,67.337,67.149,67.41c37.158,0.072,67.338-29.992,67.41-67.15c0-0.043,0-0.086,0-0.13
	c0.039-37.118-30.021-67.241-67.14-67.28C186.844,119.683,186.841,119.683,186.837,119.683 M186.837,240.034
	c-29.304,0.033-53.087-23.695-53.12-53c-0.033-29.304,23.696-53.087,53-53.12s53.087,23.696,53.12,53c0,0.017,0,0.033,0,0.05
	c0.039,29.272-23.659,53.032-52.93,53.071C186.884,240.034,186.861,240.034,186.837,240.034"/>
<path id="path51" fill="#333333" d="M186.837,149.564c-19.75,0-37.34,17.62-37.34,37.41c0,19.789,17.59,37.41,37.34,37.41
	s37.34-17.621,37.34-37.41C224.177,167.184,206.587,149.564,186.837,149.564 M186.837,209.624
	c-12.509,0.021-22.668-10.102-22.69-22.61c-0.022-12.51,10.101-22.668,22.61-22.69s22.668,10.101,22.69,22.61
	c0,0.013,0,0.026,0,0.04C209.458,199.472,199.335,209.612,186.837,209.624L186.837,209.624"/>
<path id="path53" fill="#333333" d="M74.757,298.964h224v-224h-224V298.964z M284.058,284.263h-194.6V89.673h194.6V284.263z"/>
<path id="path55" fill="#333333" d="M467.867,122.534c10.951,12.66,9.566,31.802-3.094,42.753c-0.323,0.279-0.651,0.552-0.986,0.817
	c-5.6,4.33-12.229,6.45-20.13,6.45c-17.83,0-31.13-13.08-31.13-30.761c0.122-9.065,4.339-17.591,11.47-23.19
	c5.73-4.291,12.722-6.563,19.88-6.459c9.851,0,17.921,3.479,24,10.359 M427.957,142.124c-0.16,8.835,6.873,16.127,15.708,16.287
	s16.127-6.872,16.287-15.707s-6.872-16.127-15.707-16.287c-0.096-0.002-0.192-0.003-0.288-0.003
	C435.218,126.375,428.078,133.384,427.957,142.124"/>
<path id="path57" fill="#333333" d="M565.718,128.683c-3.311-2.629-6.29-3.819-9.681-3.819c-3.39,0-6.29,2.12-6.29,4.84
	c0,1.78,1.271,3.23,3.82,4.42c0.771,0.34,1.36,0.51,6.37,2c9.85,2.891,13.93,7.561,13.93,15.71c0,7.82-2.55,13-8,16.48
	c-4.259,2.536-9.143,3.832-14.1,3.74c-7.064-0.054-13.942-2.277-19.7-6.37l6.3-11.891c4.59,4,8.66,5.78,13,5.78
	s7.141-2.21,7.141-5.52c0-3.061-2-4.5-8.83-6.54c-6.46-1.87-8.92-3-11-4.761c-2.801-2.46-4.25-6.12-4.25-11
	c0-11.38,7.81-19.109,19.279-19.109c6.219,0.096,12.326,1.665,17.82,4.58L565.718,128.683z"/>
<path id="path59" fill="#333333" d="M374.188,170.684h-14.66v-56.65h23.36c6.63,0,10.529,1.271,14.18,4.761
	c3.65,3.489,5.52,8.069,5.52,13.999c0,5.61-1.609,10.45-4.59,13.761c-3.14,3.569-7.81,5.27-14.609,5.27h-9.17L374.188,170.684z
	 M379.027,140.024c5.61,0,8.15-2.21,8.15-7s-2.65-7.229-8.061-7.229h-4.93v14.18L379.027,140.024z"/>
<polygon id="polygon61" fill="#333333" points="489.268,114.034 503.968,114.034 503.968,158.204 521.627,158.204 521.627,170.684 
	489.268,170.684 "/>
<polygon id="polygon63" fill="#333333" points="603.207,137.394 621.138,114.034 639.308,114.034 616.888,140.874 641.428,170.684 
	622.317,170.684 603.207,146.144 603.207,170.684 588.518,170.684 588.518,114.034 603.207,114.034 "/>
<rect id="rect65" x="650.587" y="114.204" fill="#333333" width="14.69" height="56.65"/>
<polygon id="polygon67" fill="#333333" points="715.617,114.034 715.617,126.524 698.117,126.524 698.117,135.944 714.678,135.944 
	714.678,148.434 698.117,148.434 698.117,158.204 715.617,158.204 715.617,170.684 683.428,170.684 683.428,114.034 "/>
<path id="path69" fill="#333333" d="M406.527,259.794h-18.33l-14-21.74v21.74h-14.67v-56.631h22.85c6.46,0,10.62,1.531,13.931,5
	c3.13,3.404,4.858,7.865,4.84,12.49c0,5.18-2,10-5.43,12.82c-2.026,1.629-4.437,2.711-7,3.141L406.527,259.794z M376.888,228.544
	c2.8,0,4.93-0.51,6.29-1.531c3.037-2.244,3.679-6.527,1.434-9.566c-0.404-0.545-0.888-1.029-1.434-1.434
	c-1.36-1-3.48-1.529-6.29-1.529h-2.721v14.1L376.888,228.544z"/>
<path id="path71" fill="#333333" d="M454.728,249.964l-3.91,9.83h-15.54l21.74-56.65h16.05l21.32,56.65h-15.71l-3.65-9.85
	L454.728,249.964z M465.008,220.663l-6.21,18.131h12.229L465.008,220.663z"/>
<path id="path73" fill="#333333" d="M525.638,203.163h21.739c15,0,27.86,13.08,27.86,28.281c0,15.199-12.9,28.35-27.85,28.35h-21.75
	V203.163z M543.728,247.333c5.52,0,9.09-1.439,12.06-4.76c5.439-6.389,5.439-15.781,0-22.17c-3-3.311-6.54-4.76-12.06-4.76h-3.4
	v31.68L543.728,247.333z"/>
<rect id="rect75" x="607.798" y="203.163" fill="#333333" width="14.689" height="56.65"/>
<path id="path77" fill="#333333" d="M708.917,211.794c10.952,12.652,9.574,31.787-3.078,42.74c-0.328,0.283-0.662,0.561-1.002,0.83
	c-5.6,4.33-12.229,6.459-20.13,6.459c-17.84,0-31.09-13.08-31.09-30.75c0.096-9.098,4.314-17.66,11.47-23.279
	c5.731-4.291,12.722-6.563,19.881-6.461c9.85,0,17.92,3.48,24,10.361 M669.047,231.313c-0.16,8.836,6.873,16.127,15.708,16.287
	s16.127-6.871,16.287-15.707s-6.872-16.127-15.707-16.287c-0.096-0.002-0.191-0.002-0.288-0.002
	C676.308,215.563,669.168,222.575,669.047,231.313"/>
</svg>
