<?xml version="1.0" encoding="utf-8"?>
<!-- Generator: Adobe Illustrator 16.0.0, SVG Export Plug-In . SVG Version: 6.00 Build 0)  -->
<!DOCTYPE svg PUBLIC "-//W3C//DTD SVG 1.1//EN" "http://www.w3.org/Graphics/SVG/1.1/DTD/svg11.dtd">
<svg version="1.1" id="svg2" xmlns="http://www.w3.org/2000/svg" xmlns:xlink="http://www.w3.org/1999/xlink" x="0px" y="0px"
	 width="716px" height="131.508px" viewBox="-342 -49.751 716 131.508" enable-background="new -342 -49.751 716 131.508"
	 xml:space="preserve">
<path fill="#333333" d="M-99.535-12.529h-16.268v0.306c1.158,0.109,2.283,0.448,3.311,0.994c1.934,1.104,3.113,3.19,3.026,5.43
	c-0.066,2.677-0.71,5.31-1.869,7.724l-10.357,28.176h-0.372l-9.68-28.209c-1.278-2.808-2.109-5.812-2.447-8.882
	c-0.098-1.541,0.535-3.048,1.715-4.042c1.038-0.678,2.229-1.071,3.463-1.136v-0.306h-33.53v0.306c1.322,0.175,2.589,0.623,3.736,1.3
	c1.693,1.202,3.037,2.83,3.9,4.72c1.966,3.453,3.594,7.08,4.884,10.838l18.977,49.273c0.251,0.896,0.153,1.879-0.295,2.709
	l-1.847,5.2c-4.25,10.096-6.751,13.11-9.352,13.11c-2.141,0-2.873-2.709-4.315-6.926c-0.634-3.78-4.021-6.446-7.833-6.185
	c-4.053-0.24-7.527,2.841-7.768,6.905c-0.011,0.175-0.011,0.394-0.011,0.568c0,6.729,5.048,10.204,11.526,10.204
	c4.545,0.065,8.882-1.923,11.789-5.441c3.114-4.195,5.583-8.849,7.32-13.787c3.037-7.889,15.372-42.368,21.424-58.724
	c0.94-3.157,2.24-6.195,3.868-9.057c1.388-2.644,3.966-4.458,6.916-4.873L-99.535-12.529z"/>
<path fill="#333333" d="M-56.894,19.198c0,20.78-3.441,30.984-11.931,30.984c-3.966,0.087-7.625-2.142-9.352-5.703
	c-2.272-3.89-2.415-7.691-2.437-14.072V10.141C-81.039,4.58-79.728-0.98-76.876-5.777c1.781-3.201,5.102-5.255,8.762-5.419
	c7.779,0,11.22,9.33,11.22,30.416 M-37.917,18.783c0-24.396-12.499-32.524-24.855-32.524c-8.358-0.317-15.743,5.386-17.546,13.547
	h-0.295V-27.3c0-6.184,0.437-14.509,0.437-17.24c0-1.147,0-1.147-1.005-1.147h-24.156v0.415c1.42,0.273,2.786,0.819,4.01,1.595
	c1.792,1.114,2.917,3.026,3.037,5.124c0,1.136,0,3.605,0,5.419v70.752c0,4.064,0,8.5-0.437,12.651h0.295l12.346-9.155h0.153
	c3.988,5.899,10.554,9.57,17.677,9.877c15.809,0,30.339-9.178,30.339-32.284"/>
<path fill="#333333" d="M9.587,18.543c0,14.094-1.737,24.232-5.179,28.428c-1.813,2.229-4.6,3.496-7.484,3.364
	c-2.906,0.044-5.659-1.267-7.484-3.539c-3.441-4.174-5.178-14.159-5.178-28.253s1.606-24.396,5.43-28.515
	c1.879-2.032,4.556-3.136,7.32-3.037c2.862-0.262,5.67,0.929,7.484,3.168C8.101-5.667,9.674,4.471,9.674,18.543 M28.498,18.543
	C28.521,1.15,14.416-12.966-2.977-12.977c-17.404,0-31.509,14.094-31.52,31.497c0,0.012,0,0.012,0,0.022
	c-0.721,17.415,12.793,32.099,30.197,32.798c17.404,0.742,32.098-12.783,32.797-30.176C28.542,20.291,28.542,19.417,28.498,18.543"
	/>
<path fill="#333333" d="M70.714-13.796c-3.977,0.011-7.822,1.606-10.642,4.446c-3.933,3.912-6.599,8.937-7.625,14.389h-0.132
	c0-1.999,0.132-15.394,0.132-16.836c0-0.426,0-0.699-0.722-0.699H28.542v0.273c1.354,0.076,2.666,0.579,3.736,1.431
	c1.29,1.071,2.076,2.633,2.163,4.315c0.307,2.305,0.132,8.642,0.132,11.22v26.45c0.218,4.217,0.044,8.435-0.568,12.63
	c0,2.403-1.661,4.501-4.021,5.025c-0.743,0.371-1.508,0.611-2.316,0.699v0.306h31.968v-0.306c-1.202-0.153-2.316-0.612-3.3-1.289
	c-2.141-1.005-3.016-1.573-3.583-5.419c-0.481-3.3-0.612-6.621-0.438-9.942V20.411c0-3.572,0.132-9.975,0.263-11.406
	c0.874-9.625,5.921-16.049,8.128-16.049c2.229,0,2.229,1.978,3.06,4.742c0.568,4.25,4.195,7.44,8.478,7.484
	c4.589,0.12,8.391-3.485,8.522-8.074c0-0.328,0-0.656-0.044-0.983c0-7.353-4.873-9.92-10.073-9.92"/>
<path fill="#333333" d="M131.939,29.556c-2.71,9.833-8.784,19.84-20.867,19.84c-3.912,0.307-7.626-1.77-9.439-5.266
	c-2.863-5.157-4.479-13.94-4.479-28.023c0-13.1,1.616-21.424,4.61-25.598c1.748-2.207,4.392-3.496,7.232-3.518
	c4.589,0,5.899,1.944,6.904,10.707c0.438,6.042,2.71,9.647,8.348,9.647c3.933,0.12,7.211-2.972,7.342-6.905c0-0.098,0-0.208,0-0.306
	c-0.065-2.994-1.355-5.834-3.605-7.833c-2.71-3.037-9.483-6.042-18.268-6.042c-17.064-0.372-31.202,13.165-31.574,30.23
	c0,0.513,0,1.027,0,1.541c-0.415,9.123,2.731,18.06,8.784,24.877c5.987,5.55,13.919,8.478,22.069,8.15
	c13.373,0,20.846-9.942,23.599-21.151L131.939,29.556z"/>
<path fill="#333333" d="M186.915,27.545h-0.284l-9.789,14.924c-2.163,4.393-6.839,6.949-11.689,6.425h-11.516v-0.35l30.744-60.559
	v-0.59h-46.607l-4.349,21.173h0.438l9.964-15.404c1.508-3.07,4.697-4.96,8.128-4.796h13.285v0.164L133.73,49.483v0.284h49.317
	L186.915,27.545z"/>
<path fill="#333333" d="M221.111,11.277l-0.131,25.686c0.021,3.671-1.639,7.146-4.479,9.483c-0.918,0.502-1.967,0.742-3.016,0.699
	c-4.457,0-7.036-3.519-7.036-12.28c-0.196-4.283,0.481-8.532,2.011-12.521c1.268-2.359,3.3-4.217,5.769-5.233
	C217.004,15.812,219.385,13.801,221.111,11.277 M247.311,47.67v-0.438c-1.18,0.678-2.535,1.005-3.89,1.005
	c-1.268,0.066-2.491-0.458-3.3-1.441c-1.158-1.312-1.289-3.736-1.289-10.227c0-8.893,0.131-28.733,0.131-33.475
	c0-12.094-10.204-16.835-24.406-16.835c-7.758,0-16.979,2.873-20.431,7.32c-1.442,1.813-2.229,4.042-2.294,6.336
	c0,4.611,3.146,6.894,7.625,6.894c5.179,0,7.91-2.579,7.91-7.462c0-4.469-0.371-7.232,0.48-9.112
	c0.875-1.868,2.71-3.245,6.271-3.245c5.419,0,7.32,1.519,7.363,8.893c0,2.294-0.152,7.746-0.152,10.838
	c0,4.884-3.168,8.62-13.569,12.095c-5.419,1.868-11.8,3.004-15.688,6.456c-2.666,2.645-4.13,6.315-4.021,10.073
	c0,10.838,7.778,15.82,16.847,15.82c8.631,0,14.793-3.911,16.278-11.013h0.153c-0.371,2.972,0.634,5.965,2.709,8.128
	c2.819,2.098,6.315,3.06,9.789,2.71c4.764,0.262,9.506-0.918,13.569-3.431"/>
<rect x="-342" y="-45.654" fill="#333333" width="76.641" height="124.177"/>
<path fill="#333333" d="M-99.535-12.223v-0.306h-16.268v0.306c1.158,0.109,2.283,0.448,3.311,0.994
	c1.923,1.125,3.07,3.201,3.004,5.43c-0.044,2.688-0.667,5.332-1.814,7.746l-10.302,28.154h-0.382l-9.647-28.252
	c-1.268-2.83-2.098-5.823-2.447-8.894c-0.099-1.54,0.535-3.048,1.715-4.042c1.027-0.678,2.207-1.06,3.441-1.136v-0.306h-43.188
	v0.306c1.256,0.109,2.48,0.502,3.573,1.136c1.541,0.939,2.382,2.688,2.174,4.468c-0.186,3.431-0.917,6.807-2.174,10.008
	l-9.167,27.849h-0.372l-8.139-27.685c-1.202-3.507-1.923-7.145-2.141-10.849c0-2.142,0.273-3.278,1.573-4.01
	c1.147-0.612,2.414-0.961,3.714-1.005v-0.295h-31.476v0.295c1.082,0.087,2.098,0.546,2.873,1.3c1.53,1.508,2.655,3.376,3.278,5.43
	c0.437,0.83,2.709,7.265,3.201,9.265l-8.915,27.575h-0.382l-9.079-30.143c-0.961-2.775-1.497-5.67-1.606-8.599
	c-0.087-1.256,0.317-2.491,1.136-3.441c1.136-0.907,2.567-1.366,4.021-1.3v-0.306h-31.946v0.306
	c1.333,0.021,2.611,0.535,3.583,1.431c2.874,2.305,4.174,7.189,7.178,16.268l15.055,44.793h6.719l14.64-45.361l15.186,45.361h6.752
	l15.186-46.64c1.234-3.988,2.862-7.855,4.851-11.548c0.754-1.398,1.901-2.556,3.311-3.31h0.262c0.098-0.022,0.208-0.022,0.306,0
	l0.48,0.273c1.639,1.235,2.939,2.874,3.769,4.742c1.956,3.463,3.573,7.09,4.851,10.849l18.988,49.24
	c0.251,0.918,0.142,1.879-0.306,2.71l-1.846,5.156c-4.25,10.073-6.719,13.11-9.297,13.11c-2.142,0-2.874-2.709-4.305-6.948
	c-0.677-3.671-3.999-6.249-7.724-6.031c-4.042-0.24-7.506,2.841-7.746,6.861c-0.011,0.219-0.022,0.415-0.011,0.612
	c0,6.773,5.015,10.204,11.471,10.204c4.534,0.065,8.872-1.923,11.756-5.441c3.114-4.195,5.572-8.849,7.298-13.787
	c3.016-7.889,15.35-42.368,21.37-58.724c0.917-3.157,2.218-6.195,3.846-9.057c1.376-2.633,3.933-4.458,6.883-4.873"/>
<path fill="#333333" d="M374,50.423v-0.306c-0.918-0.175-1.836-0.481-2.709-0.853c-2.186-0.874-3.06-1.595-3.803-5.004
	c-0.634-4.151-0.874-8.347-0.742-12.563v-71.201c0-3.933,0.152-7.025,0.152-9.352c0-0.732,0-0.896-0.721-0.896h-23.73v0.295
	c1.355,0.153,2.666,0.612,3.803,1.333c1.311,0.863,1.923,2.196,2.207,4.96c0.283,3.682,0.371,7.375,0.218,11.067v63.705
	c0.132,4.217-0.065,8.412-0.59,12.586c-0.131,2.251-1.573,4.217-3.671,5.048c-0.874,0.35-1.791,0.655-2.709,0.874v0.284L374,50.423z
	 M321.996,18.063c0,24.057-3.365,32.688-11.275,32.688c-3.671,0.152-7.188-1.421-9.549-4.218c-2.709-2.928-3.955-7.342-3.955-14.814
	V8.24c-0.065-2.852,0.219-5.703,0.896-8.489c2.207-6.588,7.319-11.57,12.738-11.57c7.058,0,11.145,6.151,11.145,29.826
	 M341.333,18.762c0-22.419-12.018-33.104-25.783-33.104c-7.932,0-14.946,4.665-18.333,13.744h-0.306l0.175-11.253
	c0-1.19-0.175-1.19-1.049-1.19h-24.734v0.295c1.9,0.262,3.714,0.961,5.287,2.065c1.508,1.18,2.426,2.96,2.513,4.883
	c0.307,2.36,0,7.615,0,10.248V62.79c0.175,3.868,0.022,7.735-0.415,11.581c-0.742,3.955-1.791,4.851-4.107,5.855
	c-0.874,0.372-1.792,0.656-2.71,0.896v0.634h32.536v-0.415c-1.071-0.175-2.076-0.591-2.95-1.158
	c-2.207-0.918-3.233-1.923-3.977-5.594c-0.438-3.846-0.59-7.714-0.438-11.581V45.048h0.175c3.759,4.326,9.221,6.773,14.946,6.708
	c17.152,0,29.018-12.434,29.018-32.939 M272.744,43.212c-0.131-5.135-4.392-9.199-9.526-9.09c-5.113,0.131-9.199,4.393-9.09,9.527
	c0.131,5.025,4.239,9.046,9.265,9.09c5.047,0.087,9.242-3.911,9.352-8.959C272.744,43.584,272.744,43.387,272.744,43.212"/>
</svg>
