<?xml version="1.0" encoding="utf-8"?>
<!-- Generator: Adobe Illustrator 16.0.0, SVG Export Plug-In . SVG Version: 6.00 Build 0)  -->
<!DOCTYPE svg PUBLIC "-//W3C//DTD SVG 1.1//EN" "http://www.w3.org/Graphics/SVG/1.1/DTD/svg11.dtd">
<svg version="1.1" id="Layer_1" xmlns="http://www.w3.org/2000/svg" xmlns:xlink="http://www.w3.org/1999/xlink" x="0px" y="0px"
	 width="367.25px" height="149.776px" viewBox="0 0 367.25 149.776" enable-background="new 0 0 367.25 149.776"
	 xml:space="preserve">
<g>
	<g>
		<polygon fill="#414042" points="151.6,42.966 139.594,66.064 138.686,66.064 133.213,55.671 127.801,66.064 126.945,66.064 
			114.832,42.966 121.479,42.966 127.379,54.17 129.891,49.346 126.57,42.966 133.213,42.966 139.109,54.17 144.955,42.966 		"/>
		<path fill="#414042" d="M173.178,52.434v23.101h-5.684v-2.246c-2.145,1.816-4.932,2.888-7.934,2.888
			c-6.807,0-12.27-5.471-12.27-12.217c0-6.804,5.463-12.221,12.27-12.221c3.002,0,5.789,1.071,7.934,2.891l0.531-2.195H173.178z
			 M166.422,63.959c0-1.662-0.588-3.271-1.773-4.443c-1.119-1.191-2.619-1.828-4.229-1.828c-1.607,0-3.115,0.637-4.291,1.828
			c-1.121,1.172-1.768,2.781-1.768,4.443c0,1.66,0.646,3.213,1.768,4.446c1.176,1.179,2.684,1.826,4.291,1.826
			c1.609,0,3.109-0.647,4.229-1.826C165.834,67.172,166.422,65.619,166.422,63.959"/>
		<path fill="#414042" d="M186.865,55.061c1.709-2.251,4.766-3.213,7.822-3.213c1.338,0,2.676,0.215,3.91,0.643l-2.631,5.939
			c-3.906-1.704-7.871,0.649-8.57,4.344v12.761h-6.699V52.434h5.197L186.865,55.061z"/>
		<path fill="#414042" d="M201.807,67.656c3.369,3.857,8.516,4.018,8.516,1.125c0-1.717-1.666-2.246-3.385-2.788
			c-4.486-1.387-7.598-2.79-7.598-7.233c0-4.236,3.799-7.021,8.199-7.021c3.965,0,6.107,0.856,9.213,2.736l-3.105,4.875
			c-4.502-3.215-7.553-2.946-7.885-0.485c-0.26,1.716,2.256,2.041,4.941,2.946c3.266,0.963,6.318,3.17,6.318,7.135
			c0,3.693-3.799,7.236-8.521,7.236c-4.18,0-8.145-1.344-10.986-4.183L201.807,67.656z"/>
		<polygon fill="#414042" points="221.098,75.534 221.098,73.979 232.568,58.283 221.42,58.283 221.42,52.434 243.178,52.434 
			243.178,53.822 231.602,69.641 242.377,69.641 242.377,75.534 		"/>
		<path fill="#414042" d="M270.35,52.434v23.101h-5.678v-2.246c-2.143,1.816-4.936,2.888-7.93,2.888
			c-6.811,0-12.275-5.471-12.275-12.217c0-6.804,5.465-12.221,12.275-12.221c2.994,0,5.787,1.071,7.93,2.891l0.537-2.195H270.35z
			 M263.598,63.959c0-1.662-0.586-3.271-1.768-4.443c-1.123-1.191-2.621-1.828-4.232-1.828c-1.607,0-3.105,0.637-4.287,1.828
			c-1.129,1.172-1.773,2.781-1.773,4.443c0,1.66,0.645,3.213,1.773,4.446c1.182,1.179,2.68,1.826,4.287,1.826
			c1.611,0,3.109-0.647,4.232-1.826C263.012,67.172,263.598,65.619,263.598,63.959"/>
		<polygon fill="#414042" points="309.793,52.434 297.781,75.534 296.879,75.534 291.41,65.139 286,75.534 285.141,75.534 
			273.031,52.434 279.672,52.434 285.57,63.637 288.084,58.818 284.764,52.434 291.41,52.434 297.303,63.637 303.148,52.434 		"/>
		<path fill="#414042" d="M313.602,67.656c3.379,3.857,8.525,4.018,8.525,1.125c0-1.717-1.664-2.246-3.383-2.788
			c-4.498-1.387-7.607-2.79-7.607-7.233c0-4.236,3.809-7.021,8.203-7.021c3.969,0,6.113,0.856,9.213,2.736l-3.1,4.875
			c-4.508-3.215-7.564-2.946-7.887-0.485c-0.264,1.716,2.252,2.041,4.932,2.946c3.271,0.963,6.328,3.17,6.328,7.135
			c0,3.693-3.803,7.236-8.525,7.236c-4.174,0-8.148-1.344-10.986-4.183L313.602,67.656z"/>
		<polygon fill="#414042" points="349.949,75.534 342.23,66.154 340.678,67.766 340.678,75.534 333.178,75.534 333.178,44.585 
			340.678,44.585 340.678,59.885 347.537,52.434 356.703,52.434 347.318,62.09 358.738,75.534 		"/>
		<path fill="#414042" d="M360.336,83.308h6.914v7.507h-6.914V83.308z M360.336,52.434h6.914v23.101h-6.914V52.434z"/>
		<path fill="#414042" d="M135.592,76.521c-0.373-0.485-1.287-1.282-2.521-1.282c-3.75,0-4.023,4.873-4.023,6.375v4.341h6.92v6.27
			h-6.92v16.831h-6.426V92.224h-4.393l-0.725-6.99h4.395l0.723-3.62c0-3.755,0.965-6.919,2.836-9.221
			c1.875-2.305,4.613-3.592,7.613-3.592c2.787,0,5.416,1.235,7.395,3.486L135.592,76.521z"/>
		<path fill="#414042" d="M159.268,105.412c-2.197,2.627-5.576,4.279-9.273,4.279c-6.756,0-12.275-5.513-12.275-12.271
			c0-6.807,5.52-12.272,12.275-12.272c6.752,0,12.271,5.466,12.271,12.272c0,0.752-0.053,1.453-0.211,2.197h-17.256
			c0.314,0.853,0.748,1.609,1.334,2.259c1.129,1.228,2.574,1.872,4.127,1.872c1.445,0,2.9-0.645,3.967-1.719L159.268,105.412z
			 M155.781,95.551c-0.266-0.972-0.756-1.877-1.445-2.624c-1.074-1.189-2.572-1.834-4.076-1.834c-1.553,0-2.998,0.645-4.127,1.834
			c-0.641,0.747-1.127,1.652-1.449,2.624H155.781z"/>
		<path fill="#414042" d="M168.486,101.174c3.373,3.859,8.525,4.019,8.525,1.123c0-1.714-1.664-2.249-3.383-2.783
			c-4.498-1.392-7.605-2.791-7.605-7.241c0-4.231,3.805-7.017,8.195-7.017c3.971,0,6.111,0.856,9.227,2.734l-3.115,4.878
			c-4.5-3.221-7.551-2.944-7.881-0.481c-0.264,1.714,2.254,2.031,4.934,2.944c3.271,0.965,6.322,3.164,6.322,7.127
			c0,3.703-3.799,7.233-8.52,7.233c-4.18,0-8.141-1.336-10.986-4.17L168.486,101.174z"/>
		<polygon fill="#414042" points="203.861,85.954 203.861,92.221 198.506,92.221 198.506,109.055 191.693,109.055 191.693,92.221 
			186.869,92.221 186.869,85.954 191.693,85.954 191.693,77.377 198.506,77.377 198.506,85.954 		"/>
		<path fill="#414042" d="M208.041,77.756h6.914v7.502h-6.914 M208.041,92.224h6.914v23.103h-6.914V92.224z"/>
		<polygon fill="#414042" points="255.473,85.954 243.471,109.055 242.559,109.055 237.094,98.651 231.68,109.055 230.824,109.055 
			218.711,85.954 225.361,85.954 231.254,97.147 233.77,92.331 230.443,85.954 237.094,85.954 242.992,97.147 248.832,85.954 		"/>
		<path fill="#414042" d="M281.365,85.951v23.104h-5.678v-2.256c-2.154,1.826-4.932,2.893-7.936,2.893
			c-6.805,0-12.27-5.464-12.27-12.217c0-6.807,5.465-12.219,12.27-12.219c3.004,0,5.781,1.071,7.936,2.888l0.527-2.192H281.365z
			 M274.613,97.475c0-1.655-0.592-3.271-1.773-4.45c-1.123-1.172-2.621-1.819-4.232-1.819c-1.607,0-3.111,0.647-4.287,1.819
			c-1.123,1.179-1.768,2.795-1.768,4.45c0,1.668,0.645,3.216,1.768,4.451c1.176,1.179,2.68,1.823,4.287,1.823
			c1.611,0,3.109-0.645,4.232-1.823C274.021,100.69,274.613,99.143,274.613,97.475"/>
		<rect x="288.354" y="77.813" fill="#414042" width="6.855" height="31.242"/>
		<polygon fill="#414042" points="151.6,119.472 139.594,142.572 138.686,142.572 133.213,132.177 127.801,142.572 126.945,142.572 
			114.832,119.472 121.479,119.472 127.379,130.678 129.891,125.852 126.57,119.472 133.213,119.472 139.109,130.678 
			144.955,119.472 		"/>
		<path fill="#414042" d="M153.207,112.209h6.918v7.5h-6.918V112.209z M153.207,126.679h6.918v23.098h-6.918V126.679z"/>
		<path fill="#414042" d="M173.109,121.503c1.822-1.604,4.232-2.669,6.594-2.669c6.221,0,11.307,5.46,11.307,12.269v11.47h-6.539
			v-11.47c0-3.32-2.357-6.274-5.576-6.274c-3.205,0-5.568,2.954-5.568,6.274v11.47h-6.756v-23.101h5.465L173.109,121.503z"/>
		<path fill="#414042" d="M196.982,112.23h6.908v7.51h-6.908V112.23z M196.982,126.708h6.908v23.101h-6.908V126.708z"/>
		<path fill="#414042" d="M235.092,119.472v23.101h-5.678v-2.253c-2.148,1.823-4.938,2.891-7.936,2.891
			c-6.801,0-12.27-5.459-12.27-12.22c0-6.797,5.469-12.217,12.27-12.217c2.998,0,5.787,1.069,7.936,2.898l0.537-2.2H235.092z
			 M228.344,130.99c0-1.66-0.596-3.264-1.771-4.443c-1.129-1.174-2.633-1.826-4.234-1.826c-1.605,0-3.109,0.652-4.287,1.826
			c-1.133,1.18-1.768,2.783-1.768,4.443c0,1.665,0.635,3.223,1.768,4.456c1.178,1.172,2.682,1.818,4.287,1.818
			c1.602,0,3.105-0.646,4.234-1.818C227.748,134.213,228.344,132.655,228.344,130.99"/>
		<path fill="#414042" d="M248.783,122.094c1.719-2.251,4.771-3.213,7.822-3.213c1.344,0,2.686,0.21,3.922,0.645l-2.633,5.942
			c-3.91-1.709-7.875,0.654-8.574,4.346v12.759h-6.693v-23.104h5.189L248.783,122.094z"/>
		<path fill="#414042" d="M263.738,134.688c3.379,3.857,8.525,4.021,8.525,1.131c0-1.717-1.664-2.248-3.379-2.788
			c-4.502-1.396-7.611-2.783-7.611-7.231c0-4.235,3.809-7.026,8.197-7.026c3.971,0,6.119,0.861,9.225,2.729l-3.105,4.883
			c-4.508-3.218-7.564-2.949-7.887-0.483c-0.264,1.712,2.252,2.039,4.932,2.944c3.271,0.967,6.324,3.164,6.324,7.131
			c0,3.699-3.799,7.232-8.521,7.232c-4.18,0-8.143-1.334-10.984-4.183L263.738,134.688z"/>
		<polygon fill="#414042" points="300.092,142.572 292.371,133.19 290.818,134.799 290.818,142.572 283.314,142.572 
			283.314,112.418 290.818,112.418 290.818,126.921 297.674,119.472 306.834,119.472 297.459,129.12 308.875,142.572 		"/>
		<path fill="#414042" d="M310.477,105.002h6.92v7.502h-6.92V105.002z M310.477,119.469h6.92v23.097h-6.92V119.469z"/>
	</g>
	<g>
		<path fill="#FFEEDB" d="M5.235,0H58.41c0,0-5.781,27.761-27.764,27.761C8.661,27.761,5.235,0,5.235,0z"/>
		<path fill="#C41E5A" d="M59.109,0h53.174c0,0-5.777,27.761-27.764,27.761C62.535,27.761,59.109,0,59.109,0z"/>
		<path fill="#414042" d="M107.512,0c0,12.803-10.418,23.218-23.219,23.218C71.49,23.218,61.076,12.803,61.076,0h-7.322
			c0,12.803-10.412,23.218-23.215,23.218S7.321,12.803,7.321,0H0c0,16.841,13.698,30.539,30.539,30.539
			c11.602,0,21.709-6.507,26.877-16.058c5.166,9.551,15.273,16.058,26.877,16.058c16.842,0,30.539-13.698,30.539-30.539H107.512z"/>
		<polygon fill="#414042" points="87.955,58.864 87.955,51.889 80.633,51.889 80.633,58.864 73.313,58.864 73.313,66.186 
			80.633,66.186 87.955,66.186 95.277,66.186 95.277,58.864 		"/>
		<polygon fill="#414042" points="35.482,58.864 35.482,51.889 28.16,51.889 28.16,58.864 20.84,58.864 20.84,66.186 28.16,66.186 
			35.482,66.186 42.805,66.186 42.805,58.864 		"/>
	</g>
</g>
</svg>
