<?xml version="1.0" encoding="utf-8"?>
<!-- Generator: Adobe Illustrator 16.0.0, SVG Export Plug-In . SVG Version: 6.00 Build 0)  -->
<!DOCTYPE svg PUBLIC "-//W3C//DTD SVG 1.1//EN" "http://www.w3.org/Graphics/SVG/1.1/DTD/svg11.dtd">
<svg version="1.1" id="Layer_1" xmlns="http://www.w3.org/2000/svg" xmlns:xlink="http://www.w3.org/1999/xlink" x="0px" y="0px"
	 width="259.51px" height="149.775px" viewBox="0 0 259.51 149.775" enable-background="new 0 0 259.51 149.775"
	 xml:space="preserve">
<path fill="#FFEEDB" d="M11.83,0h120.171c0,0-13.065,62.737-62.744,62.737C19.573,62.737,11.83,0,11.83,0z"/>
<path fill="#C41E5A" d="M133.581,0H253.75c0,0-13.057,62.737-62.745,62.737C141.324,62.737,133.581,0,133.581,0z"/>
<path fill="#FFFFFF" d="M242.968,0c0,28.933-23.545,52.47-52.474,52.47c-28.933,0-52.468-23.537-52.468-52.47h-16.547
	c0,28.933-23.531,52.47-52.463,52.47C40.082,52.47,16.544,28.933,16.544,0H0c0,38.059,30.957,69.016,69.016,69.016
	c26.219,0,49.06-14.705,60.739-36.291c11.675,21.586,34.516,36.291,60.739,36.291c38.062,0,69.016-30.957,69.016-69.016H242.968z"/>
<polygon fill="#FFFFFF" points="198.771,133.028 198.771,117.264 182.223,117.264 182.223,133.028 165.681,133.028 165.681,149.573 
	182.223,149.573 198.771,149.573 215.317,149.573 215.317,133.028 "/>
<polygon fill="#FFFFFF" points="80.186,133.028 80.186,117.264 63.639,117.264 63.639,133.028 47.096,133.028 47.096,149.573 
	63.639,149.573 80.186,149.573 96.736,149.573 96.736,133.028 "/>
</svg>
