<?xml version="1.0" encoding="utf-8"?>
<!-- Generator: Adobe Illustrator 16.0.0, SVG Export Plug-In . SVG Version: 6.00 Build 0)  -->
<!DOCTYPE svg PUBLIC "-//W3C//DTD SVG 1.1//EN" "http://www.w3.org/Graphics/SVG/1.1/DTD/svg11.dtd">
<svg version="1.1" id="Layer_1" xmlns="http://www.w3.org/2000/svg" xmlns:xlink="http://www.w3.org/1999/xlink" x="0px" y="0px"
	 width="197.031px" height="90.708px" viewBox="0 0 197.031 90.708" enable-background="new 0 0 197.031 90.708"
	 xml:space="preserve">
<g>
	<g id="XMLID_1475_">
		<g>
			<path id="XMLID_371_" fill="#333333" d="M68.021,41.889V24.877h10.752v2.626h-7.659v4.345h6.8v2.626h-6.8v7.414H68.021z"/>
			<path id="XMLID_369_" fill="#333333" d="M91.244,41.227c-0.573,0.147-1.317,0.298-2.234,0.454
				c-0.917,0.156-1.923,0.233-3.02,0.233c-1.031,0-1.895-0.146-2.59-0.442c-0.696-0.294-1.252-0.703-1.669-1.227
				c-0.417-0.524-0.716-1.15-0.896-1.877c-0.18-0.728-0.27-1.526-0.27-2.394V28.78h2.971v6.726c0,1.375,0.2,2.357,0.601,2.946
				s1.101,0.883,2.099,0.883c0.36,0,0.74-0.016,1.142-0.048c0.401-0.033,0.699-0.074,0.896-0.123V28.78h2.97V41.227z"/>
			<path id="XMLID_367_" fill="#333333" d="M94.876,29.467c0.573-0.163,1.317-0.318,2.234-0.466
				c0.917-0.147,1.931-0.221,3.043-0.221c1.047,0,1.924,0.143,2.627,0.429c0.703,0.287,1.264,0.688,1.682,1.204
				c0.418,0.515,0.711,1.137,0.883,1.865c0.172,0.729,0.258,1.526,0.258,2.394v7.217h-2.969v-6.75c0-0.688-0.047-1.273-0.137-1.755
				s-0.236-0.876-0.441-1.178c-0.205-0.303-0.482-0.523-0.834-0.664c-0.352-0.138-0.781-0.208-1.289-0.208
				c-0.376,0-0.769,0.024-1.178,0.074c-0.409,0.049-0.711,0.09-0.908,0.122v10.36h-2.97V29.467z"/>
			<path id="XMLID_364_" fill="#333333" d="M119.939,41.202c-0.588,0.18-1.33,0.343-2.221,0.491c-0.893,0.146-1.828,0.22-2.811,0.22
				c-1.016,0-1.924-0.155-2.725-0.466c-0.803-0.312-1.486-0.757-2.051-1.338c-0.564-0.581-0.998-1.285-1.301-2.11
				c-0.303-0.827-0.455-1.756-0.455-2.787c0-1.015,0.127-1.935,0.381-2.761c0.254-0.827,0.627-1.535,1.117-2.124
				c0.492-0.59,1.088-1.044,1.793-1.362c0.703-0.32,1.514-0.479,2.43-0.479c0.621,0,1.17,0.073,1.645,0.221
				c0.475,0.147,0.885,0.311,1.229,0.49v-6.161l2.969-0.491V41.202z M111.421,35.139c0,1.308,0.311,2.336,0.934,3.081
				c0.621,0.744,1.48,1.116,2.576,1.116c0.475,0,0.881-0.02,1.217-0.061c0.334-0.04,0.609-0.085,0.822-0.135v-7.364
				c-0.264-0.18-0.611-0.349-1.045-0.504s-0.895-0.233-1.387-0.233c-1.08,0-1.869,0.369-2.369,1.104
				C111.671,32.879,111.421,33.878,111.421,35.139z"/>
			<path id="XMLID_362_" fill="#333333" d="M134.103,41.227c-0.572,0.147-1.318,0.298-2.234,0.454
				c-0.916,0.156-1.922,0.233-3.02,0.233c-1.031,0-1.895-0.146-2.59-0.442c-0.695-0.294-1.252-0.703-1.668-1.227
				c-0.418-0.524-0.717-1.15-0.896-1.877c-0.18-0.728-0.27-1.526-0.27-2.394V28.78h2.969v6.726c0,1.375,0.201,2.357,0.602,2.946
				c0.402,0.589,1.102,0.883,2.1,0.883c0.359,0,0.74-0.016,1.141-0.048c0.402-0.033,0.701-0.074,0.896-0.123V28.78h2.971V41.227z"/>
			<path id="XMLID_360_" fill="#333333" d="M140.953,39.458c0.785,0,1.357-0.095,1.717-0.283c0.361-0.188,0.541-0.511,0.541-0.969
				c0-0.426-0.193-0.777-0.578-1.055s-1.018-0.582-1.902-0.909c-0.539-0.196-1.035-0.405-1.484-0.626
				c-0.451-0.221-0.838-0.478-1.166-0.774c-0.327-0.294-0.586-0.65-0.773-1.067c-0.188-0.417-0.281-0.928-0.281-1.534
				c0-1.178,0.432-2.108,1.301-2.787c0.867-0.678,2.045-1.018,3.535-1.018c0.752,0,1.473,0.069,2.16,0.208
				c0.688,0.139,1.201,0.274,1.545,0.405l-0.539,2.406c-0.328-0.147-0.744-0.282-1.252-0.405c-0.508-0.123-1.098-0.185-1.768-0.185
				c-0.605,0-1.096,0.102-1.473,0.307c-0.377,0.205-0.564,0.52-0.564,0.945c0,0.213,0.037,0.401,0.109,0.564
				c0.074,0.164,0.201,0.315,0.381,0.455s0.418,0.278,0.713,0.417c0.293,0.139,0.654,0.282,1.08,0.43
				c0.703,0.262,1.301,0.519,1.791,0.773c0.492,0.253,0.896,0.54,1.215,0.859c0.32,0.319,0.553,0.683,0.701,1.092
				c0.146,0.41,0.221,0.901,0.221,1.474c0,1.227-0.455,2.156-1.363,2.785c-0.908,0.631-2.205,0.945-3.891,0.945
				c-1.129,0-2.037-0.094-2.725-0.282s-1.17-0.339-1.449-0.455l0.516-2.48c0.441,0.182,0.971,0.352,1.584,0.516
				S140.166,39.458,140.953,39.458z"/>
			<path id="XMLID_358_" fill="#333333" d="M157.792,31.137c-0.328,0.344-0.758,0.827-1.289,1.448
				c-0.533,0.622-1.102,1.313-1.707,2.074c-0.605,0.762-1.215,1.555-1.828,2.382c-0.615,0.826-1.166,1.616-1.658,2.369h6.629v2.479
				h-10.211v-1.841c0.359-0.654,0.809-1.366,1.35-2.135c0.539-0.769,1.096-1.542,1.668-2.32c0.574-0.777,1.143-1.518,1.707-2.222
				c0.564-0.703,1.068-1.318,1.51-1.842h-5.916V29.05h9.746V31.137z"/>
			<path id="XMLID_355_" fill="#333333" d="M159.412,35.237c0-1.129,0.168-2.119,0.504-2.971c0.334-0.851,0.781-1.559,1.338-2.123
				c0.555-0.565,1.193-0.99,1.914-1.277c0.721-0.286,1.457-0.429,2.209-0.429c1.768,0,3.146,0.548,4.137,1.644
				c0.99,1.097,1.484,2.733,1.484,4.91c0,0.163-0.004,0.347-0.012,0.552c-0.008,0.205-0.02,0.389-0.037,0.552h-8.469
				c0.082,1.031,0.445,1.829,1.092,2.394c0.646,0.564,1.584,0.847,2.813,0.847c0.719,0,1.377-0.065,1.975-0.196
				s1.068-0.27,1.412-0.417l0.393,2.43c-0.164,0.082-0.389,0.167-0.676,0.258c-0.285,0.089-0.613,0.172-0.98,0.244
				c-0.369,0.074-0.766,0.136-1.191,0.185c-0.426,0.049-0.859,0.074-1.301,0.074c-1.129,0-2.111-0.167-2.945-0.502
				c-0.836-0.336-1.521-0.802-2.063-1.399s-0.941-1.302-1.203-2.112C159.542,37.09,159.412,36.203,159.412,35.237z M168.029,33.911
				c0-0.41-0.059-0.798-0.172-1.167c-0.115-0.368-0.283-0.687-0.504-0.958c-0.221-0.27-0.49-0.482-0.811-0.638
				c-0.318-0.155-0.699-0.233-1.141-0.233c-0.459,0-0.859,0.085-1.203,0.258c-0.344,0.172-0.635,0.396-0.871,0.675
				c-0.238,0.279-0.422,0.597-0.553,0.957c-0.131,0.361-0.221,0.729-0.27,1.105H168.029z"/>
			<path id="XMLID_353_" fill="#333333" d="M68.021,64.565V47.555h10.924v2.627h-7.831v4.196h6.972v2.579h-6.972v4.983h8.42v2.625
				H68.021z"/>
			<path id="XMLID_351_" fill="#333333" d="M92.225,63.904c-0.573,0.146-1.317,0.298-2.234,0.453
				c-0.917,0.156-1.923,0.233-3.02,0.233c-1.031,0-1.895-0.146-2.59-0.441c-0.696-0.295-1.252-0.703-1.669-1.228
				c-0.417-0.523-0.716-1.149-0.896-1.878s-0.27-1.525-0.27-2.394v-7.192h2.971v6.727c0,1.374,0.2,2.356,0.601,2.945
				c0.401,0.588,1.101,0.884,2.099,0.884c0.36,0,0.74-0.017,1.142-0.049c0.401-0.034,0.699-0.074,0.896-0.124V51.458h2.97V63.904z"
				/>
			<path id="XMLID_349_" fill="#333333" d="M103.173,54.403c-0.246-0.082-0.586-0.168-1.02-0.257
				c-0.434-0.091-0.938-0.137-1.51-0.137c-0.326,0-0.674,0.034-1.042,0.099c-0.368,0.065-0.626,0.123-0.773,0.172v10.285h-2.97
				V52.341c0.573-0.212,1.289-0.413,2.148-0.601c0.859-0.188,1.812-0.282,2.859-0.282c0.197,0,0.426,0.013,0.688,0.037
				c0.262,0.023,0.523,0.057,0.787,0.098c0.26,0.04,0.514,0.09,0.76,0.147s0.441,0.11,0.59,0.159L103.173,54.403z"/>
			<path id="XMLID_346_" fill="#333333" d="M117.214,57.815c0,1.016-0.146,1.939-0.441,2.774c-0.295,0.834-0.713,1.546-1.252,2.136
				c-0.541,0.589-1.191,1.047-1.951,1.375c-0.762,0.326-1.602,0.49-2.518,0.49s-1.75-0.164-2.504-0.49
				c-0.752-0.328-1.398-0.786-1.939-1.375c-0.539-0.59-0.961-1.302-1.264-2.136c-0.303-0.835-0.453-1.759-0.453-2.774
				c0-1.015,0.15-1.935,0.453-2.761c0.303-0.827,0.729-1.534,1.277-2.124c0.547-0.59,1.197-1.043,1.951-1.363
				c0.752-0.318,1.578-0.478,2.479-0.478s1.73,0.159,2.492,0.478c0.762,0.32,1.412,0.773,1.951,1.363
				c0.541,0.59,0.961,1.297,1.264,2.124C117.062,55.881,117.214,56.801,117.214,57.815z M114.169,57.815
				c0-1.277-0.272-2.287-0.822-3.031c-0.547-0.744-1.313-1.117-2.295-1.117c-0.98,0-1.746,0.373-2.295,1.117
				c-0.548,0.744-0.822,1.754-0.822,3.031c0,1.293,0.274,2.316,0.822,3.068c0.549,0.754,1.314,1.13,2.295,1.13
				c0.982,0,1.748-0.376,2.295-1.13C113.897,60.132,114.169,59.108,114.169,57.815z"/>
			<path id="XMLID_343_" fill="#333333" d="M131.697,58.159c0,0.982-0.127,1.883-0.379,2.701c-0.254,0.817-0.619,1.521-1.094,2.11
				s-1.068,1.048-1.779,1.375s-1.518,0.491-2.418,0.491c-0.605,0-1.162-0.074-1.67-0.221c-0.506-0.148-0.924-0.313-1.252-0.491
				v4.983h-2.969V52.146c0.604-0.163,1.35-0.32,2.232-0.468c0.885-0.146,1.816-0.22,2.799-0.22c1.016,0,1.924,0.154,2.725,0.466
				c0.803,0.312,1.486,0.758,2.051,1.339c0.564,0.58,0.998,1.283,1.301,2.11S131.697,57.129,131.697,58.159z M128.654,58.209
				c0-1.327-0.299-2.356-0.896-3.094s-1.559-1.105-2.885-1.105c-0.277,0-0.568,0.014-0.87,0.038
				c-0.304,0.024-0.603,0.078-0.897,0.158v7.34c0.262,0.182,0.609,0.35,1.043,0.504c0.434,0.156,0.896,0.232,1.389,0.232
				c1.08,0,1.869-0.367,2.367-1.104C128.404,60.442,128.654,59.452,128.654,58.209z"/>
			<path id="XMLID_340_" fill="#333333" d="M133.908,57.913c0-1.129,0.166-2.119,0.502-2.97s0.781-1.56,1.338-2.124
				s1.195-0.99,1.916-1.275c0.719-0.286,1.455-0.43,2.209-0.43c1.768,0,3.145,0.549,4.137,1.644
				c0.988,1.098,1.484,2.734,1.484,4.911c0,0.163-0.004,0.348-0.012,0.551c-0.01,0.205-0.021,0.391-0.037,0.553h-8.469
				c0.08,1.031,0.445,1.83,1.092,2.395s1.584,0.847,2.811,0.847c0.721,0,1.379-0.065,1.977-0.196s1.068-0.271,1.41-0.418l0.395,2.43
				c-0.164,0.083-0.391,0.168-0.676,0.258c-0.287,0.09-0.613,0.172-0.981,0.246s-0.767,0.135-1.19,0.185
				c-0.426,0.048-0.859,0.073-1.303,0.073c-1.129,0-2.109-0.168-2.945-0.504c-0.834-0.334-1.521-0.801-2.061-1.398
				c-0.541-0.598-0.941-1.301-1.203-2.111S133.908,58.88,133.908,57.913z M142.523,56.589c0-0.41-0.057-0.799-0.172-1.166
				c-0.115-0.368-0.281-0.688-0.504-0.958c-0.221-0.27-0.49-0.482-0.809-0.638c-0.32-0.156-0.699-0.234-1.142-0.234
				c-0.458,0-0.86,0.086-1.204,0.258c-0.344,0.173-0.633,0.397-0.871,0.676c-0.236,0.277-0.422,0.598-0.553,0.957
				s-0.221,0.729-0.27,1.105H142.523z"/>
			<path id="XMLID_337_" fill="#333333" d="M146.843,69.133c-0.213,0-0.512-0.021-0.896-0.062s-0.725-0.119-1.018-0.233l0.393-2.43
				c0.359,0.114,0.793,0.171,1.301,0.171c0.688,0,1.17-0.201,1.447-0.601c0.279-0.401,0.418-1.003,0.418-1.805V51.728h2.971v12.495
				c0,1.669-0.396,2.905-1.191,3.707C149.474,68.731,148.332,69.133,146.843,69.133z M151.777,47.972
				c0,0.557-0.18,0.999-0.539,1.326c-0.361,0.327-0.785,0.491-1.277,0.491c-0.508,0-0.941-0.164-1.301-0.491
				s-0.539-0.77-0.539-1.326c0-0.572,0.18-1.023,0.539-1.35c0.359-0.328,0.793-0.492,1.301-0.492c0.492,0,0.916,0.164,1.277,0.492
				C151.597,46.948,151.777,47.399,151.777,47.972z"/>
			<path id="XMLID_335_" fill="#333333" d="M158.308,62.136c0.785,0,1.357-0.094,1.717-0.281c0.361-0.189,0.541-0.512,0.541-0.971
				c0-0.426-0.193-0.776-0.578-1.055c-0.385-0.279-1.018-0.581-1.902-0.908c-0.539-0.197-1.035-0.406-1.484-0.627
				c-0.451-0.221-0.838-0.479-1.166-0.773c-0.328-0.294-0.586-0.65-0.773-1.068c-0.188-0.416-0.281-0.928-0.281-1.533
				c0-1.178,0.432-2.107,1.301-2.786c0.867-0.679,2.045-1.019,3.535-1.019c0.752,0,1.473,0.07,2.16,0.209s1.201,0.274,1.545,0.404
				l-0.539,2.405c-0.328-0.146-0.744-0.282-1.252-0.405s-1.098-0.183-1.768-0.183c-0.605,0-1.096,0.103-1.473,0.306
				c-0.377,0.205-0.564,0.52-0.564,0.946c0,0.212,0.037,0.399,0.109,0.563c0.074,0.164,0.201,0.315,0.381,0.455
				c0.18,0.139,0.418,0.277,0.713,0.416c0.293,0.141,0.654,0.283,1.08,0.43c0.703,0.262,1.301,0.521,1.791,0.773
				c0.492,0.254,0.896,0.541,1.215,0.859c0.32,0.318,0.553,0.685,0.701,1.092c0.146,0.41,0.221,0.901,0.221,1.475
				c0,1.227-0.455,2.156-1.363,2.786s-2.205,0.944-3.891,0.944c-1.129,0-2.037-0.094-2.725-0.283
				c-0.688-0.187-1.17-0.339-1.449-0.453l0.516-2.48c0.441,0.182,0.971,0.354,1.584,0.517
				C156.822,62.055,157.522,62.136,158.308,62.136z"/>
			<path id="XMLID_333_" fill="#333333" d="M169.132,56.735c0.377-0.393,0.777-0.813,1.203-1.264c0.426-0.451,0.844-0.9,1.252-1.351
				c0.41-0.45,0.799-0.884,1.166-1.302c0.369-0.416,0.684-0.781,0.945-1.092h3.511c-0.817,0.916-1.679,1.865-2.585,2.848
				s-1.816,1.939-2.73,2.872c0.49,0.409,1.004,0.905,1.543,1.485c0.539,0.581,1.063,1.199,1.568,1.854s0.98,1.309,1.42,1.963
				c0.441,0.656,0.809,1.261,1.104,1.816h-3.438c-0.295-0.506-0.635-1.038-1.018-1.595c-0.385-0.556-0.799-1.097-1.24-1.62
				s-0.893-1.019-1.35-1.486c-0.459-0.465-0.908-0.861-1.352-1.19v5.892h-2.969V46.009l2.969-0.492V56.735z"/>
			<path id="XMLID_330_" fill="#333333" d="M182.855,47.972c0,0.557-0.182,0.999-0.541,1.326s-0.785,0.491-1.275,0.491
				c-0.508,0-0.941-0.164-1.301-0.491c-0.361-0.327-0.541-0.77-0.541-1.326c0-0.572,0.18-1.023,0.541-1.35
				c0.359-0.328,0.793-0.492,1.301-0.492c0.49,0,0.916,0.164,1.275,0.492C182.673,46.948,182.855,47.399,182.855,47.972z
				 M182.535,64.565h-2.969V51.728h2.969V64.565z"/>
			<path id="XMLID_327_" fill="#333333" d="M185.457,57.913c0-1.129,0.168-2.119,0.504-2.97c0.334-0.851,0.781-1.56,1.338-2.124
				c0.555-0.564,1.193-0.99,1.914-1.275c0.721-0.286,1.457-0.43,2.209-0.43c1.768,0,3.146,0.549,4.137,1.644
				c0.99,1.098,1.484,2.734,1.484,4.911c0,0.163-0.004,0.348-0.012,0.551c-0.008,0.205-0.02,0.391-0.037,0.553h-8.469
				c0.082,1.031,0.445,1.83,1.092,2.395s1.584,0.847,2.813,0.847c0.719,0,1.377-0.065,1.975-0.196
				c0.599-0.131,1.068-0.271,1.412-0.418l0.394,2.43c-0.165,0.083-0.39,0.168-0.677,0.258c-0.285,0.09-0.613,0.172-0.98,0.246
				c-0.369,0.074-0.766,0.135-1.191,0.185c-0.426,0.048-0.858,0.073-1.301,0.073c-1.129,0-2.111-0.168-2.945-0.504
				c-0.836-0.334-1.521-0.801-2.063-1.398s-0.941-1.301-1.203-2.111S185.457,58.88,185.457,57.913z M194.074,56.589
				c0-0.41-0.059-0.799-0.172-1.166c-0.115-0.368-0.283-0.688-0.504-0.958c-0.221-0.27-0.49-0.482-0.811-0.638
				c-0.318-0.156-0.699-0.234-1.141-0.234c-0.459,0-0.859,0.086-1.203,0.258c-0.344,0.173-0.635,0.397-0.871,0.676
				c-0.238,0.277-0.422,0.598-0.553,0.957s-0.221,0.729-0.27,1.105H194.074z"/>
		</g>
	</g>
	<path id="XMLID_57_" fill="#333333" d="M41.091,36.686c1.158-0.226,2.697-1.004,4.267-1.992V0L-0.003,14.173l0.006,34.019
		c2.284,0.622,4.825,0.913,6.5-0.098c3.664-2.187,9.212-8.876,9.212-8.876s-2.925,7.216-1.821,9.865
		c1.166,2.812,8.099,2.963,8.099,2.963s-7.836,4.765-11.484,7.923C6.758,63.19,4.154,75.032,4.154,75.032s-1.818-7.59-4.151-9.178
		v-0.004c-0.002,0-0.004,0-0.006,0v16.354l45.361,8.504V51.356c-1.03,0.291-1.995,0.596-2.768,0.924
		c-3.966,1.625-8.337,13.56-8.337,13.56s-0.237-9.94-2.011-12.794c-1.668-2.661-10.248-1.001-10.248-1.001s7.762-4.976,10.176-8.951
		c2.293-3.771,1.376-9.892,1.376-9.892S37.447,37.388,41.091,36.686z M25.524,31.95c-2.833,0.538-9.809,7.269-9.809,7.269
		s4.384-6.87,4.12-9.315c-0.26-2.321-4.807-3.158-4.807-3.158s5.953-1.461,8.549-3.797c2.504-2.254,4.694-6.933,4.694-6.933
		s0.554,3.871,2.78,4.426c2.298,0.579,8.438-1.9,8.438-1.9s-4.847,4.585-6.749,7.086c-1.987,2.608,0.804,7.572,0.804,7.572
		S28.402,31.411,25.524,31.95z"/>
</g>
</svg>
