<?xml version="1.0" encoding="utf-8"?>
<!-- Generator: Adobe Illustrator 16.0.0, SVG Export Plug-In . SVG Version: 6.00 Build 0)  -->
<!DOCTYPE svg PUBLIC "-//W3C//DTD SVG 1.1//EN" "http://www.w3.org/Graphics/SVG/1.1/DTD/svg11.dtd">
<svg version="1.1" id="Warstwa_2" xmlns="http://www.w3.org/2000/svg" xmlns:xlink="http://www.w3.org/1999/xlink" x="0px" y="0px"
	 width="573.755px" height="210.84px" viewBox="0 0 573.755 210.84" enable-background="new 0 0 573.755 210.84"
	 xml:space="preserve">
<path fill="#333333" d="M277,49.601l0.09-16.194c0-0.825,0-2.791,0.044-5.765c-0.583,2.791-1.079,4.757-1.348,5.855l-4.002,16.104
	h-7.24l-4.046-15.738c-0.449-1.785-0.855-3.843-1.304-6.222c0.09,2.835,0.137,4.85,0.137,6.085v15.875h-9.398V16.708h12.634
	l4.496,16.423c0.09,0.413,0.452,2.015,1.079,4.806c0.45-2.381,0.811-3.982,1.036-4.759l4.585-16.47h12.634v32.894H277z"/>
<rect x="293.409" y="25.308" fill="#333333" width="9.577" height="24.293"/>
<path fill="#333333" d="M325.826,49.601V37.021c0-3.34-0.63-4.849-3.237-4.849c-2.384,0-3.551,1.602-3.551,4.896v12.534h-9.486
	V25.308h8.632v3.57c2.202-2.837,4.9-4.21,8.363-4.21c2.92,0,5.216,1.006,6.788,2.928c1.844,2.242,1.978,5.169,1.978,9.379v12.626
	H325.826z"/>
<rect x="341.668" y="25.308" fill="#333333" width="9.577" height="24.293"/>
<path fill="#333333" d="M368.421,50.47c-7.733,0-11.779-2.835-12.185-8.51h9.218c0,2.061,1.032,3.067,3.101,3.067
	c2.024,0,3.104-0.732,3.104-2.012c0-1.741-1.351-1.924-4.002-2.518c-7.374-1.602-10.79-2.928-10.79-8.053
	c0-5.169,3.999-8.007,11.732-8.007c7.149,0,11.062,2.608,11.646,7.641h-8.542c-0.134-1.419-1.304-2.378-3.013-2.378
	c-1.707,0-2.562,0.64-2.562,1.692c0,1.738,1.572,1.738,4.539,2.424c7.105,1.648,10.388,2.974,10.388,8.236
	C381.055,47.589,376.782,50.47,368.421,50.47"/>
<path fill="#333333" d="M395.308,50.014c-5.89,0-8.095-1.692-8.095-6.954v-12.17h-3.37v-5.582h3.37v-7.501h9.442v7.501h4.451v5.582
	h-4.451v9.699c0,1.738,0.898,2.241,3.191,2.241c0.405,0,0.854,0,1.351-0.043v6.998C399.129,49.923,397.151,50.014,395.308,50.014"/>
<path fill="#333333" d="M413.965,39.582c0.088,3.111,1.663,4.85,4.405,4.85c1.844,0,3.104-0.732,3.553-2.012h9.081
	c-1.304,5.26-5.802,8.051-13.174,8.051c-8.272,0-13.352-5.077-13.352-12.81c0-8.144,5.216-13.223,13.713-13.223
	c8.451,0,13.579,5.399,13.579,14.551v0.593H413.965z M418.099,30.203c-2.471,0-3.999,1.648-4.134,4.53h8.454
	C422.239,31.712,420.8,30.203,418.099,30.203"/>
<path fill="#333333" d="M450.875,34.184c-3.818,0-5.572,1.692-5.572,5.445v9.973h-9.532V25.308h8.769v4.439
	c1.258-3.57,3.551-5.079,7.416-5.079h0.856v9.652C452.092,34.229,451.462,34.184,450.875,34.184"/>
<path fill="#333333" d="M468.142,50.47c-7.733,0-11.779-2.835-12.183-8.51h9.216c0,2.061,1.033,3.067,3.104,3.067
	c2.021,0,3.101-0.732,3.101-2.012c0-1.741-1.348-1.924-4.002-2.518c-7.374-1.602-10.79-2.928-10.79-8.053
	c0-5.169,4.002-8.007,11.735-8.007c7.147,0,11.059,2.608,11.645,7.641h-8.541c-0.137-1.419-1.307-2.378-3.014-2.378
	c-1.709,0-2.563,0.64-2.563,1.692c0,1.738,1.575,1.738,4.542,2.424c7.103,1.648,10.385,2.974,10.385,8.236
	C480.776,47.589,476.505,50.47,468.142,50.47"/>
<path fill="#333333" d="M495.166,50.014c-5.89,0-8.092-1.692-8.092-6.954v-12.17h-3.372v-5.582h3.372v-7.501h9.439v7.501h4.454
	v5.582h-4.454v9.699c0,1.738,0.901,2.241,3.194,2.241c0.402,0,0.854,0,1.348-0.043v6.998
	C498.987,49.923,497.011,50.014,495.166,50.014"/>
<polygon fill="#333333" points="537.653,49.601 528.344,49.601 524.882,35.556 521.422,49.601 512.117,49.601 504.249,25.308 
	513.645,25.308 517.196,40.131 520.882,25.308 528.887,25.308 532.574,40.131 536.125,25.308 545.159,25.308 "/>
<path fill="#333333" d="M559.546,50.47c-8.405,0-13.486-4.986-13.486-13.039c0-8.051,5.081-12.993,13.486-12.993
	c8.409,0,13.488,4.942,13.488,12.993C573.035,45.484,567.956,50.47,559.546,50.47 M559.546,31.163c-2.877,0-3.909,1.968-3.909,6.268
	c0,4.302,1.032,6.314,3.909,6.314c2.879,0,3.955-2.012,3.955-6.314C563.501,33.131,562.425,31.163,559.546,31.163"/>
<polygon fill="#010202" points="270.718,95.537 262.762,82.287 260.185,85 260.185,95.537 249.83,95.537 249.83,62.457 
	260.185,62.457 260.185,73.407 269.542,62.457 281.66,62.457 270.041,74.649 283.151,95.537 "/>
<path fill="#010202" d="M301.619,95.537v-3.589c-2.216,2.852-4.928,4.232-8.409,4.232c-2.938,0-5.245-1.013-6.828-2.945
	c-1.854-2.253-1.944-5.244-1.944-9.478v-12.65h9.54v12.605c0,3.359,0.634,4.924,3.256,4.924c2.397,0,3.572-1.657,3.572-4.969v-12.56
	h9.54v24.43H301.619z"/>
<rect x="316.403" y="62.457" fill="#010202" width="9.631" height="33.08"/>
<path fill="#010202" d="M341.814,95.95c-5.924,0-8.14-1.701-8.14-6.992V76.719h-3.391v-5.611h3.391v-7.546h9.495v7.546h4.476v5.611
	h-4.476v9.755c0,1.748,0.903,2.253,3.21,2.253c0.407,0,0.858,0,1.356-0.045v7.039C345.656,95.859,343.667,95.95,341.814,95.95"/>
<path fill="#010202" d="M369.211,95.537v-3.589c-2.215,2.852-4.929,4.232-8.41,4.232c-2.939,0-5.244-1.013-6.828-2.945
	c-1.854-2.253-1.944-5.244-1.944-9.478v-12.65h9.542v12.605c0,3.359,0.631,4.924,3.254,4.924c2.397,0,3.572-1.657,3.572-4.969
	v-12.56h9.54v24.43H369.211z"/>
<path fill="#010202" d="M399.005,80.033c-3.842,0-5.606,1.701-5.606,5.475v10.029h-9.585v-24.43h8.815v4.462
	c1.267-3.589,3.572-5.107,7.462-5.107h0.858v9.708C400.227,80.078,399.594,80.033,399.005,80.033"/>
<path fill="#010202" d="M422.765,95.399c-1.223,3.772-2.124,6.488-3.572,7.914c-1.854,1.886-4.203,2.025-7.55,2.025
	c-1.13,0-2.758-0.048-4.839-0.184v-7.225h2.712c1.765,0,2.623-0.551,2.623-2.07c0-0.691-0.182-1.473-0.496-2.392l-8.049-22.359
	h9.675l4.205,14.813l4.068-14.813h8.998L422.765,95.399z"/>
<path fill="#333333" d="M249.664,108.713h9.577v6.954h-9.577V108.713z M249.664,118.136h9.577v24.296h-9.577V118.136z"/>
<path fill="#333333" d="M303.032,141.057c-2.742,1.284-6.563,1.375-11.602,1.375h-10.609v-32.896h12.543
	c4.632,0,8.229,0.14,11.195,1.878c4.495,2.651,6.744,7.501,6.744,14.595C311.304,133.465,308.472,138.588,303.032,141.057
	 M294.128,117.863h-2.922v16.242h2.788c5.125,0,6.879-1.968,6.879-8.097C300.874,120.06,299.03,117.863,294.128,117.863"/>
<polygon fill="#333333" points="314.164,142.432 314.164,135.888 325.042,125.229 315.107,125.229 315.107,118.136 336.238,118.136 
	336.238,124.636 325.628,135.338 336.778,135.338 336.778,142.432 "/>
<path fill="#333333" d="M341.004,108.713h9.577v6.954h-9.577V108.713z M341.004,118.136h9.577v24.296h-9.577V118.136z"/>
<path fill="#333333" d="M364.788,132.414c0.09,3.11,1.665,4.849,4.407,4.849c1.844,0,3.102-0.732,3.551-2.015h9.083
	c-1.304,5.263-5.802,8.054-13.176,8.054c-8.271,0-13.352-5.079-13.352-12.81c0-8.144,5.216-13.223,13.713-13.223
	c8.453,0,13.579,5.398,13.579,14.548v0.597H364.788z M368.924,123.034c-2.472,0-4.003,1.646-4.137,4.53h8.453
	C373.06,124.543,371.623,123.034,368.924,123.034"/>
<path fill="#333333" d="M403.993,142.432v-2.975c-2.067,2.608-4.629,3.844-7.823,3.844c-6.023,0-10.251-4.986-10.251-12.902
	c0-7.914,4.317-12.993,10.163-12.993c2.877,0,5.17,1.099,7.057,3.341v-11.211h9.262v32.896H403.993z M399.317,124.91
	c-2.654,0-3.865,1.829-3.865,5.628c0,3.611,1.482,5.626,3.865,5.626c2.384,0,3.912-2.015,3.912-5.626
	C403.229,126.739,401.969,124.91,399.317,124.91"/>
<polygon fill="#333333" points="416.131,142.432 416.131,135.888 427.012,125.229 417.077,125.229 417.077,118.136 438.208,118.136 
	438.208,124.636 427.596,135.338 438.745,135.338 438.745,142.432 "/>
<path fill="#333333" d="M442.974,108.713h9.577v6.954h-9.577V108.713z M442.974,118.136h9.577v24.296h-9.577V118.136z"/>
<path fill="#333333" d="M469.802,143.301c-8.541,0-13.713-5.079-13.713-13.039c0-8.054,5.172-12.993,13.623-12.993
	c7.776,0,12.724,4.026,12.948,10.111h-9.486c-0.178-2.288-1.304-3.387-3.509-3.387c-2.783,0-4,2.015-4,6.269
	c0,4.3,1.17,6.314,3.912,6.314c2.202,0,3.463-1.238,3.688-3.614h9.486C482.346,139.321,477.489,143.301,469.802,143.301"/>
<path fill="#333333" d="M496.555,142.844c-5.893,0-8.095-1.694-8.095-6.956V123.72h-3.37v-5.584h3.37v-7.502h9.442v7.502h4.451
	v5.584h-4.451v9.699c0,1.738,0.898,2.241,3.193,2.241c0.403,0,0.853,0,1.349-0.046v7
	C500.376,142.751,498.399,142.844,496.555,142.844"/>
<polygon fill="#333333" points="538.461,142.432 529.153,142.432 525.693,128.386 522.231,142.432 512.924,142.432 505.057,118.136 
	514.454,118.136 518.003,132.962 521.691,118.136 529.695,118.136 533.382,132.962 536.932,118.136 545.97,118.136 "/>
<path fill="#333333" d="M564.225,142.432l-0.584-2.335c-2.43,2.198-5.172,3.204-8.678,3.204c-5.44,0-8.454-2.838-8.454-7.73
	c0-5.401,3.326-6.911,10.385-7.824c4.589-0.596,6.563-0.366,6.563-2.607c0-1.419-1.123-2.015-3.416-2.015
	c-1.978,0-3.013,0.776-3.191,2.425h-9.262c0.091-5.443,4.405-8.28,12.769-8.28c4.361,0,7.689,0.96,9.308,2.059
	c2.518,1.738,3.055,3.569,3.055,6.814v13.545c0,0.869,0.362,1.603,1.036,2.059v0.687H564.225z M563.37,131.59
	c-4.404,1.692-7.193,1.372-7.193,3.704c0,1.372,0.945,2.195,2.698,2.195c3.194,0,4.539-1.463,4.539-4.666
	C563.414,132.414,563.414,132,563.37,131.59"/>
<path fill="#333333" d="M270.48,188.184l-9.081-15.19c-0.496-0.823-1.169-2.425-1.89-4.713c0.271,1.648,0.271,3.157,0.271,4.483
	v15.42h-9.848v-32.896h9.848l9.081,15.281c0.54,0.869,1.17,2.425,1.888,4.713c-0.225-1.419-0.269-2.928-0.269-4.485v-15.509h9.892
	v32.896H270.48z"/>
<path fill="#333333" d="M302.446,188.184l-0.584-2.334c-2.427,2.194-5.169,3.201-8.678,3.201c-5.44,0-8.451-2.835-8.451-7.731
	c0-5.398,3.326-6.907,10.385-7.823c4.586-0.596,6.563-0.366,6.563-2.607c0-1.419-1.123-2.013-3.416-2.013
	c-1.978,0-3.013,0.776-3.191,2.425h-9.262c0.09-5.445,4.405-8.28,12.769-8.28c4.36,0,7.687,0.96,9.306,2.057
	c2.518,1.738,3.057,3.569,3.057,6.817v13.542c0,0.872,0.361,1.602,1.036,2.061v0.687H302.446z M301.593,177.34
	c-4.407,1.691-7.195,1.372-7.195,3.704c0,1.374,0.944,2.197,2.697,2.197c3.194,0,4.542-1.463,4.542-4.666
	C301.637,178.163,301.637,177.752,301.593,177.34"/>
<path fill="#333333" d="M331.276,172.764c-3.821,0-5.574,1.694-5.574,5.445v9.975h-9.53v-24.296h8.766v4.439
	c1.26-3.568,3.553-5.079,7.419-5.079h0.854v9.652C332.49,172.81,331.862,172.764,331.276,172.764"/>
<path fill="#333333" d="M348.72,189.051c-8.407,0-13.486-4.986-13.486-13.037c0-8.053,5.079-12.993,13.486-12.993
	c8.41,0,13.489,4.94,13.489,12.993C362.209,184.065,357.13,189.051,348.72,189.051 M348.72,169.746
	c-2.876,0-3.911,1.966-3.911,6.269c0,4.3,1.035,6.313,3.911,6.313c2.879,0,3.958-2.013,3.958-6.313
	C352.678,171.711,351.599,169.746,348.72,169.746"/>
<path fill="#333333" d="M382.801,188.184v-2.975c-2.068,2.605-4.63,3.842-7.824,3.842c-6.023,0-10.251-4.986-10.251-12.9
	c0-7.916,4.317-12.993,10.161-12.993c2.879,0,5.172,1.097,7.059,3.341v-11.211h9.262v32.896H382.801z M378.125,170.662
	c-2.651,0-3.865,1.829-3.865,5.626c0,3.614,1.482,5.626,3.865,5.626c2.384,0,3.912-2.012,3.912-5.626
	C382.037,172.491,380.779,170.662,378.125,170.662"/>
<path fill="#333333" d="M408.383,189.051c-8.407,0-13.488-4.986-13.488-13.037c0-8.053,5.081-12.993,13.488-12.993
	s13.486,4.94,13.486,12.993C421.87,184.065,416.791,189.051,408.383,189.051 M408.383,169.746c-2.879,0-3.911,1.966-3.911,6.269
	c0,4.3,1.032,6.313,3.911,6.313c2.877,0,3.956-2.013,3.956-6.313C412.339,171.711,411.26,169.746,408.383,169.746"/>
<polygon fill="#333333" points="455.821,188.184 446.512,188.184 443.052,174.136 439.592,188.184 430.284,188.184 422.417,163.888 
	431.813,163.888 435.363,178.712 439.05,163.888 447.054,163.888 450.742,178.712 454.292,163.888 463.33,163.888 "/>
<path fill="#333333" d="M473.714,178.163c0.093,3.111,1.665,4.85,4.407,4.85c1.844,0,3.104-0.73,3.553-2.012h9.081
	c-1.304,5.262-5.799,8.051-13.174,8.051c-8.272,0-13.352-5.077-13.352-12.811c0-8.143,5.216-13.22,13.711-13.22
	c8.453,0,13.579,5.396,13.579,14.546v0.596H473.714z M477.853,168.784c-2.474,0-4.002,1.646-4.139,4.53h8.453
	C481.99,170.295,480.551,168.784,477.853,168.784"/>
<path fill="#333333" d="M507.389,197.973c-6.835,0-10.881-2.698-11.511-7.182h9.398c0.225,1.189,1.079,1.646,2.786,1.646
	c3.147,0,3.553-1.373,3.553-5.079v-1.326c-1.619,1.6-3.821,2.379-6.653,2.379c-6.43,0-10.656-4.85-10.656-12.308
	c0-8.006,4.136-12.855,10.204-12.855c3.421,0,5.938,1.189,7.823,3.797v-3.157h8.41v22.421
	C520.744,194.77,517.056,197.973,507.389,197.973 M507.57,170.385c-2.562,0-3.821,1.832-3.821,5.492
	c0,3.841,1.214,5.763,3.821,5.763c2.788,0,4.002-1.875,4.002-5.719C511.572,172.354,510.087,170.385,507.57,170.385"/>
<path fill="#333333" d="M537.514,189.051c-8.41,0-13.489-4.986-13.489-13.037c0-8.053,5.079-12.993,13.489-12.993
	c8.404,0,13.485,4.94,13.485,12.993C551,184.065,545.918,189.051,537.514,189.051 M537.514,169.746
	c-2.877,0-3.912,1.966-3.912,6.269c0,4.3,1.035,6.313,3.912,6.313c2.876,0,3.955-2.013,3.955-6.313
	C541.469,171.711,540.39,169.746,537.514,169.746"/>
<g>
	<path fill="#333333" d="M154.834,97.516c-0.25,0.167-0.319,0.505-0.153,0.756l17.305,26.181c0.104,0.157,0.279,0.244,0.455,0.244
		c0.104,0,0.209-0.029,0.301-0.091c0.251-0.166,0.32-0.504,0.154-0.756l-17.306-26.179
		C155.425,97.418,155.086,97.351,154.834,97.516z"/>
	<path fill="#333333" d="M51.436,107.863c-0.297-0.061-0.583,0.131-0.644,0.425l-6.935,34.029c-0.061,0.295,0.13,0.581,0.425,0.643
		c0.037,0.007,0.073,0.012,0.109,0.012c0.255,0,0.481-0.18,0.535-0.438l6.936-34.028C51.921,108.21,51.73,107.923,51.436,107.863z"
		/>
	<path fill="#333333" d="M26.856,69.158c0.021,0.001,0.044,0.003,0.065,0.003c0.272,0,0.508-0.203,0.541-0.479
		c0.036-0.3-0.177-0.572-0.476-0.608c-7.979-0.956-12.392-1.265-21.166-0.212c-0.299,0.037-0.512,0.308-0.477,0.607
		c0.037,0.299,0.306,0.515,0.607,0.477C14.647,67.902,18.795,68.191,26.856,69.158z"/>
	<path fill="#333333" d="M142.477,108.288c-0.06-0.294-0.346-0.484-0.644-0.425c-0.295,0.061-0.484,0.348-0.426,0.643l6.936,34.028
		c0.053,0.258,0.279,0.438,0.534,0.438c0.036,0,0.072-0.005,0.109-0.012c0.296-0.061,0.486-0.348,0.426-0.643L142.477,108.288z"/>
	<path fill="#333333" d="M193.58,95.786c-0.003-0.005-0.005-0.01-0.008-0.015c-0.012-0.069-0.038-0.138-0.079-0.201
		c-0.016-0.024-0.035-0.046-0.054-0.068c-2.587-5.21-6.934-9.189-13.934-12.719c11.972-1.403,13.949-2.846,13.763-8.901
		c-0.009-0.301-0.269-0.526-0.563-0.529c-0.25,0.008-0.453,0.183-0.511,0.414c-1.421,1.73-7.293,1.452-12.147,1.105
		c5.14-0.985,10.533-2.73,13.031-6.319c0.166-0.24,0.115-0.567-0.115-0.744c-3.298-2.538-7.486-3.961-11.658-4.723
		c7.201-5.054,6.658-8.867,6.328-11.189c-0.039-0.273-0.076-0.527-0.094-0.764c-0.023-0.27-0.24-0.483-0.512-0.499
		c-0.282-0.025-0.512,0.169-0.566,0.436c-0.295,1.452-4.959,3.82-9.539,5.02c3.839-2.941,8.109-6.956,8.485-10.479
		c0.029-0.272-0.15-0.525-0.415-0.588c-4.262-1.019-8.474-0.169-11.319,0.529c4.078-4.937,4.595-10.681,3.012-12.941
		c-0.106-0.153-0.287-0.242-0.467-0.232c-0.186,0.007-0.354,0.108-0.449,0.269c-1.669,2.838-4.015,4.886-6.241,6.539
		c2.804-4.128,4.908-9.17,5.119-12.608c0.019-0.299-0.208-0.557-0.507-0.578c-4.335-0.293-8.134,1.485-13.744,4.761
		c2.051-2.708,3.395-5.196,4.215-6.966c0.47-1.018,1.96-4.39,1.347-5.033c-0.102-0.105-0.24-0.166-0.385-0.168
		c-0.135-0.002-0.266-0.003-0.401-0.003c-8.483,0-17.151,4.18-22.968,7.719c-6.836,4.16-13.296,9.638-16.857,14.298
		c-11.547,15.124-8.36,23.008-6.454,25.694c2.277,3.211,5.897,4.221,8.539,3.63c0.457,1.712,0.27,3.229-0.558,4.515
		c-2.214,3.441-8.326,4.613-11.887,5.01c0.065-2.209-0.113-5.277-1.485-8.39c1.755-0.664,2.733-1.777,2.774-3.179
		c0.003-0.146-0.05-0.286-0.151-0.392c-2.936-3.085-3.292-5.184-3.706-7.613c-0.037-0.212-0.074-0.426-0.112-0.641
		c0.924-0.165,1.75-0.742,2.146-1.315c0.165-0.24,0.112-0.568-0.122-0.744c-2.254-1.708-1.479-6.933-0.73-11.986
		c0.321-2.161,0.651-4.396,0.763-6.42c0.174-3.108-0.529-5.593-2.275-7.963c1.856-0.92,2.679-2.325,2.718-4.581
		c0.003-0.15-0.058-0.295-0.164-0.4c-0.108-0.105-0.254-0.159-0.405-0.154c-1.418,0.059-2.992-0.035-4.371-0.149
		c0.928-0.841,1.473-2.138,0.874-3.883c-0.09-0.261-0.359-0.413-0.63-0.356c-0.498,0.107-1.132,0.113-2.093,0.121
		c-0.392,0.004-0.841,0.008-1.357,0.02c2.366-6.579,3.494-9.007,7.777-16.93c0.128-0.236,0.064-0.532-0.151-0.694
		c-0.214-0.163-0.515-0.145-0.708,0.042c-0.906,0.875-2.191,1.198-3.433,1.512c-1.39,0.35-2.818,0.71-3.569,1.869
		c-1.025-1.021-2.212-1.076-3.214-0.15c-0.106-0.238-0.25-0.467-0.427-0.677c-0.556-0.655-1.362-1.005-2.164-0.943
		c0.225-1.319-0.854-2.225-1.758-2.986c-0.738-0.62-1.502-1.261-1.861-2.137C97.064,0.127,96.855-0.01,96.627,0
		c-0.227,0.008-0.426,0.157-0.498,0.372c-0.307,0.917-1.048,1.418-1.834,1.946c-1.16,0.781-2.455,1.655-1.923,3.863
		c-0.236-0.039-0.461-0.057-0.672-0.057c-0.906,0-1.42,0.348-1.693,0.64c-0.074,0.08-0.14,0.166-0.198,0.257
		c-0.462-0.522-1.017-0.805-1.609-0.805c-0.415,0-0.986,0.142-1.599,0.717c-0.801-1.596-2.35-1.808-3.741-1.999
		c-1.081-0.147-2.104-0.288-2.869-0.991c-0.198-0.184-0.501-0.192-0.712-0.023c-0.21,0.169-0.263,0.468-0.127,0.702
		c2.193,3.732,4.474,9.129,6.78,16.042c-1.473,0.513-3.039,2.44-3.389,5.06c-1.598,0.095-4.05,0.582-5.519,2.537
		c-1.29,1.714-1.513,4.168-0.661,7.292c0.055,0.198,0.215,0.35,0.417,0.391c0.204,0.041,0.41-0.035,0.538-0.197
		c0.707-0.895,2.842-1.863,4.894-1.876c0.898-0.017,2.059,0.164,2.99,0.922c-0.286,0.131-0.573,0.265-0.859,0.399
		c-3.478,1.626-7.072,3.307-9.697,0.56c-0.142-0.147-0.353-0.205-0.547-0.147c-0.195,0.056-0.344,0.216-0.382,0.416
		c-0.474,2.346,1.21,4.642,4.001,5.458c0.016,0.004,0.032,0.009,0.047,0.011c0.574,0.115,1.144,0.166,1.708,0.166
		c2.806,0,5.497-1.271,8.115-2.535c-0.052,0.884,0.077,2.003,0.459,2.588c0.103,0.157,0.277,0.247,0.457,0.247
		c0.068,0,0.138-0.014,0.204-0.041c1.113-0.45,1.984-0.791,2.768-1.011c0.036,0.026,0.074,0.051,0.118,0.068
		c3.467,1.418,3.602,4.425,3.373,6.09c-0.505,3.701-3.812,8.019-8.268,8.539c-0.18,0.021-0.337,0.13-0.421,0.291
		c-0.083,0.161-0.081,0.354,0.006,0.512c0.59,1.085,1.776,1.936,2.777,2.537c-1.914,3.178-3.2,5.019-8.413,7.189
		c-0.14,0.059-0.25,0.173-0.302,0.317c-0.323,0.886,0.366,1.919,1.308,2.688c-2.37,2.553-3.136,5.841-3.313,10.329
		c-3.55-0.389-9.727-1.556-11.955-5.02c-0.827-1.286-1.014-2.803-0.557-4.515c2.641,0.593,6.258-0.418,8.537-3.628
		c1.906-2.688,5.094-10.57-6.453-25.692c-6.991-9.145-25.347-22.236-40.229-22.015c-0.146,0.003-0.286,0.064-0.387,0.169
		c-0.61,0.643,0.88,4.012,1.351,5.029c0.82,1.771,2.166,4.26,4.216,6.968c-5.614-3.276-9.417-5.054-13.744-4.765
		c-0.3,0.02-0.526,0.278-0.507,0.577c0.208,3.444,2.313,8.488,5.119,12.615c-2.226-1.653-4.569-3.701-6.232-6.54
		c-0.094-0.16-0.262-0.261-0.448-0.27c-0.188-0.01-0.362,0.079-0.469,0.231c-1.592,2.257-1.084,8,2.998,12.939
		c-2.849-0.7-7.057-1.548-11.313-0.53c-0.267,0.063-0.445,0.315-0.415,0.588c0.376,3.529,4.647,7.545,8.488,10.485
		c-4.58-1.201-9.247-3.57-9.542-5.02c-0.055-0.266-0.299-0.455-0.566-0.436c-0.271,0.016-0.489,0.228-0.512,0.499
		c-0.019,0.233-0.056,0.486-0.094,0.757c-0.333,2.323-0.879,6.14,6.336,11.198c-4.17,0.762-8.356,2.185-11.65,4.721
		c-0.229,0.177-0.28,0.504-0.114,0.744c2.495,3.584,7.876,5.331,13.009,6.315c-4.818,0.343-10.651,0.621-12.118-1.072
		c-0.047-0.245-0.258-0.434-0.517-0.442c-0.291-0.013-0.523,0.201-0.556,0.479C-0.01,73.912-0.015,73.995,0,74.077
		c-0.141,5.888,1.92,7.317,13.75,8.705C6.629,86.37,2.25,90.429-0.326,95.786c-0.131,0.271-0.018,0.597,0.254,0.728
		c0.077,0.037,0.156,0.054,0.236,0.054c0.019,0,0.038-0.002,0.056-0.004c2.012,1.226,4.6,1.844,7.843,1.844
		c3.317,0,7.319-0.645,12.084-1.943c-0.97,0.52-1.937,1.05-2.895,1.575c-6.376,3.494-12.398,6.792-16.338,5.661
		c-0.29-0.083-0.591,0.084-0.675,0.373c-0.04,0.139-0.021,0.28,0.04,0.398c0.008,0.027,0.016,0.056,0.028,0.081
		c1.114,2.399,2.539,4.745,5.395,5.665c0.828,0.265,1.744,0.399,2.754,0.399c3.315,0,7.634-1.438,13.073-4.345
		c-6.091,9.611-8.94,18.916-8.669,28.197c-0.013,0.055-0.019,0.111-0.014,0.17c0.025,0.283,0.263,0.496,0.542,0.496
		c0.017,0,0.034,0,0.05,0c5.971-0.535,13.419-7.189,19.931-15.056c-0.308,0.541-0.619,1.088-0.932,1.64
		c-4.279,7.538-9.605,16.919-12.275,17.267c-0.218,0.028-0.398,0.188-0.457,0.4c-0.056,0.214,0.022,0.44,0.197,0.574
		c4.478,3.414,10.665-0.454,12.96-2.864c1.926-2.032,4.157-4.898,6.639-8.534c-0.324,5.573-0.171,18.618,2.474,22.741
		c0.104,0.162,0.28,0.25,0.459,0.25c0.099,0,0.198-0.025,0.288-0.082c4.234-2.632,9.516-10.349,13.12-22.113
		c-0.664,4.807-1.179,8.267-2.144,9.563c-0.14,0.187-0.145,0.439-0.013,0.632c0.104,0.152,0.273,0.238,0.451,0.238
		c0.047,0,0.096-0.006,0.144-0.018c6.052-1.66,7.844-8.55,9.283-14.085c0.217-0.837,0.428-1.644,0.642-2.396
		c0.234,0.315,0.543,0.658,0.984,1.03c0.13,0.11,0.309,0.152,0.475,0.114c2.904-0.678,8.928-8.432,9.982-18.687
		c1.656,0.672,3.563,1.124,5.633,1.124c1.635,0,3.371-0.282,5.164-0.958c0.069-0.025,0.128-0.063,0.178-0.109
		c0.027,0.005,0.053,0.009,0.081,0.011c0.058,0.003,0.12,0.001,0.183-0.003c0.174,1.305,0.459,2.582,0.795,3.875
		c-7.762-1.151-9.229,0.479-12.841,8.547c-2.656,5.927-5.774,9.775-8.781,10.837c-0.168,0.061-0.296,0.199-0.344,0.37
		c-0.047,0.173-0.006,0.358,0.109,0.494c0.339,0.406,0.924,0.718,1.56,0.859c-0.682,1.387-2.008,3.286-3.492,4.214
		c-0.163,0.103-0.259,0.281-0.257,0.474c0.005,0.19,0.108,0.368,0.275,0.462c0.486,0.279,1.134,0.401,1.748,0.469
		c-1.052,1.159-3.619,2.798-4.519,2.984c-0.178,0.037-0.325,0.161-0.395,0.329c-0.069,0.167-0.049,0.359,0.053,0.511
		c0.255,0.379,0.82,0.767,1.405,1.054c-0.976,0.932-2.446,2.174-4.704,3.203c-0.177,0.08-0.298,0.249-0.317,0.443
		c-0.019,0.193,0.067,0.383,0.226,0.495c1.022,0.733,3.297,1.357,6.001,1.444l-4.696,6.115c-0.094,0.123-0.131,0.281-0.103,0.435
		c0.028,0.152,0.121,0.284,0.253,0.365l0.177,0.106l-4.629,4.389c-0.154,0.146-0.208,0.372-0.14,0.574
		c0.07,0.202,0.252,0.345,0.465,0.364l0.128,0.012l-4.236,3.392c-0.089,0.071-0.151,0.168-0.182,0.274
		c-0.041,0.061-0.07,0.13-0.084,0.207c-0.048,0.272,0.115,0.53,0.371,0.613l-3.251,2.659c-1.073,0.882-1.993,1.244-2.737,1.079
		l-8.14-1.787c-0.536-1.721-2.256-2.848-4.491-2.901c-2.277-0.047-4.902,1.109-5.708,3.825c-1.22,0.93-1.981,2.483-2.098,4.296
		c-0.144,2.229,0.708,4.408,2.278,5.83c0.14,0.124,0.332,0.17,0.514,0.12c0.18-0.05,0.323-0.189,0.376-0.367
		c0.586-1.957,0.948-2.574,1.826-3.394c3.221,0.85,4.691-0.15,5.954-1.1c0.978,0.625,2.643,1.273,4.271,1.449
		c-1.386,0.94-2.983,1.837-4.518,2.525c-1.827-0.646-4.416-0.223-5.625,1.636c-0.962,1.478-1.435,5.146,0.268,6.648
		c-0.042,1.281,0.438,2.522,1.374,3.522c1.183,1.268,2.937,1.954,4.823,1.91c0.19-0.005,0.364-0.109,0.458-0.275
		c0.094-0.166,0.096-0.368,0.003-0.534c-1.097-1.972-0.293-3.552-0.011-3.902c1.628-0.85,2.079-2.01,2.288-4.035l0.231-0.062
		c1.855-0.498,3.762-1.008,5.648-2.319c-0.256,1.022-0.447,2.008-0.527,2.839c-1.44,0.235-3.344,1.254-3.864,3.135
		c-0.519,1.868-0.357,3.81,0.419,5.067c0.315,0.516,0.712,0.904,1.19,1.164c0.261,1.407,1.134,2.521,2.472,3.154
		c1.743,0.82,4.054,0.679,5.751-0.354c0.154-0.095,0.251-0.258,0.261-0.438c0.01-0.181-0.071-0.354-0.216-0.462
		c-0.911-0.689-1.319-1.314-1.656-3.286c1.45-1.218,1.832-3.029,1.167-5.518c1.471-1.527,2.001-3.192,2.563-4.947
		c0.178-0.557,0.359-1.126,0.576-1.703c0.82,0.473,1.998,0.613,2.914,0.533c0.547,1.724,1.284,2.448,2.573,3.163
		c-0.005,0.063-0.008,0.128-0.013,0.192c-0.07,1.098-0.156,2.465-1.31,3.438c-0.159,0.134-0.228,0.344-0.18,0.544
		c0.047,0.201,0.205,0.357,0.406,0.403c1.077,0.256,3.452-0.027,5.137-1.437c1.229-1.029,1.87-2.478,1.863-4.206
		c1.403-1.132,2.019-3.2,1.4-4.875c-0.658-1.779-2.491-2.669-4.908-2.38c-1.616,0.059-2.461-0.396-2.722-0.845
		c-0.174-0.297-0.134-0.656,0.104-1.047c0.319-0.477,0.862-1.129,1.944-2.429l0.479-0.574c2.834-3.56,12.273-14.284,15.02-16.533
		c1.254,1.592,3.302,3.992,7.034,4.758c0.146,0.029,0.3-0.002,0.422-0.087c0.123-0.086,0.206-0.218,0.227-0.368
		c0.039-0.265-0.086-0.476-0.294-0.825c-0.375-0.632-1.097-1.845-1.297-3.885c0.392,0.193,0.749,0.235,1.258,0.276l0.156,0.013
		c0.162,0.013,0.323-0.045,0.437-0.161c0.115-0.117,0.17-0.279,0.152-0.441c-0.016-0.142-0.035-0.297-0.055-0.463
		c-0.327-2.664-1.076-8.754,6.142-17.626c-0.211,7.346-1.859,14.168-4.903,20.301c-0.092,0.185-0.07,0.407,0.055,0.571
		c0.125,0.166,0.335,0.244,0.536,0.207c2.019-0.383,2.818-0.691,3.917-1.476c-0.926,3.802-2.707,6.619-4.8,7.507
		c-1.248,0.53-2.553,0.343-3.88-0.554c-0.139-0.095-0.313-0.117-0.472-0.067c-0.159,0.052-0.286,0.174-0.345,0.331
		c-1.019,2.77-0.407,5.464,1.635,7.207c1.917,1.634,4.629,2.003,7.204,1.06c-2.477,4.985-7.622,6.664-10.537,5.846
		c-2.075-0.582-2.989-2.298-2.509-4.71c0.036-0.175-0.016-0.355-0.139-0.483c-0.124-0.129-0.297-0.187-0.477-0.164
		c-3.724,0.553-6.069,2.71-6.43,5.924c-0.336,2.982,1.142,6.088,3.481,7.627c-4.09,1.724-6.382,5.449-5.909,9.789
		c0.437,4.02,3.513,8.547,9.231,8.991c5.788,0.448,11.814-3.665,15.359-8.35c0.065,11.997,2.923,15.435,5.461,18.48l0.217,0.263
		c0.104,0.125,0.258,0.197,0.42,0.197c0.163,0,0.317-0.073,0.419-0.199l0.343-0.408c2.565-3.072,5.457-6.534,5.533-18.328
		c3.6,4.785,9.143,8.149,13.991,8.365c5.922,0.247,9.776-4.099,10.533-8.541c0.598-3.502-0.629-8.13-5.833-10.266
		c2.334-1.54,3.81-4.646,3.474-7.625c-0.363-3.211-2.707-5.368-6.432-5.92c-0.173-0.023-0.352,0.035-0.474,0.164
		c-0.123,0.128-0.175,0.309-0.14,0.483c0.482,2.412-0.434,4.128-2.509,4.71c-2.911,0.817-8.06-0.858-10.537-5.846
		c2.576,0.943,5.29,0.574,7.203-1.06c2.043-1.742,2.654-4.438,1.636-7.207c-0.058-0.157-0.185-0.279-0.345-0.331
		c-0.159-0.05-0.334-0.027-0.472,0.067c-1.337,0.903-2.665,1.086-3.95,0.541c-2.144-0.909-3.956-3.722-4.885-7.495
		c1.104,0.785,1.903,1.094,3.918,1.477c0.204,0.037,0.412-0.041,0.538-0.207c0.125-0.164,0.146-0.387,0.053-0.572
		c-2.997-6.028-4.556-12.655-4.75-20.213c7.115,8.741,6.469,14.582,6.152,17.452c-0.022,0.21-0.044,0.401-0.061,0.578
		c-0.014,0.161,0.044,0.322,0.158,0.437c0.116,0.114,0.277,0.17,0.439,0.156l0.147-0.015c0.508-0.048,0.865-0.092,1.247-0.281
		c-0.183,2.035-0.908,3.251-1.285,3.882c-0.207,0.347-0.332,0.556-0.301,0.815c0.018,0.152,0.1,0.292,0.223,0.38
		c0.126,0.091,0.283,0.123,0.433,0.091c3.623-0.771,5.671-3.095,6.939-4.68c4.115,3.372,8.208,8.4,12.17,13.268
		c1.333,1.637,2.713,3.331,4.048,4.906c0.392,0.517,0.536,0.927,0.429,1.218c-0.185,0.507-1.136,0.963-2.826,1.353
		c-3.819-0.343-4.884,1.966-5.164,2.981c-0.606,2.194,0.417,4.938,2.162,5.955c0.339,1.51,1.182,2.737,2.447,3.565
		c1.523,0.996,3.445,1.251,4.558,0.986c0.2-0.047,0.356-0.202,0.406-0.403c0.047-0.2-0.022-0.41-0.179-0.544
		c-1.153-0.976-1.237-2.344-1.303-3.444c-0.004-0.063-0.009-0.126-0.012-0.187c1.287-0.716,2.022-1.44,2.568-3.163
		c0.917,0.08,2.095-0.06,2.914-0.531c0.216,0.575,0.398,1.144,0.575,1.697c0.562,1.759,1.094,3.422,2.567,4.951
		c-0.669,2.488-0.287,4.3,1.165,5.518c-0.336,1.968-0.744,2.593-1.654,3.286c-0.144,0.109-0.225,0.282-0.215,0.462
		c0.009,0.181,0.106,0.344,0.261,0.438c1.694,1.032,4.002,1.174,5.745,0.355c1.344-0.632,2.219-1.749,2.481-3.159
		c0.474-0.261,0.869-0.647,1.186-1.159c0.78-1.274,0.941-3.216,0.42-5.067c-0.521-1.884-2.428-2.903-3.868-3.136
		c-0.091-0.789-0.314-1.779-0.609-2.83c1.904,1.286,3.897,1.818,5.698,2.3l0.271,0.072c0.208,2.025,0.659,3.186,2.29,4.036
		c0.281,0.347,1.086,1.921-0.015,3.901c-0.092,0.166-0.092,0.368,0.003,0.534c0.094,0.166,0.268,0.271,0.458,0.275
		c1.88,0.049,3.635-0.64,4.815-1.905c0.935-1.001,1.416-2.244,1.375-3.526c1.7-1.496,1.235-5.167,0.279-6.65
		c-1.216-1.855-3.805-2.276-5.627-1.636c-1.37-0.619-2.774-1.451-4.259-2.525c1.544-0.179,3.065-0.824,4.01-1.444
		c1.261,0.946,2.733,1.944,5.95,1.096c0.872,0.814,1.235,1.432,1.832,3.396c0.054,0.177,0.196,0.315,0.376,0.365
		c0.18,0.051,0.373,0.005,0.511-0.121c1.569-1.421,2.42-3.6,2.275-5.83c-0.116-1.812-0.878-3.365-2.098-4.295
		c-0.805-2.713-3.414-3.889-5.705-3.825c-2.237,0.053-3.959,1.179-4.496,2.901l-8.136,1.787c-0.743,0.167-1.663-0.198-2.74-1.079
		l-3.293-2.693c0.145-0.076,0.249-0.211,0.283-0.369c0.028-0.05,0.048-0.104,0.06-0.161c0.039-0.199-0.036-0.403-0.195-0.53
		l-4.236-3.392l0.125-0.012c0.213-0.02,0.395-0.162,0.463-0.364c0.071-0.202,0.015-0.428-0.139-0.574l-4.626-4.388l0.179-0.105
		c0.134-0.082,0.228-0.215,0.255-0.37c0.03-0.151-0.009-0.311-0.106-0.435l-4.755-6.103c2.982-0.001,5.539-0.664,6.642-1.452
		c0.158-0.114,0.244-0.304,0.227-0.497c-0.021-0.194-0.141-0.363-0.319-0.444c-2.258-1.027-3.726-2.271-4.7-3.2
		c0.001-0.002,0.003-0.004,0.004-0.005c0.579-0.286,1.138-0.672,1.396-1.049c0.103-0.15,0.124-0.343,0.056-0.512
		c-0.068-0.169-0.217-0.293-0.396-0.33c-0.9-0.187-3.464-1.825-4.515-2.984c0.609-0.067,1.255-0.189,1.743-0.468
		c0.167-0.095,0.271-0.272,0.274-0.463c0.004-0.192-0.094-0.371-0.256-0.475c-1.482-0.925-2.808-2.824-3.49-4.213
		c0.635-0.142,1.221-0.453,1.56-0.858c0.116-0.137,0.155-0.322,0.108-0.495c-0.047-0.171-0.176-0.31-0.343-0.37
		c-4.059-1.435-7.244-7.404-8.781-10.835c-3.611-8.074-5.078-9.702-12.856-8.548c0.365-1.15,0.716-2.394,1.036-3.803
		c0.02,0.01,0.037,0.021,0.057,0.028c1.799,0.678,3.537,0.961,5.173,0.961c2.075,0,3.985-0.454,5.644-1.128
		c1.048,10.252,7.071,18.008,9.977,18.688c0.167,0.038,0.343-0.004,0.474-0.113c0.445-0.373,0.755-0.718,0.988-1.033
		c0.217,0.754,0.426,1.563,0.645,2.401c1.438,5.534,3.23,12.423,9.277,14.082c0.047,0.012,0.097,0.018,0.144,0.018
		c0.179,0,0.348-0.086,0.451-0.237c0.132-0.193,0.126-0.446-0.013-0.633c-0.964-1.295-1.477-4.755-2.139-9.558
		c3.603,11.761,8.885,19.477,13.12,22.107c0.089,0.057,0.189,0.082,0.287,0.082c0.18,0,0.355-0.088,0.46-0.25
		c2.64-4.117,2.793-17.168,2.468-22.741c2.478,3.626,4.707,6.491,6.641,8.535c2.294,2.413,8.481,6.286,12.965,2.863
		c0.175-0.134,0.253-0.36,0.196-0.574c-0.058-0.213-0.238-0.372-0.457-0.4c-2.672-0.348-7.996-9.728-12.274-17.265
		c-0.301-0.529-0.599-1.055-0.895-1.575c6.5,7.836,13.923,14.455,19.877,14.989c0.017,0,0.034,0.002,0.05,0.002
		c0.279,0,0.517-0.213,0.541-0.496c0.001-0.007,0-0.013,0-0.02c0.001-0.014,0.005-0.027,0.005-0.04
		c0.3-9.313-2.543-18.646-8.648-28.285c5.42,2.893,9.725,4.323,13.033,4.323c1.012,0,1.929-0.134,2.758-0.399
		c2.859-0.921,4.281-3.269,5.392-5.667c0.004-0.01,0.006-0.018,0.01-0.027c0.089-0.13,0.124-0.297,0.077-0.461
		c-0.083-0.288-0.386-0.455-0.675-0.373c-3.939,1.133-9.961-2.167-16.334-5.662c-1.087-0.595-2.186-1.197-3.287-1.783
		c4.958,1.376,9.103,2.062,12.519,2.062c3.168,0,5.713-0.589,7.704-1.759c0.04,0.01,0.082,0.016,0.125,0.016
		c0.08,0,0.16-0.017,0.236-0.052C193.595,96.384,193.709,96.058,193.58,95.786z M178.629,75.863
		c2.393,0.177,4.912,0.363,7.187,0.363c2.649,0,4.966-0.253,6.367-1.068c-0.119,4.272-2.114,5.38-14.501,6.731
		c-0.617-0.219-1.289-0.472-1.991-0.735c-2.052-0.773-4.324-1.628-6.385-2.109c1.3-0.839,2.355-1.872,3.031-3.063l0.557-0.067
		c0.713-0.085,1.483-0.178,2.291-0.283C176.236,75.686,177.398,75.772,178.629,75.863z M175.14,74.538
		c-0.069-0.006-0.136,0.003-0.199,0.025c-0.768,0.099-1.5,0.187-2.179,0.268l-0.546,0.067c-2.504-2.91-7.817-6.491-12.492-7.372
		c2.38-0.942,4.61-2.142,6.384-3.886c0.015,0,0.029,0.002,0.044,0.001c5.174-0.472,17.897-0.934,25.715,4.709
		C188.612,72.397,180.901,73.788,175.14,74.538z M184.242,45.974c-0.895,3.959-7.575,9.349-13.209,12.863
		c-0.254,0.16-0.333,0.496-0.174,0.752c0.16,0.255,0.498,0.333,0.752,0.174c0.732-0.458,1.861-1.184,3.167-2.102
		c0.029,0,0.059-0.002,0.089-0.008c3.852-0.659,9.563-2.768,11.773-4.949c0.264,2.292,0.044,5.578-6.9,10.125
		c-4.861-0.707-9.54-0.586-12.578-0.365c1.263-1.6,2.189-3.592,2.617-6.129c0.041-0.246-0.089-0.489-0.318-0.59
		c-3.757-1.667-7.94-1.937-11.79-0.854c4.969-3.682,10.09-6.501,14.259-7.843c0.082,0.019,0.169,0.021,0.254,0.001
		c0.255-0.063,0.531-0.132,0.827-0.208C175.618,46.182,179.917,45.093,184.242,45.974z M173.51,27.063
		c-0.465,3.997-3.314,9.917-6.741,13.966c-0.075,0.023-0.146,0.061-0.207,0.117c-1.039,0.944-1.542,1.477-1.985,1.948
		c-0.613,0.65-1.056,1.12-2.67,2.385c-0.238,0.186-0.28,0.529-0.093,0.766c0.108,0.138,0.268,0.209,0.429,0.209
		c0.119,0,0.237-0.038,0.337-0.116c1.679-1.316,2.17-1.837,2.792-2.497c0.378-0.401,0.8-0.85,1.582-1.576
		c0.089-0.01,0.176-0.04,0.252-0.094c0.265-0.189,0.545-0.385,0.835-0.586c2.48-1.729,5.81-4.051,8.142-7.546
		c0.84,2.541-0.257,7.703-4.307,11.882c-4.02,1.245-8.923,3.854-13.746,7.289c1.972-2.924,3.325-6.575,2.796-10.397
		c-0.033-0.242-0.225-0.433-0.467-0.466c-5.479-0.743-9.48,0.08-12.636,2.663c0.21-0.741,0.358-1.472,0.454-2.201
		c0.058-0.034,0.113-0.077,0.156-0.134c3.654-4.705,6.226-6.967,9.567-9.326c0.101,0.003,0.203-0.021,0.294-0.076
		C164.97,29.279,169.057,26.963,173.51,27.063z M114.938,80.559c3.729-0.399,10.358-1.646,12.853-5.523
		c1.008-1.564,1.236-3.385,0.684-5.417c1.565-0.652,2.394-1.296,2.859-3.112c0.039-0.153,0.011-0.315-0.079-0.444
		c-0.089-0.131-0.231-0.215-0.388-0.233c-2.642-0.3-3.793-1.766-4.295-2.945c-0.784-1.845-0.458-4.272,0.789-5.901
		c1.034-1.349,2.527-1.96,4.207-1.728c0.177,0.028,0.36-0.041,0.482-0.176c0.12-0.136,0.166-0.324,0.12-0.5
		c-0.841-3.274-0.032-5.856,2.164-6.91c2.136-1.023,5.516-0.431,7.844,2.684c0.152,0.204,0.424,0.275,0.657,0.172
		c2.295-1.012,5.176-0.509,7.006,1.221c1.841,1.742,2.245,4.323,1.137,7.268c-0.098,0.263,0.019,0.557,0.27,0.681
		c2.396,1.182,3.849,3.136,3.993,5.362c0.154,2.417-1.229,4.844-3.705,6.489c-0.248,0.164-0.318,0.494-0.161,0.745
		c1.419,2.259,1.849,4.732,1.21,6.962c-0.548,1.913-1.844,3.487-3.557,4.319c-0.157,0.077-0.268,0.223-0.299,0.394
		c-1.103,6.153-2.1,8.353-8.945,8.875c-0.207,0.017-0.388,0.149-0.465,0.342c-1.719,4.334-5.118,4.884-9.69,4.373
		c-0.18-0.018-0.363,0.053-0.48,0.194c-2.522,3.026-6.043,3.751-8.972,1.843c-0.215-0.141-0.499-0.112-0.681,0.068
		c-1.643,1.624-6.712,3.119-10.871,1.872c0.28-1.314,0.467-2.615,0.502-3.625c0.305-0.052,0.571-0.133,0.796-0.244
		c0.119-0.058,0.212-0.158,0.263-0.28c0.371-0.891,0.673-1.808,0.916-2.775c0.011-0.002,0.023-0.001,0.034-0.003
		c1.9-0.429,3.909-0.833,6.033-1.258c8.578-1.723,18.302-3.675,24.653-8.14c4.831-3.395,6.751-13.052,4.911-18.556
		c2.537-0.343,4.075-0.987,4.816-2.015c0.105-0.146,0.131-0.336,0.07-0.507c-0.992-2.715-2.164-3.492-3.786-4.568
		c-0.145-0.096-0.292-0.193-0.444-0.296c0.728-1.807,0.047-4.702-0.196-5.608c-0.065-0.237-0.279-0.402-0.523-0.404
		c-1.674-0.001-3.076,0.394-4.609,1.33c-1.066-1.862-3.305-4.372-6.005-4.857c-0.179-0.032-0.367,0.028-0.494,0.163
		c-1.106,1.174-1.549,4.736-1.308,7.476c-1.975,0.252-3.484,0.895-4.831,2.049c-0.176,0.15-0.238,0.394-0.156,0.609
		c0.747,1.951,2.236,3.565,4.215,4.582c-0.677,2.338-0.852,4.981-0.101,7.063c0.079,0.223,0.29,0.362,0.512,0.362
		c0.062,0,0.125-0.012,0.185-0.033c0.073-0.026,0.137-0.067,0.189-0.118c1.142-0.151,2.455-0.587,3.71-1.22
		c1.292,9.259-8.91,11.55-24.282,14.874c0.21-0.797,0.376-1.622,0.552-2.686c0.002,0,0.004,0,0.006,0
		c0.272-0.028,0.482-0.204,0.549-0.453c0.012-0.046,0.019-0.092,0.019-0.14c0-0.173,0.022-0.458,0.05-0.818
		c0.021-0.258,0.044-0.553,0.065-0.876C114.935,80.559,114.936,80.559,114.938,80.559z M84.214,96.641
		c-0.821-1.938-1.313-3.519-1.621-6.203c0.93-0.069,2.069-0.327,3.221-1.144c0.838,0.947,2.539,1.739,4.36,1.983
		c1.451,0.193,4.124,0.185,6.25-1.882c1.754,1.368,3.683,2.053,5.631,2.053c1.862,0,3.742-0.627,5.499-1.885
		c1.087,0.558,1.914,0.842,3.112,0.867c-0.2,2.419-0.649,4.443-1.403,6.324c-0.663,0.217-2.281,0.301-6.182-0.872
		c-0.168-0.05-0.353-0.017-0.493,0.092c-3.611,2.82-8.22,2.816-12.03-0.007c-0.133-0.101-0.307-0.133-0.467-0.089
		C86.216,96.936,84.753,96.882,84.214,96.641z M47.088,54.447c1.29,0.057,2.43,0.433,3.682,1.211
		c-0.346,0.798-0.674,1.797-0.845,2.501c-1.347,0.128-2.345,0.349-3.022,0.669C46.549,57.776,46.713,56.002,47.088,54.447z
		 M51.805,66.285c-0.002-0.004-0.004-0.006-0.005-0.009l1.591-4.438l3.936-0.158c1.514,2.349,2.473,6.352,1.675,9.191
		C56.444,70.455,52.929,68.491,51.805,66.285z M113.449,86.702l0.052-0.012c15.848-3.425,27.311-5.904,25.491-16.595
		c1.086-0.662,2.07-1.463,2.785-2.337c0.635,3.047,1.395,10.351-4.554,14.446c-4.083,2.757-11.401,4.297-19.146,5.926
		c-1.864,0.392-3.783,0.797-5.664,1.222c0.396-1.057,0.694-1.883,0.938-2.642C113.382,86.71,113.416,86.708,113.449,86.702z
		 M134.247,70.78c-0.763-2.874,0.229-6.889,1.763-9.198l3.835,0.145l1.626,4.55C140.282,68.471,136.771,70.399,134.247,70.78z
		 M111.752,90.546c0.086,0.026,0.181,0.033,0.274,0.011c2.071-0.476,4.208-0.924,6.274-1.359c7.854-1.652,15.272-3.212,19.537-6.093
		c6.886-4.741,5.556-13.292,4.884-16.122c0.846-0.095,1.836-0.182,2.912-0.175c1.8,5.011,0.014,14.375-4.44,17.505
		c-6.163,4.335-15.767,6.263-24.239,7.962c-1.959,0.393-3.819,0.767-5.593,1.161C111.537,92.528,111.666,91.57,111.752,90.546z
		 M146.173,65.623c-0.094,0.012-0.178,0.048-0.25,0.098c-1.264-0.022-2.452,0.079-3.426,0.189l-1.654-4.632l2.124-2.141
		c0.029,0,0.058-0.002,0.086-0.007c0.009-0.001,0.017-0.005,0.026-0.008c0.756,0.067,2.428,0.243,3.153,0.749
		c0.076,0.053,0.161,0.082,0.245,0.094c0.262,0.18,0.512,0.346,0.751,0.504c1.49,0.989,2.415,1.601,3.254,3.742
		C149.804,64.9,148.389,65.363,146.173,65.623z M146.42,58.729c-0.844-0.397-2.035-0.575-3.021-0.671
		c-0.175-0.704-0.506-1.703-0.851-2.497c1.251-0.777,2.395-1.152,3.692-1.209C146.614,55.908,146.774,57.681,146.42,58.729z
		 M141.43,55.74c0.006,0.014,0.014,0.025,0.022,0.038c0.353,0.761,0.693,1.791,0.868,2.462l-2.38,2.398l-3.768-0.142
		c-0.487-0.702-0.61-1.465-0.752-2.346c-0.011-0.067-0.023-0.137-0.034-0.206c0.01-0.055,0.015-0.111,0.008-0.168
		c-0.354-2.75,0.124-5.822,0.788-6.909C138.78,51.529,140.824,54.396,141.43,55.74z M134.363,58.45
		c0.133,0.821,0.287,1.662,0.781,2.467c-0.501,0.741-0.954,1.644-1.319,2.636c-1.539-0.831-2.723-2.072-3.391-3.56
		C131.539,59.134,132.756,58.658,134.363,58.45z M111.255,89.333c-1.431,0.069-2.144-0.172-3.494-0.891
		c-0.188-0.1-0.417-0.082-0.586,0.048c-3.409,2.591-7.214,2.501-10.442-0.25c-0.226-0.192-0.563-0.167-0.76,0.054
		c-1.841,2.067-4.334,2.08-5.654,1.903c-1.944-0.26-3.538-1.201-3.899-1.926c-0.074-0.149-0.214-0.255-0.378-0.29
		c-0.165-0.035-0.334,0.008-0.463,0.118c-1.604,1.356-3.233,1.3-4.226,1.253l-0.208-0.729c-0.279-0.977-0.492-1.726-0.664-2.427
		c0.005-0.106-0.021-0.208-0.071-0.296c-0.242-1.053-0.391-2.052-0.521-3.623c1.755-0.707,3.596-2.181,5.085-4.085
		c1.114,2.372,2.441,3.784,5.032,5.47c0.148,0.097,0.334,0.116,0.498,0.051c2.783-1.098,5.007-2.919,6.491-5.298
		c1.736,2.979,4.215,4.792,5.92,5.466c0.064,0.026,0.133,0.038,0.2,0.038c0.06,0,0.122-0.008,0.178-0.029
		c2.526-0.876,3.74-2.595,5.185-4.96c1.153,1.491,3.323,2.994,4.709,3.619C112.756,85.219,112.404,86.272,111.255,89.333z
		 M80.095,88.922l0.08,0.277c-1.686-0.375-3.393-0.735-5.056-1.084c-7.717-1.626-15.006-3.161-19.073-5.908
		c-5.944-4.097-5.196-11.367-4.56-14.426c0.704,0.887,1.689,1.701,2.781,2.375c-1.755,10.571,9.536,13.085,25.195,16.469
		C79.632,87.298,79.837,88.019,80.095,88.922z M59.447,63.553c-0.351-0.952-0.782-1.824-1.258-2.548
		c0.505-0.832,0.648-1.702,0.787-2.546c1.569,0.212,2.767,0.688,3.862,1.535C62.167,61.481,60.984,62.722,59.447,63.553z
		 M57.872,57.777c-0.014,0.111,0.007,0.223,0.057,0.321c-0.01,0.061-0.02,0.123-0.03,0.183c-0.143,0.868-0.267,1.621-0.744,2.315
		l-3.833,0.153l-2.418-1.937c0.01-0.036,0.016-0.073,0.018-0.112c0.124-0.628,0.566-2.056,1.021-2.98
		c0.02-0.042,0.033-0.084,0.042-0.127C52,55.532,52.005,55.469,52,55.407c0.765-1.438,2.701-3.93,5.091-4.539
		C57.752,51.957,58.229,55.028,57.872,57.777z M46.844,60.063c0.087-0.01,0.173-0.041,0.25-0.094
		c0.328-0.229,1.06-0.524,2.697-0.701L49.766,59.3l2.622,2.1l-1.616,4.51c-0.955-0.11-2.213-0.218-3.53-0.188
		c-0.018,0-0.036,0.002-0.054,0.005c-0.014-0.003-0.027-0.008-0.042-0.01c-2.214-0.257-3.63-0.718-4.31-1.405
		c0.845-2.143,1.77-2.757,3.263-3.748C46.335,60.408,46.584,60.243,46.844,60.063z M47.632,66.807
		c1.072-0.003,2.101,0.083,2.915,0.175c-0.674,2.829-2.012,11.371,4.885,16.126c4.249,2.868,11.639,4.424,19.464,6.072
		c2.088,0.44,4.248,0.894,6.341,1.376c0.093,0.021,0.185,0.015,0.271-0.009c0.128,1.121,0.287,2.059,0.486,2.908
		c-1.801-0.401-3.691-0.781-5.685-1.18c-8.473-1.702-18.075-3.63-24.236-7.962C47.619,81.179,45.833,71.817,47.632,66.807z
		 M103.641,14.382c-0.138,0.277-0.416,0.455-0.824,0.535c-0.137-0.001-0.28-0.001-0.427-0.001c-0.123-0.001-0.253-0.001-0.387-0.002
		c-0.759-0.527-1.168-1.012-1.248-1.483c-0.126-0.745,0.547-1.638,1.4-2.77c0.067-0.089,0.137-0.182,0.208-0.276
		c0.16,0.525,0.442,1.091,0.854,1.703C103.66,12.749,103.939,13.788,103.641,14.382z M90.804,7.509
		c0.347-0.373,1.165-0.392,2.222-0.043c0.203,0.067,0.424,0.01,0.571-0.146c0.146-0.155,0.186-0.38,0.106-0.578
		c-0.87-2.122-0.047-2.677,1.201-3.517c0.611-0.41,1.278-0.861,1.765-1.541c0.474,0.646,1.083,1.159,1.641,1.627
		c1.314,1.104,1.816,1.599,1.023,2.756c-0.148,0.216-0.122,0.505,0.062,0.691c0.183,0.187,0.472,0.216,0.689,0.072
		c0.702-0.463,1.501-0.328,2.016,0.279c0.297,0.351,0.437,0.791,0.371,1.178c-0.002,0.018-0.002,0.035-0.003,0.053
		c-0.021,0.028-0.039,0.06-0.053,0.092c-0.002,0.005-0.003,0.011-0.006,0.016c-0.01,0.013-0.021,0.024-0.03,0.037
		c-0.363,0.548-0.735,1.042-1.096,1.52c-0.969,1.289-1.809,2.4-1.603,3.609c0.076,0.452,0.289,0.877,0.652,1.292
		c-0.914-0.006-1.71-0.016-1.852-0.03c-0.649-0.07-0.994-0.26-1.198-1.154c-0.028-0.169,0.139-0.776,0.271-1.266
		c0.476-1.745,1.194-4.38-0.242-6.419c-0.133-0.188-0.365-0.266-0.576-0.214c-0.211-0.052-0.442,0.025-0.576,0.214
		c-1.44,2.043-0.72,4.684-0.242,6.431c0.121,0.442,0.268,0.982,0.273,1.197c0,0.007,0,0.014,0,0.021
		c0,0.012-0.001,0.023-0.002,0.033c-0.208,0.895-0.555,1.086-1.212,1.156c-0.152,0.016-1.086,0.025-2.076,0.032
		c0.207-0.299,0.334-0.614,0.384-0.95c0.174-1.169-0.644-2.229-1.437-3.252c-0.504-0.652-1.027-1.327-1.188-1.929
		c-0.021-0.074-0.056-0.14-0.101-0.196c0.015-0.057,0.022-0.117,0.018-0.178C90.557,8.127,90.581,7.749,90.804,7.509z M96.736,7.231
		c0.548,1.253,0.308,2.784-0.002,4.051C96.424,10.014,96.186,8.484,96.736,7.231z M90.772,14.918
		c-0.035-0.031-0.073-0.06-0.117-0.082c-1.755-0.882-1.385-1.677-0.709-3.12c0.164-0.347,0.335-0.713,0.474-1.096
		c0.18,0.255,0.375,0.505,0.567,0.754c0.651,0.842,1.327,1.714,1.221,2.422c-0.057,0.382-0.339,0.748-0.862,1.119
		c-0.017,0-0.033,0-0.049,0C91.112,14.916,90.937,14.917,90.772,14.918z M82.712,6.016c1.746,0.239,2.754,0.455,3.167,2.115
		c0.053,0.208,0.22,0.366,0.431,0.405c0.212,0.039,0.425-0.05,0.548-0.226c0.446-0.646,0.921-1.002,1.34-1.002
		c0.485,0,0.983,0.501,1.331,1.341c0.02,0.047,0.047,0.088,0.077,0.127c-0.018,0.065-0.023,0.135-0.015,0.206
		c0.086,0.737-0.28,1.517-0.632,2.272c-0.527,1.125-1.154,2.469-0.059,3.654c-0.984-0.089-1.395-0.467-1.946-1.058
		c-0.206-0.22-0.551-0.232-0.772-0.027c-0.22,0.207-0.231,0.551-0.026,0.771c0.775,0.831,1.472,1.425,3.245,1.425
		c0.077,0,0.159-0.001,0.24-0.003c0.168-0.005,0.842-0.008,1.66-0.011c2.393-0.011,3.571-0.021,3.796-0.047
		c0.55-0.058,1.175-0.218,1.637-0.818c0.459,0.6,1.083,0.76,1.629,0.818c0.232,0.026,1.446,0.036,3.902,0.047
		c0.067,0.03,0.141,0.047,0.217,0.047c0.01,0,0.02-0.001,0.03-0.001c0.144-0.008,0.277-0.023,0.403-0.044
		c0.62,0.003,1.093,0.006,1.226,0.01c0.089,0.002,0.177,0.003,0.261,0.003c1.619,0,2.06-0.425,2.625-1.1
		c0.086-0.102,0.176-0.211,0.284-0.326c0.206-0.221,0.193-0.566-0.027-0.771c-0.22-0.205-0.564-0.193-0.771,0.027
		c-0.121,0.13-0.225,0.254-0.321,0.37c-0.381,0.454-0.577,0.688-1.607,0.708c0.011-0.02,0.022-0.041,0.032-0.06
		c0.521-1.042,0.109-2.486-0.494-3.388c-0.755-1.125-0.987-1.979-0.708-2.611c0.026-0.061,0.039-0.122,0.042-0.184
		c0.004-0.006,0.01-0.012,0.014-0.019c0.334-0.529,0.85-1.159,1.404-1.159c0.574,0,1.119,0.66,1.391,1.053
		c0.121,0.174,0.33,0.264,0.541,0.227c0.209-0.036,0.377-0.189,0.433-0.394c0.33-1.204,1.418-1.536,3.169-1.977
		c0.678-0.171,1.403-0.354,2.097-0.637c-3.575,6.68-4.747,9.337-7.014,15.668c-0.229,0.011-0.47,0.016-0.723,0.016
		c-1.554,0-3.422-0.185-5.586-0.399c-2.925-0.29-6.241-0.618-9.962-0.618c-0.742,0-1.479,0.014-2.2,0.04
		c-2.036-6.124-4.06-11.088-6.027-14.796C81.572,5.86,82.159,5.941,82.712,6.016z M77.997,40.423
		c-1.521-0.452-3.003-1.578-3.243-3.131c3.026,2.172,6.739,0.436,10.048-1.113c0.525-0.245,1.044-0.489,1.557-0.715
		c0.018-0.007,0.034-0.016,0.05-0.025c0.021-0.005,0.042-0.008,0.062-0.015c2.847-0.995,5.157-1.059,7.497-0.21
		c0.778,0.284,1.073,1.242,0.891,1.749c-0.042,0.119-0.107,0.297-0.5,0.166c-2.235-1.04-4.536-1.658-6.316,0.615
		c-0.075,0.002-0.151,0.018-0.223,0.052l-0.539,0.26C84.253,39.518,81.122,41.029,77.997,40.423z M88.748,38.62
		c1.133-1.614,2.5-1.739,5.176-0.49c0.017,0.008,0.035,0.015,0.051,0.02c0.875,0.306,1.625-0.015,1.913-0.82
		c0.377-1.054-0.217-2.656-1.547-3.141c-2.502-0.908-5.063-0.863-8.04,0.142c-0.984-1.026-2.4-1.56-4.098-1.551
		c-1.789,0.012-3.777,0.668-5.006,1.591c-0.494-2.348-0.26-4.18,0.697-5.455c1.354-1.8,3.896-2.085,5.041-2.117
		c0.042,0.011,0.086,0.02,0.132,0.02c2.946,0.045,5.334,2.011,6.722,5.535c0.087,0.219,0.294,0.361,0.539,0.345
		c5.119-0.288,7.862,2.013,9.259,3.994c0.605,0.853,0.764,2.85,0.099,3.722c-0.197,0.259-0.561,0.565-1.438,0.247
		c-0.005-0.002-0.009-0.004-0.014-0.005c-0.02-0.021-0.037-0.042-0.057-0.064c-0.145-0.159-0.362-0.21-0.555-0.153
		c-3.823-1.33-5.255-1.147-8.825,0.266C88.635,40.085,88.617,39.109,88.748,38.62z M81.362,67.011
		c5.36-2.286,6.733-4.353,8.708-7.639c0.215,0.017,0.427,0.026,0.636,0.026c4.135,0,7.195-3.288,8.276-8.99
		c0.056-0.296-0.139-0.582-0.435-0.637c-0.293-0.056-0.582,0.137-0.637,0.433c-0.387,2.04-2.085,8.577-7.818,8.074
		c-0.005-0.003-0.009-0.007-0.014-0.009c-0.44-0.248-1.601-0.902-2.363-1.738c4.52-1.009,7.803-5.468,8.331-9.322
		c0.391-2.86-0.612-5.195-2.778-6.594c1.159-0.024,2.405,0.28,4.326,0.968c0.999,1.235,0.944,2.321,0.87,3.789
		c-0.014,0.274-0.027,0.557-0.035,0.849c-0.007,0.3,0.23,0.551,0.531,0.558c0.005,0,0.01,0,0.014,0c0.295,0,0.539-0.235,0.545-0.531
		c0.007-0.282,0.022-0.555,0.036-0.822c0.06-1.2,0.118-2.35-0.476-3.547c0.763-0.054,1.23-0.485,1.475-0.805
		c0.972-1.272,0.77-3.821-0.076-5.014c-1.518-2.154-4.449-4.647-9.82-4.47c-1.936-4.573-5.021-5.654-7.017-5.834
		c0.358-2.387,1.864-3.939,2.863-4.123c0.045-0.008,0.087-0.023,0.127-0.042c0.01,0,0.019,0.002,0.029,0.002
		c0.834-0.037,1.696-0.056,2.563-0.056c3.668,0,6.955,0.325,9.854,0.613c2.194,0.217,4.087,0.405,5.694,0.405
		c0.372,0,0.723-0.011,1.046-0.032c0.048,0.012,0.098,0.02,0.149,0.017c0.829-0.027,1.499-0.033,2.06-0.039
		c0.752-0.007,1.317-0.011,1.804-0.064c0.4,1.875-1.111,2.675-1.767,2.929c-0.954-0.044-1.423-0.125-2.726-0.459
		c-0.293-0.073-0.589,0.102-0.664,0.394c-0.075,0.292,0.102,0.589,0.393,0.664c1.391,0.356,1.918,0.445,2.973,0.493
		c0.015,0.002,0.029,0.007,0.043,0.008l0.262,0.023c1.494,0.139,3.483,0.322,5.341,0.296c-0.145,1.555-0.794,2.459-2.228,3.12
		c-0.042,0.008-0.084,0.019-0.125,0.037c-0.549,0.245-1.375,0.113-2.998-0.221c-0.3-0.062-0.584,0.13-0.644,0.424
		c-0.061,0.295,0.127,0.583,0.423,0.644c1.055,0.218,1.85,0.371,2.509,0.371c0.119,0,0.232-0.006,0.343-0.016
		c1.783,2.276,2.478,4.556,2.308,7.572c-0.107,1.974-0.436,4.183-0.752,6.32c-0.783,5.285-1.527,10.293,0.701,12.614
		c-0.38,0.306-0.968,0.578-1.531,0.544c-0.042-0.001-0.083,0.002-0.122,0.009c-3.85-1.221-3.582-4.324-2.772-9.662
		c0.667-4.401,1.424-9.39-1.068-14.148c-0.14-0.267-0.47-0.37-0.736-0.23c-0.268,0.14-0.37,0.471-0.23,0.737
		c2.327,4.443,1.599,9.243,0.957,13.479c-0.754,4.975-1.408,9.28,3.476,10.853c0.052,0.281,0.101,0.561,0.149,0.836
		c0.417,2.452,0.813,4.77,3.823,8.002c-0.155,1.09-1.25,1.71-2.272,2.056c-0.653,0.075-1.686,0.088-2.629-0.712
		c-0.842-0.715-1.458-1.966-1.83-3.689c-0.004-0.024-0.008-0.048-0.015-0.072c-0.235-1.121-0.369-2.438-0.396-3.935
		c-0.005-0.301-0.247-0.53-0.554-0.536c-0.302,0.006-0.541,0.254-0.536,0.555c0.028,1.588,0.17,2.984,0.425,4.183
		c0.424,4.372-1.184,6.639-2.396,8.144c-1.771-0.541-3.646-1.429-4.539-4.179c1.006-2.009,1.536-4.343,2.009-6.435
		c0.27-1.198,0.526-2.329,0.837-3.221c0.099-0.284-0.051-0.595-0.335-0.695c-0.286-0.099-0.596,0.052-0.695,0.336
		c-0.331,0.95-0.593,2.11-0.871,3.338c-0.462,2.041-0.979,4.32-1.937,6.219c-0.042,0.042-0.076,0.091-0.102,0.147
		c-0.072,0.157-0.149,0.309-0.23,0.458c-0.03,0.05-0.058,0.103-0.088,0.152c-0.008,0.014-0.013,0.028-0.021,0.043
		c-1.584,2.733-4.692,4.053-8.347,3.522c0.091-4.304,1.563-7.013,6.257-11.718c0.009-0.01,0.019-0.021,0.028-0.03
		c5.638-6.602,10.891-14.915,7.1-26.518c-0.094-0.287-0.401-0.444-0.688-0.35c-0.286,0.094-0.443,0.402-0.349,0.688
		c3.62,11.081-1.442,19.085-6.879,25.454c-2.093,2.099-3.573,3.826-4.593,5.473c-0.022,0.02-0.045,0.039-0.065,0.063
		c-0.944,1.105-5.194,3.065-8.785,1.69c-0.025-0.01-0.052-0.015-0.078-0.021C81.894,67.978,81.434,67.377,81.362,67.011z
		 M82.661,69.655c0.896,0.292,1.819,0.416,2.723,0.416c1.906,0,3.732-0.551,5.073-1.235c-0.657,1.645-0.91,3.337-0.909,5.376
		c0,0.262,0.187,0.489,0.445,0.536c4.179,0.773,7.797-0.608,9.735-3.632c1.347,2.973,3.859,3.691,5.278,4.095
		c0.05,0.016,0.1,0.022,0.15,0.022c0.161,0,0.318-0.072,0.422-0.202c0.978-1.198,2.465-3.021,2.847-6.168
		c0.324,0.554,0.703,1.015,1.132,1.38c0.973,0.825,2.033,1.004,2.825,1.002c1.876,4.046,1.556,8.122,1.398,10.104
		c-0.007,0.094-0.013,0.182-0.021,0.265c-1.156-0.514-3.973-2.307-4.81-3.958c-0.089-0.177-0.268-0.292-0.465-0.298
		c-0.191-0.009-0.385,0.094-0.487,0.263l-0.021,0.035c-1.548,2.559-2.583,4.274-4.845,5.132c-1.686-0.731-4.096-2.632-5.632-5.742
		c-0.09-0.183-0.277-0.302-0.482-0.303c-0.2-0.006-0.395,0.111-0.489,0.292c-1.315,2.531-3.387,4.398-6.162,5.554
		c-2.545-1.692-3.678-3.055-4.765-5.691c-0.077-0.186-0.249-0.313-0.447-0.334c-0.198-0.021-0.393,0.067-0.508,0.233
		c-1.433,2.075-3.31,3.698-5.07,4.43c-0.057-0.034-0.119-0.057-0.185-0.068C79.459,75.103,80.35,71.992,82.661,69.655z
		 M78.307,80.556c-0.009,0.485-0.013,0.982-0.013,1.494c0,0.167,0.078,0.326,0.21,0.428c0.091,0.072,0.203,0.11,0.317,0.114
		c0.103,1.172,0.22,2.042,0.379,2.858c-15.127-3.271-25.139-5.597-23.917-14.725c1.331,0.681,2.734,1.141,3.929,1.276
		c0.056,0.017,0.112,0.028,0.167,0.028c0.03,0,0.06-0.003,0.089-0.008c0.275-0.006,0.508-0.218,0.531-0.497
		c0.004-0.052-0.001-0.102-0.011-0.15c0.635-2.033,0.448-4.54-0.196-6.77c1.975-1.016,3.465-2.63,4.214-4.58
		c0.083-0.217,0.021-0.462-0.155-0.612c-1.358-1.154-2.867-1.797-4.837-2.048c0.244-2.738-0.196-6.299-1.303-7.476
		c-0.125-0.135-0.311-0.196-0.492-0.164c-2.715,0.486-4.976,3.037-6.039,4.905c-1.505-0.908-2.886-1.308-4.519-1.281
		c-0.245,0.002-0.458,0.167-0.522,0.403c-0.247,0.906-0.931,3.8-0.205,5.611c-0.151,0.103-0.298,0.199-0.44,0.294
		c-1.624,1.077-2.796,1.856-3.794,4.575c-0.063,0.169-0.037,0.361,0.071,0.507c0.735,1.014,2.245,1.654,4.732,1.997
		c-1.791,5.516,0.136,15.089,4.939,18.47c6.349,4.463,16.071,6.415,24.648,8.138c2.126,0.427,4.136,0.83,6.036,1.26
		c0.04,0.008,0.081,0.013,0.121,0.013c0.018,0,0.035-0.002,0.053-0.004c0.277,0.917,0.615,1.778,1.028,2.734
		c0.088,0.207,0.29,0.329,0.501,0.329c0.008,0,0.016-0.002,0.024-0.003c0.214,0.083,0.466,0.142,0.759,0.174
		c0.076,0.854,0.294,2.139,0.583,3.515c-0.031,0.005-0.063,0.012-0.094,0.023c-4.236,1.502-9.625-0.043-11.331-1.725
		c-0.183-0.18-0.465-0.208-0.68-0.068c-2.93,1.908-6.451,1.184-8.973-1.843c-0.118-0.141-0.298-0.21-0.479-0.194
		c-4.575,0.512-7.97-0.038-9.69-4.373c-0.077-0.193-0.258-0.325-0.465-0.342c-6.843-0.521-7.838-2.721-8.942-8.875
		c-0.03-0.171-0.142-0.317-0.298-0.394c-1.715-0.833-3.013-2.41-3.561-4.322c-0.638-2.231-0.209-4.701,1.209-6.958
		c0.158-0.25,0.087-0.581-0.16-0.745c-2.476-1.647-3.861-4.073-3.705-6.491c0.143-2.225,1.599-4.179,3.996-5.36
		c0.251-0.124,0.369-0.418,0.269-0.681c-1.107-2.945-0.703-5.526,1.141-7.269c1.83-1.73,4.709-2.231,7.001-1.22
		c0.233,0.104,0.506,0.032,0.658-0.172c2.328-3.115,5.708-3.708,7.845-2.683c2.196,1.053,3.004,3.636,2.162,6.909
		c-0.045,0.176,0,0.364,0.122,0.5c0.121,0.135,0.303,0.204,0.482,0.176c1.681-0.232,3.174,0.379,4.208,1.73
		c1.249,1.629,1.573,4.055,0.79,5.899c-0.502,1.179-1.654,2.645-4.299,2.945c-0.157,0.018-0.298,0.102-0.388,0.232
		c-0.089,0.13-0.119,0.292-0.08,0.445c0.465,1.812,1.291,2.458,2.848,3.109c-0.551,2.032-0.324,3.851,0.684,5.416
		C67.958,78.905,74.578,80.155,78.307,80.556z M17.085,34.044c2.335,3.507,5.677,5.833,8.167,7.565
		c0.277,0.192,0.544,0.379,0.8,0.559c0.06,0.042,0.124,0.069,0.191,0.085c0.861,0.793,1.31,1.267,1.708,1.689
		c0.622,0.658,1.115,1.18,2.793,2.495c0.1,0.079,0.218,0.116,0.336,0.116c0.162,0,0.321-0.071,0.43-0.208
		c0.186-0.237,0.144-0.58-0.092-0.766c-1.615-1.266-2.06-1.736-2.674-2.386c-0.444-0.471-0.947-1.003-1.986-1.947
		c-0.052-0.047-0.11-0.081-0.172-0.104c-3.473-4.047-6.374-10.044-6.839-14.083c4.438-0.102,8.535,2.22,15.213,6.211
		c0.067,0.041,0.14,0.063,0.215,0.072c3.407,2.395,6,4.653,9.713,9.435c0.033,0.043,0.074,0.077,0.115,0.107
		c0.096,0.705,0.242,1.411,0.444,2.128c-3.156-2.583-7.159-3.408-12.64-2.665c-0.243,0.033-0.435,0.224-0.467,0.466
		c-0.534,3.872,0.86,7.567,2.872,10.508c-4.817-3.43-9.71-6.037-13.722-7.286C17.415,41.903,16.27,36.596,17.085,34.044z
		 M6.613,52.702c2.209,2.181,7.919,4.29,11.772,4.951c0.032,0.005,0.064,0.004,0.096,0.008c1.303,0.916,2.432,1.642,3.164,2.099
		c0.256,0.159,0.592,0.081,0.752-0.174c0.16-0.256,0.082-0.592-0.174-0.751c-5.633-3.513-12.314-8.901-13.209-12.867
		c4.33-0.881,8.63,0.21,11.238,0.873c0.288,0.072,0.556,0.14,0.804,0.201c0,0,0,0,0,0c4.171,1.277,9.363,4.098,14.417,7.816
		c-3.814-1.042-7.95-0.759-11.667,0.888c-0.228,0.101-0.359,0.344-0.317,0.589c0.426,2.538,1.352,4.529,2.615,6.129
		c-3.04-0.22-7.719-0.34-12.577,0.367C6.571,58.282,6.349,54.995,6.613,52.702z M1.406,68.351c7.813-5.643,20.54-5.182,25.719-4.709
		c0.012,0.001,0.022,0,0.035,0c1.773,1.744,4.004,2.943,6.386,3.886c-4.673,0.881-9.989,4.462-12.495,7.372l-0.544-0.067
		c-0.693-0.083-1.44-0.172-2.225-0.273c-0.057-0.016-0.115-0.026-0.176-0.023c-0.001,0-0.002,0-0.003,0
		C12.346,73.783,4.654,72.391,1.406,68.351z M1.088,75.167c1.401,0.805,3.707,1.057,6.341,1.057c2.268,0,4.781-0.187,7.165-0.364
		c1.24-0.091,2.413-0.177,3.472-0.23c0.815,0.105,1.591,0.198,2.31,0.285l0.556,0.068c0.675,1.191,1.73,2.223,3.029,3.063
		c-2.064,0.481-4.346,1.34-6.406,2.116c-0.695,0.262-1.358,0.512-1.968,0.728C3.206,80.538,1.207,79.431,1.088,75.167z
		 M0.928,95.714c2.724-5.313,7.239-9.153,14.962-12.757c0.024-0.011,0.044-0.026,0.066-0.04c0.615-0.221,1.283-0.471,1.983-0.735
		c2.458-0.925,5.239-1.972,7.5-2.314c2.752,1.314,6.201,1.889,9.426,1.479c-3.64,2.855-6.763,7.517-7.58,11.676
		c-0.287,0.115-0.575,0.233-0.864,0.357C13.922,97.654,5.566,98.418,0.928,95.714z M13.94,133.972
		c-0.217-12.271,5.184-24.633,16.497-37.774c0.197-0.228,0.17-0.572-0.058-0.768c-0.228-0.197-0.572-0.171-0.77,0.058
		c-2.578,2.994-4.853,5.95-6.829,8.877c-0.046,0.012-0.092,0.027-0.136,0.052c-7.671,4.331-13.103,5.89-16.607,4.763
		c-2.213-0.711-3.425-2.453-4.318-4.213c0.295,0.033,0.598,0.051,0.907,0.051c4.168,0,9.526-2.938,15.151-6.021
		c2.994-1.641,6.078-3.331,9.032-4.596c0.24-0.082,0.48-0.166,0.723-0.25c0.04,0.02,0.081,0.035,0.126,0.045l0.462,0.097
		c3.266,0.693,8.845,1.875,13.696-0.525c-2.203,4.004-3.037,10.022-2.632,14.748c0.021,0.248,0.208,0.451,0.453,0.492
		c0.163,0.027,0.329,0.047,0.497,0.063C34.174,118.104,22.563,132.592,13.94,133.972z M32.072,136.346
		c-1.923,2.02-6.825,5.207-10.629,3.3c2.877-1.697,6.703-8.156,11.943-17.387c2.231-3.928,4.337-7.64,6.125-10.288
		c0.021-0.032,0.039-0.065,0.053-0.099c0.646-0.937,1.267-1.866,1.862-2.782c0.445-0.025,0.9-0.082,1.364-0.169
		c-1.395,5.675-2.308,12.088-3.048,17.331C36.829,130.655,34.247,134.053,32.072,136.346z M42.621,150.234
		c-2.482-4.909-2.403-20.054-1.863-23.491c0.015-0.037,0.027-0.077,0.033-0.12c0.765-5.424,1.715-12.153,3.192-17.981
		c3.288-0.932,6.805-3.184,9.317-6.024c-1.104,5.668,1.674,10.329,3.453,13.313c0.296,0.496,0.556,0.934,0.772,1.329
		C54.643,134.873,47.888,146.533,42.621,150.234z M55.254,138.259c0.734-1.945,1.174-5.15,1.775-9.517
		c0.424-3.091,0.953-6.926,1.718-11.208c1.111-0.438,2.11-0.979,3.005-1.595c0.628,2.785,1.021,4.18,1.702,6.065
		c-0.328,1.037-0.629,2.192-0.946,3.411C61.25,130.25,59.712,136.168,55.254,138.259z M65.668,123.292
		c-0.607-0.563-0.846-1.021-1.077-1.468l-0.066-0.127c-0.015-0.029-0.034-0.057-0.053-0.082c-0.695-1.932-1.086-3.345-1.763-6.393
		c4.456-3.622,6.026-9.116,6.54-11.721c0.057-0.295-0.135-0.582-0.431-0.64c-0.299-0.057-0.582,0.135-0.641,0.429
		c-0.49,2.489-1.996,7.771-6.272,11.175c-0.108,0.04-0.198,0.111-0.261,0.203c-0.956,0.725-2.044,1.356-3.286,1.846
		c-0.202-0.356-0.431-0.741-0.671-1.144c-2.155-3.616-5.412-9.082-2.23-15.815c0.126-0.268,0.017-0.587-0.247-0.721
		c-0.264-0.133-0.587-0.031-0.727,0.229c-2.788,5.178-9.581,9.388-14.247,8.922c-0.383-5.659,1.064-12.911,4.225-15.985
		c0.123-0.107,0.246-0.217,0.366-0.331c0.214-0.203,0.23-0.54,0.033-0.761c-0.196-0.221-0.533-0.244-0.758-0.054
		c-0.128,0.109-0.255,0.221-0.377,0.34c-4.806,4.167-11.427,2.866-15.161,2.076c-0.004-0.02-0.007-0.04-0.014-0.06
		c-0.031-0.087-0.083-0.158-0.146-0.217c1.073-4.908,5.663-10.686,10.094-12.597c0.275-0.119,0.402-0.439,0.287-0.713
		c-0.119-0.275-0.434-0.406-0.713-0.291c-3.826,1.598-8.721,1.219-12.261-0.515c-0.057-0.045-0.122-0.078-0.191-0.096
		c-1.602-0.818-2.908-1.919-3.686-3.243c3.142-3.614,9.876-7.433,14.21-7.106c0.274,0.028,0.524-0.167,0.577-0.438
		c0.053-0.271-0.104-0.539-0.367-0.625c-5.332-1.742-10.425-4.262-11.714-10.798c4.703-1.94,10.058-1.591,14.409,0.957
		c0.245,0.144,0.559,0.075,0.723-0.157c0.163-0.232,0.121-0.551-0.098-0.732c-3.287-2.732-6.85-7.807-6.304-13.27
		c5.901-0.719,9.916,0.534,12.981,4.036c0.176,0.203,0.475,0.246,0.702,0.102c0.228-0.145,0.316-0.434,0.207-0.68
		c-1.69-3.85-1.563-7.087-0.714-11.27c9.771,0.696,15.129,10.598,15.783,13.395c0.07,0.293,0.364,0.476,0.657,0.407
		c0.292-0.068,0.475-0.362,0.407-0.656c-0.707-3.019-6.57-13.826-17.264-14.262c-0.247-0.01-0.5,0.172-0.556,0.432
		c-0.462,2.182-0.751,4.162-0.717,6.105c-3.41-4.225-5.949-6.365-9.265-8.68c-0.038-0.027-0.078-0.046-0.119-0.062
		c-4.806-5.498-6.838-10.907-7.203-12.561c14.919,0.123,32.829,13.816,38.771,21.59c11.106,14.544,8.196,21.907,6.429,24.397
		c-2.11,2.973-5.617,3.803-7.846,3.077c-0.051-0.017-0.102-0.023-0.153-0.024c-1.295-0.514-1.913-0.887-2.301-1.905
		c2.145-0.416,3.741-1.643,4.532-3.503c0.946-2.223,0.573-5.032-0.927-6.989c-1.123-1.466-2.671-2.226-4.456-2.206
		c0.676-3.471-0.387-6.218-2.915-7.43c-2.458-1.178-6.259-0.611-8.93,2.681c-2.611-0.963-5.759-0.339-7.794,1.585
		c-2.051,1.94-2.614,4.832-1.572,7.989c-2.499,1.378-4.012,3.558-4.172,6.044c-0.171,2.666,1.227,5.315,3.762,7.171
		c-1.368,2.402-1.747,5.009-1.066,7.392c0.607,2.118,2.013,3.881,3.882,4.876c1.11,6.072,2.439,8.855,9.549,9.476
		c2.091,4.854,6.208,5.205,10.406,4.771c1.859,2.12,4.175,3.173,6.482,3.071c0.86,1.094,2.487,2.481,4.642,3.539
		C73.671,115.559,67.894,122.365,65.668,123.292z M71.238,101.566c0.711-0.167,1.413-0.445,2.092-0.841
		c1.548,1.26,4.699,2.36,7.982,2.36c1.386,0,2.795-0.196,4.117-0.66c0.195,0.851,0.408,1.702,0.625,2.478
		C79.337,107.427,73.525,104.019,71.238,101.566z M85.712,97.856c1.09-0.071,2.535-0.354,4.415-0.856
		c2.051,1.459,4.302,2.188,6.53,2.188c2.224,0,4.425-0.727,6.379-2.181c2.101,0.618,3.756,0.938,4.996,0.967
		c-0.083,1.866-0.717,4.819-1.444,6.777c-0.192-0.047-0.427-0.115-0.618-0.172c-0.311-0.09-0.63-0.186-0.917-0.241
		c-0.158-0.03-0.319,0.008-0.443,0.107c-1.305,1.03-5.224,1.145-7.592-0.66c-0.212-0.163-0.511-0.148-0.706,0.037
		c-1.79,1.699-6.05,1.626-7.324,0.623c-0.124-0.1-0.285-0.138-0.441-0.107c-0.247,0.048-0.52,0.119-0.789,0.189
		c-0.204,0.053-0.436,0.111-0.632,0.152C86.483,102.407,85.867,99.438,85.712,97.856z M88.033,105.583
		c0.167-0.045,0.339-0.089,0.501-0.128c1.708,1.067,5.946,1.159,8.181-0.546c1.458,0.97,3.245,1.367,4.852,1.367
		c1.424,0,2.707-0.312,3.496-0.818c0.187,0.047,0.395,0.108,0.597,0.167c0.011,0.004,0.021,0.007,0.032,0.01
		c-0.559,2.453-1.217,4.406-1.871,6.249l-1.7-0.838c-0.165-0.081-0.361-0.075-0.52,0.021c-3.188,1.889-6.7,1.89-9.889,0
		c-0.155-0.093-0.345-0.103-0.51-0.024l-1.786,0.837c-0.615-2.156-1.19-4.196-1.46-6.276
		C87.982,105.596,88.007,105.59,88.033,105.583z M101.227,124.634c0.109,5.429-1.844,12.632-4.61,17.231
		c-0.034-0.007-0.07-0.011-0.105-0.01c-0.017,0-0.032,0.004-0.049,0.005c-2.375-3.89-4.907-12.637-4.873-17.184
		c0.032-4.616-0.928-8.393-1.871-11.733l1.688-0.792c1.699,0.954,3.474,1.432,5.25,1.432c1.773,0,3.547-0.477,5.244-1.43l1.55,0.766
		C102.194,116.437,101.131,119.541,101.227,124.634z M59.442,166.997l-0.471,0.565c-1.14,1.37-1.662,1.997-2.023,2.537
		c-0.465,0.757-0.511,1.535-0.129,2.188c0.554,0.946,1.906,1.448,3.728,1.382c0.015,0,0.03-0.001,0.045-0.003
		c1.921-0.235,3.295,0.375,3.774,1.672c0.461,1.245,0.003,2.786-1.043,3.636c-0.192,0.04-0.346,0.181-0.405,0.361
		c-0.079,0.146-0.088,0.324-0.018,0.48c0.012,1.421-0.481,2.561-1.472,3.389c-0.968,0.81-2.211,1.155-3.137,1.243
		c0.712-1.065,0.806-2.255,0.867-3.199c0.18,0.025,0.369,0.039,0.563,0.039c0.744,0,1.55-0.189,2.136-0.544
		c0.257-0.157,0.339-0.493,0.183-0.75c-0.157-0.258-0.493-0.339-0.751-0.183c-0.782,0.478-2.009,0.462-2.453,0.22
		c-0.053-0.028-0.109-0.045-0.165-0.055c-1.16-0.63-1.748-1.183-2.24-2.989c-0.076-0.277-0.354-0.449-0.638-0.39
		c-0.983,0.203-2.555-0.041-2.984-0.617c-0.117-0.156-0.306-0.235-0.502-0.216c-0.194,0.023-0.361,0.148-0.437,0.328
		c-0.367,0.861-0.63,1.685-0.884,2.482c-0.57,1.786-1.063,3.328-2.514,4.729c-0.146,0.14-0.202,0.352-0.145,0.547
		c0.692,2.336,0.392,3.878-0.943,4.852c-0.166,0.12-0.249,0.322-0.218,0.524c0.301,1.922,0.67,2.919,1.485,3.745
		c-1.291,0.523-2.828,0.521-4.031-0.047c-0.612-0.289-1.347-0.823-1.708-1.793c0.558,0.063,1.187,0.011,1.882-0.155
		c0.292-0.068,0.474-0.361,0.405-0.654c-0.07-0.294-0.361-0.476-0.656-0.406c-2.018,0.477-2.748-0.282-3.122-0.895
		c-0.614-0.993-0.731-2.643-0.298-4.204c0.43-1.558,2.25-2.345,3.345-2.387c0.284-0.01,0.513-0.236,0.525-0.52
		c0.055-1.22,0.45-2.957,0.955-4.635c0.018-0.04,0.031-0.083,0.038-0.126c0.559-1.835,1.244-3.579,1.748-4.469
		c0.149-0.262,0.056-0.594-0.206-0.743c-0.262-0.15-0.595-0.058-0.743,0.206c-0.534,0.941-1.241,2.726-1.82,4.614
		c-2.086,1.896-4.199,2.462-6.431,3.059l-0.6,0.163c-0.221,0.059-0.381,0.251-0.4,0.479c-0.178,2.059-0.478,2.911-1.817,3.582
		c-0.049,0.024-0.093,0.056-0.133,0.095c-0.57,0.547-1.381,2.317-0.617,4.418c-1.238-0.144-2.354-0.678-3.145-1.527
		c-0.588-0.63-0.948-1.375-1.052-2.158c0.55,0.156,1.119,0.147,1.495,0.116c0.301-0.027,0.522-0.291,0.499-0.591
		c-0.027-0.301-0.292-0.527-0.591-0.497c-0.723,0.062-1.349-0.073-1.636-0.354c-0.047-0.044-0.099-0.079-0.154-0.104
		c-1.127-0.984-0.9-3.995-0.086-5.244c1.007-1.548,3.271-1.656,4.516-1.139c0.138,0.058,0.292,0.057,0.429-0.003
		c2.198-0.964,4.547-2.354,6.293-3.727c1.508-0.871,2.536-1.967,3.552-3.048l-0.397-0.374l-0.419-0.352
		c-0.97,1.034-1.888,2.011-3.226,2.797c-1.854,0.261-4.457-0.679-5.465-1.463c-0.194-0.151-0.464-0.154-0.661-0.007l-0.191,0.144
		c-1.236,0.93-2.404,1.809-5.418,0.936c-0.18-0.054-0.375-0.008-0.515,0.117c-1.073,0.96-1.552,1.656-2.079,3.2
		c-0.935-1.168-1.418-2.72-1.317-4.306c0.072-1.11,0.426-2.094,1-2.829c0.138,0.791,0.521,1.637,1.047,2.179
		c0.107,0.112,0.25,0.169,0.393,0.169c0.135,0,0.272-0.052,0.378-0.154c0.217-0.209,0.222-0.555,0.014-0.771
		c-0.63-0.652-0.896-1.871-0.762-2.344c0.031-0.111,0.026-0.223-0.008-0.324c0.65-2.149,2.769-3.077,4.629-3.027
		c1.411,0.033,3.184,0.678,3.539,2.385c0.044,0.21,0.208,0.374,0.417,0.421l8.466,1.858c1.084,0.238,2.318-0.197,3.663-1.3
		l3.974-3.254c0.792,0.127,1.502,0.214,2.201,0.214c0.058,0,0.117-0.001,0.174-0.002c0.302-0.006,0.54-0.255,0.534-0.557
		c-0.005-0.302-0.258-0.542-0.557-0.534c-0.686,0.015-1.405-0.072-2.225-0.205c-0.03-0.017-0.062-0.031-0.095-0.041l-0.06-0.018
		l4.223-3.382c0.366,0.014,0.711,0.021,1.033,0.021c0.65,0,1.221-0.028,1.742-0.082c0.299-0.033,0.517-0.301,0.485-0.601
		c-0.032-0.299-0.307-0.518-0.599-0.485c-0.688,0.072-1.479,0.093-2.447,0.063c-0.073-0.048-0.158-0.08-0.249-0.088l-0.274-0.026
		l4.014-3.806c0.375,0.015,0.778,0.027,1.194,0.027c0.643,0,1.316-0.028,1.952-0.109c0.299-0.038,0.51-0.312,0.472-0.609
		c-0.039-0.299-0.317-0.513-0.611-0.473c-0.911,0.116-1.924,0.111-2.797,0.08c-0.014-0.01-0.027-0.02-0.042-0.028l-0.267-0.161
		l4.834-6.298c0.875-0.032,1.778-0.122,2.685-0.284c-0.176,1.47,0.154,3.589,0.662,4.825c0.012-0.017,0.023-0.033,0.036-0.05
		c0.176-0.245,0.516-0.301,0.761-0.124c0.244,0.176,0.3,0.517,0.124,0.762c-0.07,0.096-0.139,0.19-0.208,0.286
		c0.025,0.003,0.049,0.006,0.074,0.006c0.031,0,0.062-0.002,0.093-0.007c2.145-0.37,3.811-1.177,5.342-2.597
		c0.113,0.228,0.217,0.423,0.307,0.584C71.664,152.735,62.001,163.785,59.442,166.997z M73.876,148.641
		c-1.374,1.359-2.792,2.123-4.68,2.506c-0.486-1.036-0.901-3.49-0.581-4.797c1.52-0.376,3.02-0.97,4.386-1.839
		C72.995,146.044,73.421,147.512,73.876,148.641z M115.805,174.326c2.419-0.677,3.652-2.592,3.401-5.194
		c3.755,0.831,4.607,3.347,4.775,4.828c0.33,2.934-1.439,6.115-3.947,7.093c-0.218,0.084-0.357,0.297-0.349,0.529
		c0.01,0.232,0.164,0.434,0.388,0.501c5.539,1.675,6.841,6.145,6.276,9.463c-0.677,3.97-4.121,7.867-9.409,7.636
		c-4.996-0.225-10.809-4.059-14.132-9.329c-0.131-0.207-0.385-0.301-0.617-0.231c-0.234,0.069-0.393,0.286-0.39,0.531
		c0.205,12.694-2.646,16.237-5.195,19.29c-2.484-2.995-5.202-6.602-4.995-19.29c0.003-0.245-0.155-0.462-0.39-0.531
		s-0.487,0.024-0.618,0.231c-3.66,5.802-10.119,9.716-15.372,9.31c-5.098-0.394-7.841-4.435-8.231-8.022
		c-0.363-3.341,1.11-7.476,6.335-9.057c0.224-0.067,0.379-0.269,0.387-0.501c0.01-0.232-0.13-0.445-0.347-0.529
		c-2.507-0.977-4.278-4.155-3.948-7.089c0.167-1.484,1.021-4.001,4.776-4.83c-0.252,2.601,0.982,4.516,3.4,5.192
		c4.038,1.134,10.014-1.682,12.294-7.517c0.251-0.197,0.51-0.415,0.775-0.657c1.062-0.972,2.09-2.188,2.697-3.18
		c0.629,2.168,1.469,4.236,2.588,6.021l0.234,13.159c0.006,0.299,0.248,0.536,0.545,0.536c0.003,0,0.006,0,0.01,0
		c0.301-0.006,0.542-0.255,0.536-0.556l-0.239-13.377c0.972-1.678,1.772-3.632,2.401-5.88c0.902,1.384,2.592,2.993,4.019,3.813
		C105.708,172.607,111.737,175.464,115.805,174.326z M120.396,144.506c1.656,1.055,3.509,1.702,5.355,2.052
		c0.501,1.814,0.29,3.329-0.096,5.028c-2.414-0.307-5.145-1.718-6.202-2.653c-0.012-0.011-0.025-0.019-0.039-0.028
		C119.909,147.748,120.405,146.167,120.396,144.506z M132.688,153.291c-0.124,0.006-0.248,0.011-0.374,0.018
		c-0.778,0.042-1.581,0.085-2.298,0.017c-0.297-0.028-0.567,0.192-0.595,0.492c-0.027,0.301,0.191,0.567,0.492,0.596
		c0.312,0.028,0.631,0.04,0.953,0.04c0.5,0,1.009-0.029,1.505-0.055c0.111-0.006,0.222-0.011,0.334-0.016l4.086,3.873l-0.272,0.026
		c-0.087,0.008-0.168,0.037-0.239,0.082c-0.715,0.023-1.589,0.031-2.397-0.04c-0.293-0.025-0.564,0.196-0.591,0.496
		c-0.026,0.299,0.196,0.564,0.497,0.59c0.514,0.046,1.049,0.063,1.557,0.063c0.404,0,0.789-0.011,1.131-0.023l4.232,3.388
		l-0.06,0.018c-0.007,0.002-0.013,0.005-0.02,0.008c-0.696,0.116-1.331,0.206-1.918,0.23c-0.301,0.012-0.535,0.267-0.523,0.566
		c0.012,0.293,0.254,0.523,0.545,0.523c0.008,0,0.015,0,0.023,0c0.604-0.024,1.229-0.109,1.905-0.219l3.995,3.27
		c1.371,1.118,2.57,1.541,3.666,1.3l8.462-1.858c0.209-0.047,0.373-0.211,0.417-0.421c0.356-1.708,2.131-2.352,3.542-2.385
		c0.042-0.001,0.084-0.002,0.125-0.002c1.786,0,3.774,0.888,4.457,2.887c-0.093,0.13-0.131,0.299-0.084,0.465
		c0.137,0.486-0.124,1.685-0.764,2.344c-0.209,0.217-0.205,0.562,0.011,0.772c0.106,0.102,0.243,0.154,0.38,0.154
		c0.143,0,0.285-0.057,0.392-0.167c0.555-0.571,0.953-1.481,1.07-2.309c0.635,0.747,1.027,1.78,1.102,2.956
		c0.103,1.587-0.381,3.142-1.315,4.308c-0.532-1.552-1.011-2.246-2.081-3.201c-0.139-0.126-0.334-0.169-0.515-0.117
		c-3.016,0.872-4.184-0.006-5.419-0.936l-0.19-0.144c-0.198-0.147-0.468-0.145-0.662,0.007c-0.978,0.758-3.268,1.729-5.145,1.463
		c-1.408-0.818-2.385-1.858-3.25-2.781c-0.207-0.219-0.553-0.229-0.772-0.022s-0.229,0.551-0.024,0.771
		c0.93,0.986,1.981,2.104,3.557,3.009c2.116,1.673,4.071,2.893,5.976,3.727c0.138,0.058,0.293,0.061,0.429,0.003
		c1.196-0.497,3.459-0.479,4.518,1.138c0.811,1.255,1.032,4.271-0.099,5.247c-0.054,0.026-0.105,0.062-0.15,0.104
		c-0.284,0.28-0.909,0.413-1.633,0.353c-0.304-0.033-0.564,0.197-0.59,0.497c-0.026,0.3,0.197,0.563,0.497,0.591
		c0.549,0.045,1.058,0.004,1.493-0.117c-0.103,0.784-0.465,1.532-1.054,2.164c-0.789,0.845-1.903,1.379-3.136,1.522
		c0.767-2.108-0.047-3.877-0.62-4.42c-0.039-0.038-0.083-0.069-0.131-0.093c-1.339-0.671-1.641-1.523-1.817-3.582
		c-0.02-0.228-0.179-0.42-0.399-0.479l-0.641-0.174c-2.196-0.586-4.465-1.192-6.542-3.064c-0.665-1.987-1.468-3.913-2.044-4.892
		c-0.153-0.259-0.486-0.345-0.748-0.193c-0.259,0.154-0.345,0.488-0.192,0.748c0.539,0.913,1.308,2.763,1.947,4.666
		c0.007,0.088,0.035,0.172,0.083,0.248c0.572,1.743,1.022,3.5,1.078,4.595c0.013,0.282,0.242,0.507,0.524,0.517
		c1.092,0.042,2.91,0.829,3.342,2.389c0.436,1.549,0.318,3.197-0.299,4.203c-0.375,0.609-1.107,1.368-3.122,0.894
		c-0.294-0.069-0.586,0.112-0.657,0.406c-0.068,0.293,0.113,0.586,0.406,0.654c0.696,0.166,1.325,0.215,1.885,0.153
		c-0.363,0.972-1.101,1.509-1.715,1.797c-1.201,0.564-2.738,0.566-4.026,0.044c0.813-0.829,1.185-1.825,1.484-3.744
		c0.031-0.202-0.052-0.405-0.218-0.524c-1.336-0.975-1.636-2.516-0.942-4.852c0.059-0.194,0.003-0.407-0.144-0.547
		c-1.453-1.401-1.946-2.944-2.518-4.731c-0.254-0.797-0.518-1.62-0.883-2.479c-0.078-0.18-0.246-0.305-0.439-0.328
		c-0.196-0.022-0.387,0.062-0.502,0.22c-0.423,0.573-1.994,0.817-2.983,0.613c-0.281-0.06-0.562,0.112-0.638,0.39
		c-0.454,1.675-0.992,2.273-1.992,2.854c-0.121-0.023-0.252-0.011-0.371,0.054c-0.444,0.243-1.672,0.26-2.457-0.216
		c-0.257-0.157-0.592-0.074-0.749,0.183s-0.074,0.593,0.184,0.749c0.583,0.354,1.387,0.541,2.131,0.541
		c0.18,0,0.355-0.012,0.523-0.033c0.001,0.012,0.002,0.023,0.002,0.036c0.058,0.966,0.135,2.21,0.882,3.317
		c-0.776-0.056-1.77-0.301-2.677-0.892c-1.098-0.719-1.779-1.766-2.024-3.113c-0.031-0.175-0.146-0.322-0.306-0.397
		c-1.434-0.671-2.321-3.007-1.823-4.808c0.448-1.624,1.901-2.397,4.091-2.177c0.059,0.007,0.12,0.002,0.176-0.011
		c2.248-0.51,3.354-1.126,3.695-2.063c0.242-0.663,0.044-1.421-0.604-2.273c-1.348-1.59-2.723-3.279-4.052-4.914
		c-4.004-4.916-8.14-9.996-12.347-13.44c0.072-0.127,0.159-0.282,0.253-0.463c1.158,0.938,3.194,1.949,5.173,2.466
		c2.515,2.666,5.583,6.396,8.551,10.005c1.442,1.754,2.934,3.567,4.357,5.256c1.097,1.305,1.412,2.624,1.601,3.414l0.035,0.148
		c0.06,0.25,0.284,0.416,0.529,0.416c0.043,0,0.087-0.005,0.13-0.016c0.293-0.07,0.471-0.365,0.402-0.657l-0.035-0.145
		c-0.21-0.884-0.562-2.361-1.826-3.864c-1.42-1.684-2.91-3.494-4.351-5.245c-2.602-3.166-5.281-6.422-7.61-8.991
		c0.051,0.004,0.102,0.009,0.152,0.013c0.012,0,0.024,0.002,0.037,0.002c0.251,0,0.472-0.173,0.53-0.421
		c0.437-1.837,0.758-3.547,0.312-5.561c0.343,0.043,0.684,0.076,1.022,0.1l4.937,6.338L132.688,153.291z M117.576,118.686
		c1.81,4.04,4.69,9.059,8.432,10.992c-0.229,0.072-0.492,0.121-0.767,0.112c-0.03-0.001-0.059,0.002-0.087,0.005
		c-4.225-0.602-6.802-2.419-7.658-5.404c-0.046-0.167-0.17-0.301-0.332-0.36c-0.457-0.172-0.888-0.332-1.292-0.483
		c-4.455-1.657-5.798-2.156-7.748-5.278c-0.159-0.256-0.497-0.332-0.751-0.173c-0.256,0.159-0.333,0.496-0.173,0.75
		c2.145,3.438,3.819,4.06,8.292,5.724c0.33,0.122,0.675,0.251,1.039,0.386c1.045,3.245,3.842,5.227,8.322,5.897
		c0.54,1.231,1.708,3.136,3.198,4.423c-0.164,0.027-0.334,0.048-0.5,0.064c-0.058-0.017-0.118-0.025-0.18-0.021
		c-3.036,0.153-6.798-1.899-10.038-5.487c-0.078-0.088-0.182-0.146-0.296-0.169c-3.035-0.617-5.803-1.363-8.953-4.268
		c-0.221-0.204-0.566-0.191-0.771,0.031c-0.205,0.22-0.189,0.565,0.032,0.77c3.294,3.039,6.169,3.855,9.299,4.5
		c3.134,3.427,6.631,5.455,9.768,5.696c0.684,1.291,3.166,2.971,4.701,3.715c-0.201,0.121-0.433,0.238-0.669,0.336
		c-4.547,0.757-10.673-1.101-13.283-5.617c-0.092-0.159-0.256-0.262-0.439-0.273c-2.603-0.158-5.38-1.342-8.035-3.426
		c-0.236-0.187-0.58-0.146-0.766,0.092c-0.186,0.237-0.145,0.58,0.093,0.766c2.732,2.146,5.612,3.399,8.352,3.637
		c2.498,4.057,7.605,6.075,12.056,6.075c0.529,0,1.048-0.029,1.552-0.087c0.83,0.821,2.246,2.193,4.492,3.39
		c-2.765,1.032-9.601,1.65-14.337-2.014c-0.241-0.185-0.583-0.141-0.767,0.097c-0.093,0.121-0.128,0.269-0.109,0.408
		c-0.009,0.053-0.013,0.107-0.005,0.164c0.375,2.722-1.096,5.482-1.575,6.295c-0.037,0.027-0.072,0.059-0.102,0.097l-0.137,0.173
		c-1.079,1.364-2.641,3.342-5.4,4.308c0.479-0.92,1.083-2.437,1.1-4.643c2.867-3.03,3.88-6.147,3.379-10.398
		c-0.036-0.299-0.306-0.51-0.606-0.478c-0.298,0.035-0.512,0.307-0.478,0.606c0.462,3.919-0.478,6.786-3.138,9.575
		c-0.025,0.016-0.049,0.034-0.072,0.056c-0.474,0.443-0.698,0.578-1.05,0.645c0.35-3.182,0.958-9.671-7.34-19.267
		c-0.068-0.117-0.179-0.208-0.316-0.25c-0.23-0.073-0.48,0.021-0.616,0.216c-0.083,0.122-0.111,0.267-0.088,0.406
		c0.025,7.909,1.466,14.836,4.402,21.131c-1.514-0.355-2.027-0.734-3.548-1.934c-0.178-0.14-0.424-0.156-0.617-0.039
		c-0.194,0.116-0.297,0.34-0.258,0.563c0.854,4.839,3.09,8.567,5.832,9.729c1.422,0.604,2.92,0.507,4.371-0.27
		c0.554,2.092,0.006,4.063-1.521,5.365c-1.806,1.54-4.487,1.728-6.926,0.517c-0.045-0.05-0.101-0.092-0.165-0.121
		c-1.492-0.702-3.579-2.711-4.294-4.131c-0.064-0.126-0.17-0.215-0.292-0.263c0.283-1.188,0.523-2.451,0.721-3.79
		c1.538,3.343,3.635,5.313,8.255,5.59c0.012,0,0.022,0,0.033,0c0.287,0,0.528-0.223,0.544-0.512c0.017-0.302-0.211-0.56-0.512-0.577
		c-4.765-0.284-6.417-2.398-7.951-6.456c-0.023-0.062-0.058-0.114-0.099-0.162c0.31-2.841,0.451-5.992,0.423-9.474
		c-0.001-0.301-0.257-0.544-0.55-0.541c-0.3,0.003-0.543,0.248-0.54,0.551c0.072,9.641-1.137,16.677-3.694,21.463
		c-3.747-6.744-3.854-17.1-3.716-21.359c0.009-0.302-0.227-0.553-0.528-0.563c-0.302-0.023-0.554,0.226-0.563,0.527
		c-0.066,2.051-0.076,5.486,0.339,9.277c0,0.002-0.002,0.003-0.002,0.005c-1.787,4.718-3.919,6.478-8.149,6.728
		c-0.301,0.019-0.531,0.277-0.513,0.578c0.018,0.289,0.257,0.513,0.543,0.513c0.012,0,0.022-0.001,0.034-0.001
		c4.566-0.271,6.808-2.419,8.365-5.682c0.212,1.409,0.489,2.84,0.848,4.243c-0.202-0.011-0.4,0.089-0.505,0.276
		c-0.515,0.923-1.576,2.195-2.639,3.169c-0.181,0.167-0.359,0.319-0.532,0.461c-0.061,0.01-0.121,0.03-0.177,0.062
		c-2.529,1.416-5.388,1.289-7.285-0.328c-1.527-1.303-2.073-3.273-1.521-5.365c1.436,0.77,2.912,0.869,4.3,0.28
		c2.723-1.153,4.872-4.795,5.745-9.74c0.041-0.223-0.063-0.447-0.257-0.563s-0.44-0.099-0.618,0.041
		c-1.514,1.198-2.027,1.577-3.544,1.933c3.011-6.447,4.543-13.609,4.557-21.306c0-0.229-0.141-0.43-0.354-0.51
		c-0.212-0.08-0.454-0.02-0.603,0.15c-8.372,9.63-7.777,16.379-7.41,19.418c-0.351-0.063-0.578-0.199-1.071-0.644
		c-0.013-0.013-0.027-0.022-0.041-0.033c-2.671-2.79-3.614-5.659-3.15-9.588c0.036-0.3-0.178-0.571-0.478-0.606
		c-0.298-0.032-0.569,0.179-0.605,0.478c-0.501,4.249,0.506,7.366,3.367,10.389c0.042,2.216,0.648,3.732,1.127,4.65
		c-2.799-0.949-4.357-2.941-5.43-4.314l-0.117-0.149c-0.031-0.04-0.068-0.073-0.107-0.102c-0.473-0.8-1.958-3.58-1.582-6.305
		c0.007-0.049,0.005-0.096-0.001-0.143c0.026-0.146-0.005-0.303-0.104-0.43c-0.184-0.237-0.526-0.281-0.765-0.097
		c-2.612,2.021-5.86,2.738-8.712,2.803c-0.045-0.004-0.089-0.003-0.133,0.004c-2.268,0.036-4.273-0.338-5.489-0.793
		c2.333-1.242,3.778-2.678,4.618-3.513c0.011-0.011,0.021-0.022,0.03-0.034c0.464,0.047,0.941,0.07,1.424,0.07
		c4.363,0,9.361-1.883,11.889-6c2.73-0.234,5.61-1.488,8.347-3.632c0.238-0.187,0.278-0.529,0.092-0.767
		c-0.185-0.238-0.529-0.278-0.765-0.092c-2.659,2.083-5.435,3.267-8.03,3.423c-0.183,0.012-0.348,0.113-0.44,0.271
		c-2.724,4.719-8.975,6.351-13.475,5.488c-0.053-0.01-0.105-0.01-0.156-0.004c-0.063-0.034-0.125-0.068-0.184-0.104
		c1.579-0.765,4.161-2.519,4.758-3.821c2.99-0.396,6.266-2.368,9.219-5.59c3.126-0.645,6-1.461,9.296-4.5
		c0.222-0.203,0.236-0.55,0.031-0.77c-0.204-0.222-0.55-0.237-0.771-0.032c-3.152,2.905-5.917,3.651-8.95,4.269
		c-0.115,0.022-0.218,0.081-0.296,0.167c-3.257,3.606-6.882,5.576-9.956,5.433c-0.069-0.007-0.136,0.003-0.199,0.023
		c-0.024-0.004-0.048-0.007-0.072-0.011c1.507-1.299,2.683-3.227,3.214-4.456c4.222-0.716,6.783-2.636,7.812-5.859
		c0.367-0.137,0.716-0.269,1.049-0.393c4.469-1.665,6.141-2.288,8.279-5.722c0.16-0.256,0.083-0.591-0.174-0.75
		c-0.256-0.159-0.592-0.082-0.751,0.174c-1.943,3.119-3.287,3.619-7.734,5.277c-0.41,0.151-0.844,0.312-1.306,0.486
		c-0.161,0.062-0.283,0.194-0.332,0.36c-0.861,3.006-3.253,4.772-7.306,5.396c-0.259,0.001-0.496-0.044-0.707-0.111
		c3.739-1.932,6.621-6.952,8.43-10.992c3.648-8.146,4.917-8.986,12.157-7.844c0.134,0.483,0.273,0.972,0.414,1.465
		c1.046,3.672,2.129,7.469,2.095,12.362c-0.04,5.07,2.85,14.742,5.48,18.446l0.191,17.519c0.002,0.3,0.247,0.538,0.545,0.538
		c0.002,0,0.004,0,0.006,0c0.301-0.001,0.542-0.249,0.539-0.551l-0.191-17.433c3.113-4.701,5.365-12.661,5.248-18.576
		c-0.095-5.018,0.993-8.061,2.253-11.585c0.253-0.708,0.509-1.425,0.763-2.172C112.654,109.692,113.918,110.506,117.576,118.686z
		 M107.636,105.058c0.27-0.734,0.523-1.583,0.744-2.462c1.163,0.34,2.379,0.488,3.58,0.488c3.281,0,6.434-1.1,7.979-2.359
		c0.676,0.395,1.374,0.671,2.082,0.837C119.79,103.965,114.181,107.283,107.636,105.058z M127.599,123.292
		c-2.226-0.928-8.005-7.737-8.922-18.014c2.147-1.058,3.768-2.443,4.624-3.536c2.312,0.106,4.631-0.947,6.495-3.071
		c4.198,0.434,8.317,0.083,10.407-4.771c7.112-0.623,8.441-3.404,9.552-9.476c1.868-0.994,3.273-2.755,3.878-4.872
		c0.683-2.384,0.303-4.993-1.068-7.396c2.535-1.856,3.934-4.504,3.763-7.17c-0.16-2.486-1.67-4.667-4.166-6.044
		c1.041-3.158,0.479-6.049-1.571-7.989c-2.037-1.924-5.184-2.549-7.8-1.586c-2.672-3.291-6.473-3.859-8.93-2.681
		c-2.526,1.211-3.589,3.958-2.916,7.43c-0.027-0.001-0.059-0.001-0.088-0.001c-1.733,0-3.259,0.765-4.364,2.205
		c-1.499,1.958-1.871,4.768-0.925,6.991c0.791,1.86,2.384,3.087,4.527,3.503c-0.389,1.02-1.01,1.394-2.313,1.909
		c-0.051,0.001-0.102,0.008-0.152,0.024c-2.231,0.727-5.739-0.104-7.848-3.077c-1.767-2.49-4.677-9.854,6.431-24.401
		c5.939-7.774,23.846-21.469,38.769-21.588c-0.359,1.639-2.365,6.988-7.11,12.454c-0.048,0.016-0.097,0.037-0.141,0.068
		c-3.338,2.328-5.89,4.479-9.321,8.739c0.031-1.929-0.257-3.897-0.715-6.066c-0.055-0.261-0.306-0.449-0.555-0.433
		c-10.693,0.436-16.557,11.243-17.263,14.262c-0.068,0.293,0.114,0.587,0.407,0.656c0.294,0.069,0.587-0.114,0.655-0.407
		c0.654-2.797,6.015-12.699,15.784-13.395c0.848,4.188,0.973,7.427-0.718,11.269c-0.108,0.248-0.02,0.537,0.207,0.681
		c0.226,0.144,0.526,0.101,0.704-0.102c3.065-3.503,7.079-4.755,12.979-4.036c0.549,5.458-3.014,10.535-6.301,13.27
		c-0.22,0.181-0.261,0.5-0.099,0.732c0.164,0.232,0.478,0.301,0.722,0.157c4.354-2.548,9.708-2.898,14.41-0.958
		c-1.292,6.538-6.385,9.058-11.716,10.798c-0.262,0.085-0.418,0.354-0.364,0.625c0.054,0.271,0.299,0.463,0.577,0.438
		c4.332-0.33,11.07,3.492,14.209,7.105c-0.779,1.324-2.084,2.425-3.684,3.243c-0.072,0.02-0.138,0.054-0.196,0.099
		c-3.538,1.732-8.431,2.109-12.254,0.513c-0.279-0.116-0.595,0.015-0.713,0.291c-0.115,0.274,0.012,0.595,0.287,0.713
		c4.422,1.91,9.001,7.668,10.084,12.566c-0.035,0.044-0.064,0.094-0.084,0.15c-0.018,0.049-0.025,0.099-0.028,0.148
		c-3.722,0.788-10.373,2.114-15.202-2.067c-0.122-0.119-0.248-0.232-0.376-0.34c-0.227-0.19-0.562-0.167-0.759,0.054
		c-0.195,0.221-0.182,0.558,0.033,0.761c0.122,0.114,0.245,0.223,0.367,0.331c3.16,3.072,4.612,10.322,4.236,15.985
		c-0.95,0.093-1.989-0.01-3.063-0.271c-0.051-0.021-0.104-0.034-0.16-0.039c-4.167-1.073-8.841-4.54-11.035-8.612
		c-0.14-0.26-0.461-0.36-0.726-0.229c-0.264,0.134-0.374,0.453-0.248,0.721c3.183,6.733-0.073,12.199-2.228,15.815
		c-0.239,0.402-0.468,0.787-0.668,1.144c-1.245-0.491-2.337-1.125-3.297-1.854c-0.061-0.086-0.146-0.154-0.249-0.193
		c-4.28-3.404-5.79-8.688-6.281-11.177c-0.06-0.296-0.346-0.489-0.642-0.429c-0.295,0.058-0.488,0.346-0.429,0.641
		c0.516,2.604,2.088,8.096,6.545,11.718c-0.675,3.038-1.065,4.451-1.762,6.397c-0.019,0.023-0.037,0.049-0.051,0.077l-0.076,0.145
		C128.44,122.282,128.202,122.737,127.599,123.292z M130.766,125.419c-0.318-1.221-0.619-2.377-0.947-3.414
		c0.682-1.899,1.075-3.292,1.698-6.067c0.896,0.616,1.893,1.156,3.004,1.594c0.77,4.297,1.299,8.143,1.725,11.238
		c0.6,4.354,1.038,7.548,1.769,9.489C133.56,136.168,132.021,130.251,130.766,125.419z M150.651,150.234
		c-5.269-3.7-12.024-15.357-14.907-32.971c0.216-0.396,0.479-0.834,0.774-1.333c1.779-2.984,4.555-7.646,3.45-13.313
		c2.519,2.847,6.05,5.104,9.349,6.032c1.453,5.752,2.4,12.514,3.164,17.964c0.005,0.036,0.014,0.069,0.024,0.103
		C153.049,130.098,153.135,145.318,150.651,150.234z M159.886,122.262c5.24,9.23,9.066,15.689,11.944,17.384
		c-3.808,1.915-8.712-1.276-10.634-3.297c-2.183-2.308-4.76-5.699-7.663-10.085c-0.737-5.271-1.649-11.723-3.024-17.338
		c0.447,0.082,0.887,0.138,1.316,0.163c0.644,0.99,1.317,1.996,2.019,3.008C155.616,114.739,157.69,118.394,159.886,122.262z
		 M190.651,105.009c0.304,0,0.6-0.017,0.892-0.049c-0.893,1.763-2.103,3.509-4.321,4.223c-3.507,1.128-8.943-0.43-16.613-4.767
		c-0.034-0.019-0.068-0.034-0.104-0.045c-1.98-2.932-4.259-5.894-6.844-8.893c-0.195-0.227-0.541-0.253-0.768-0.057
		c-0.229,0.197-0.254,0.542-0.058,0.77c11.32,13.143,16.722,25.508,16.502,37.787c-8.625-1.36-20.254-15.867-26.218-24.905
		c0.176-0.017,0.351-0.036,0.521-0.064c0.248-0.041,0.434-0.245,0.455-0.493c0.399-4.727-0.44-10.745-2.643-14.747
		c4.849,2.398,10.425,1.218,13.689,0.527l0.464-0.099c0.073-0.016,0.138-0.044,0.196-0.083c3.154,1.289,6.479,3.11,9.699,4.876
		C181.125,102.072,186.482,105.009,190.651,105.009z M165.971,92.959c-0.833-4.142-3.943-8.771-7.565-11.612
		c3.227,0.41,6.672-0.165,9.423-1.479c2.258,0.342,5.028,1.385,7.478,2.307c0.693,0.26,1.353,0.509,1.965,0.728
		c0.029,0.021,0.059,0.04,0.092,0.055c7.708,3.601,12.22,7.43,14.94,12.715C187.535,98.378,178.905,97.487,165.971,92.959z"/>
	<path fill="#333333" d="M185.238,92.657c-3.525-1.621-5.963-2.844-8.114-3.922c-4.105-2.06-7.072-3.548-14.238-6.101
		c-0.285-0.1-0.595,0.047-0.696,0.332c-0.102,0.283,0.047,0.596,0.331,0.697c7.102,2.53,10.043,4.006,14.114,6.047
		c2.158,1.083,4.604,2.309,8.147,3.938c0.073,0.035,0.151,0.05,0.228,0.05c0.206,0,0.402-0.117,0.495-0.316
		C185.631,93.107,185.512,92.783,185.238,92.657z"/>
	<path fill="#333333" d="M158.538,41.616c0.092,0.059,0.194,0.088,0.297,0.088c0.178,0,0.353-0.088,0.457-0.249
		c2.357-3.628,6.989-8.142,11.26-10.978c0.25-0.166,0.319-0.504,0.153-0.755c-0.167-0.251-0.504-0.32-0.756-0.153
		c-4.383,2.909-9.142,7.551-11.573,11.292C158.213,41.114,158.285,41.452,158.538,41.616z"/>
	<path fill="#333333" d="M30.755,83.663c0.285-0.101,0.432-0.414,0.332-0.697c-0.102-0.285-0.415-0.433-0.697-0.332
		c-7.164,2.552-10.128,4.04-14.234,6.097c-2.153,1.08-4.593,2.302-8.122,3.925c-0.274,0.126-0.395,0.45-0.269,0.725
		c0.093,0.2,0.289,0.316,0.497,0.316c0.075,0,0.154-0.015,0.228-0.05c3.546-1.63,5.995-2.857,8.155-3.94
		C20.715,87.667,23.656,86.192,30.755,83.663z"/>
	<path fill="#333333" d="M169.811,54.826c0.108,0.125,0.259,0.19,0.413,0.19c0.125,0,0.253-0.043,0.355-0.132
		c3.551-3.051,5.027-3.964,9.322-6.249c0.267-0.142,0.367-0.472,0.225-0.738c-0.141-0.266-0.473-0.367-0.738-0.226
		c-4.379,2.331-5.887,3.263-9.521,6.385C169.64,54.253,169.615,54.597,169.811,54.826z"/>
	<path fill="#333333" d="M165.805,68.682c0.034,0.276,0.268,0.479,0.541,0.479c0.021,0,0.044-0.002,0.065-0.003
		c8.062-0.967,12.21-1.257,20.903-0.212c0.296,0.032,0.571-0.178,0.606-0.478c0.036-0.299-0.178-0.57-0.478-0.607
		c-8.768-1.053-13.182-0.744-21.161,0.212C165.982,68.11,165.769,68.381,165.805,68.682z"/>
	<path fill="#333333" d="M88.421,18.759h16.582c0.302,0,0.545-0.245,0.545-0.545c0-0.301-0.243-0.545-0.545-0.545H88.421
		c-0.301,0-0.545,0.244-0.545,0.545C87.876,18.514,88.12,18.759,88.421,18.759z"/>
	<path fill="#333333" d="M85.951,28.232c-1.183-0.846-2.703-1.197-4.169-0.962c-0.297,0.047-0.5,0.327-0.452,0.624
		c0.047,0.298,0.322,0.5,0.625,0.453c1.169-0.186,2.425,0.103,3.362,0.773c0.096,0.069,0.207,0.102,0.316,0.102
		c0.17,0,0.338-0.08,0.444-0.229C86.253,28.749,86.196,28.408,85.951,28.232z"/>
	<path fill="#333333" d="M101.123,169.584c-0.147-0.264-0.48-0.357-0.742-0.21c-0.252,0.141-0.347,0.453-0.224,0.71
		c0,0.006-0.001,0.01-0.001,0.015c0.051,6.271-0.322,14.071-3.576,19.491c-3.978-6.144-3.973-16.437-3.872-19.532
		c0.003-0.087-0.016-0.168-0.049-0.242c-0.033-0.146-0.124-0.277-0.263-0.356c-0.263-0.146-0.596-0.055-0.743,0.209
		c-3.101,5.544-9.833,8.291-14.176,7.379c-2.295-0.482-3.672-1.917-3.876-4.041c-0.029-0.299-0.299-0.518-0.595-0.491
		c-0.3,0.029-0.521,0.297-0.491,0.596c0.25,2.601,1.977,4.425,4.738,5.005c0.626,0.131,1.296,0.196,1.996,0.196
		c4.087,0,9.182-2.231,12.344-6.54c0.002,2.445,0.165,6.251,0.952,10.096c-0.138,0.044-0.257,0.14-0.325,0.28
		c-4.455,9.26-11.169,12.157-15.849,10.922c-2.915-0.769-4.604-3.021-4.41-5.882c0.021-0.301-0.207-0.562-0.507-0.58
		c-0.314-0.021-0.562,0.207-0.582,0.507c-0.228,3.362,1.822,6.112,5.221,7.012c0.756,0.198,1.559,0.302,2.395,0.302
		c4.681,0,10.368-3.256,14.379-11.129c0.667,2.694,1.671,5.325,3.174,7.435l0.166,12.388c0.005,0.298,0.248,0.538,0.546,0.538
		c0.001,0,0.004,0,0.007,0c0.301-0.004,0.542-0.252,0.539-0.553l-0.165-12.352c1.405-2.13,2.344-4.59,2.965-7.208
		c4.09,7.563,9.967,10.696,14.703,10.695c0.875,0,1.711-0.107,2.491-0.313c3.38-0.894,5.419-3.569,5.198-6.815
		c-0.02-0.302-0.284-0.528-0.581-0.507c-0.301,0.019-0.528,0.279-0.507,0.58c0.188,2.743-1.495,4.921-4.389,5.687
		c-4.791,1.267-12.009-1.647-16.559-11.023c0.604-3.29,0.776-6.762,0.794-10.092c3.176,4.199,8.455,6.507,12.709,6.507
		c0.729,0,1.429-0.069,2.081-0.205c2.802-0.59,4.551-2.4,4.796-4.97c0.03-0.3-0.191-0.566-0.491-0.595
		c-0.295-0.025-0.566,0.19-0.594,0.49c-0.271,2.823-2.582,3.722-3.936,4.007C111.254,177.954,104.267,175.205,101.123,169.584z"/>
	<path fill="#333333" d="M118.891,181.847c-0.132-0.065-0.285-0.075-0.424-0.025c-0.082-0.011-0.167-0.004-0.251,0.026
		c-0.693,0.25-1.406,0.414-2.127,0.506c-0.389,0.039-0.785,0.063-1.188,0.063c-3.265,0-6.862-1.353-9.621-3.617
		c-0.132-0.109-0.307-0.146-0.468-0.108c-0.142-0.033-0.294-0.01-0.422,0.072c-0.199,0.129-0.292,0.371-0.23,0.601
		c1.473,5.447,4.658,9.286,8.516,10.269c0.572,0.146,1.136,0.217,1.68,0.217c0.194,0,0.386-0.01,0.575-0.028
		c1.535-0.085,2.829-0.744,3.669-1.875c1.059-1.43,1.261-3.479,0.569-5.77C119.125,182.035,119.025,181.916,118.891,181.847z
		 M114.588,188.741c-0.001,0-0.002,0-0.002,0c-2.94,0-6.565-2.457-8.56-7.886c2.835,1.789,6.521,2.995,10.057,2.596
		c0.672-0.064,1.326-0.182,1.955-0.354c0.455,1.912,0.171,3.512-0.816,4.545c-0.601,0.63-1.441,1.003-2.397,1.094
		C114.747,188.739,114.668,188.741,114.588,188.741z"/>
	<path fill="#333333" d="M53.101,172.361c0.074,0.232,0.289,0.383,0.521,0.383c0.054,0,0.11-0.008,0.164-0.025
		c0.288-0.091,0.447-0.396,0.356-0.684c-0.544-1.736,1.59-4.127,5.127-8.086c2.65-2.964,5.936-6.641,9.574-11.655
		c-0.146-0.021-0.28-0.098-0.37-0.221c-0.12-0.168-0.235-0.392-0.343-0.653c-3.674,5.089-7,8.812-9.674,11.804
		C54.661,167.47,52.37,170.033,53.101,172.361z"/>
	<path fill="#333333" d="M96.662,113.806c-0.301,0-0.545,0.244-0.545,0.546l-0.008,17.396c0,0.301,0.244,0.546,0.545,0.546
		c0.001,0,0.001,0,0.001,0c0.301,0,0.545-0.245,0.545-0.545l0.008-17.396C97.208,114.051,96.964,113.806,96.662,113.806z"/>
	<path fill="#333333" d="M38.432,97.516c-0.251-0.165-0.59-0.097-0.756,0.155L20.371,123.85c-0.166,0.252-0.097,0.59,0.154,0.756
		c0.092,0.062,0.196,0.091,0.3,0.091c0.177,0,0.35-0.087,0.456-0.244l17.305-26.181C38.752,98.021,38.684,97.682,38.432,97.516z"/>
	<path fill="#333333" d="M23.044,55.016c0.154,0,0.307-0.065,0.415-0.19c0.196-0.229,0.169-0.573-0.059-0.77
		c-3.635-3.123-5.141-4.055-9.512-6.385c-0.266-0.141-0.597-0.041-0.739,0.226c-0.141,0.266-0.041,0.596,0.225,0.738
		c4.289,2.285,5.764,3.197,9.315,6.249C22.793,54.973,22.919,55.016,23.044,55.016z"/>
	<path fill="#333333" d="M101.502,28.216c0.224,0,0.435-0.139,0.514-0.363c0.101-0.285-0.048-0.596-0.332-0.697
		c-3.546-1.256-7.006-2.364-9.757-3.121c-1.028-0.251-2.309-0.564-3.106,0.767c-0.156,0.259-0.073,0.593,0.187,0.749
		c0.258,0.155,0.593,0.071,0.748-0.188c0.318-0.528,0.658-0.576,1.897-0.272c0.081,0.022,0.164,0.045,0.246,0.068
		c-0.562,1.468-0.408,2.923,0.446,4.046c0.7,0.921,1.758,1.445,2.857,1.445c0.197,0,0.396-0.017,0.593-0.051
		c0.865-0.151,2.404-0.769,3.309-3.185c0.731,0.249,1.471,0.505,2.216,0.77C101.38,28.206,101.441,28.216,101.502,28.216z
		 M95.607,29.525c-0.897,0.155-1.818-0.219-2.395-0.98c-0.633-0.833-0.724-1.946-0.262-3.085c0.185,0.054,0.373,0.109,0.562,0.165
		c-0.506,0.859-0.521,1.708-0.044,2.524c0.102,0.174,0.285,0.271,0.472,0.271c0.094,0,0.188-0.026,0.275-0.075
		c0.26-0.152,0.347-0.487,0.195-0.747c-0.198-0.337-0.346-0.771,0.048-1.43c0.044-0.075,0.066-0.155,0.074-0.235
		c1.121,0.344,2.309,0.725,3.535,1.133C97.53,28.472,96.667,29.341,95.607,29.525z"/>
	<path fill="#333333" d="M34.488,41.804c0.102,0,0.205-0.029,0.297-0.088c0.251-0.165,0.323-0.502,0.16-0.754
		c-2.429-3.736-7.183-8.381-11.563-11.295c-0.251-0.167-0.589-0.099-0.757,0.153c-0.167,0.25-0.098,0.589,0.152,0.756
		c4.269,2.841,8.896,7.356,11.254,10.98C34.135,41.716,34.31,41.804,34.488,41.804z"/>
	<path fill="#333333" d="M148.057,33.624c0.1,0.078,0.217,0.116,0.335,0.116c0.163,0,0.323-0.072,0.43-0.209
		c2.793-3.565,4.771-4.965,8.71-7.756c0.777-0.55,1.628-1.153,2.576-1.835c0.245-0.177,0.299-0.518,0.124-0.762
		c-0.177-0.245-0.517-0.299-0.762-0.124c-0.945,0.681-1.794,1.282-2.569,1.831c-4.025,2.851-6.046,4.282-8.938,7.973
		C147.779,33.095,147.82,33.438,148.057,33.624z"/>
	<path fill="#333333" d="M80.464,189.631c3.859-0.983,7.043-4.822,8.513-10.268c0.063-0.229-0.031-0.472-0.23-0.601
		c-0.2-0.128-0.458-0.114-0.642,0.036c-3.287,2.696-8.639,4.682-13.187,3.049c-0.244-0.09-0.51,0.01-0.644,0.22
		c-0.031,0.045-0.054,0.094-0.072,0.149c-0.774,2.553-0.447,4.748,0.92,6.177c0.909,0.951,2.212,1.455,3.659,1.455
		C79.327,189.849,79.892,189.778,80.464,189.631z M75.912,187.64c-0.995-1.04-1.274-2.655-0.807-4.583
		c4.22,1.258,8.944-0.169,12.331-2.411c-1.501,4.221-4.138,7.139-7.241,7.93C78.49,189.01,76.887,188.661,75.912,187.64z"/>
	<path fill="#333333" d="M36.346,24.875c-0.773-0.547-1.621-1.148-2.564-1.828c-0.243-0.175-0.584-0.12-0.761,0.125
		c-0.176,0.244-0.121,0.584,0.123,0.761c0.944,0.681,1.796,1.284,2.571,1.833c3.943,2.792,5.92,4.192,8.715,7.76
		c0.108,0.136,0.269,0.208,0.43,0.208c0.118,0,0.237-0.038,0.336-0.116c0.237-0.186,0.278-0.529,0.093-0.766
		C42.396,29.16,40.375,27.729,36.346,24.875z"/>
</g>
<path fill="#333333" d="M293.42,15.971h9.553v6.937h-9.553V15.971z"/>
<path fill="#333333" d="M341.693,15.971h9.553v6.937h-9.553V15.971z"/>
</svg>
