<?xml version="1.0" encoding="utf-8"?>
<!-- Generator: Adobe Illustrator 16.0.0, SVG Export Plug-In . SVG Version: 6.00 Build 0)  -->
<!DOCTYPE svg PUBLIC "-//W3C//DTD SVG 1.1//EN" "http://www.w3.org/Graphics/SVG/1.1/DTD/svg11.dtd">
<svg version="1.1" id="Layer_1" xmlns="http://www.w3.org/2000/svg" xmlns:xlink="http://www.w3.org/1999/xlink" x="0px" y="0px"
	 width="371.627px" height="441.543px" viewBox="0 0 371.627 441.543" enable-background="new 0 0 371.627 441.543"
	 xml:space="preserve">
<path fill="#333333" d="M170.311,355.826c-0.15-1.529-2.184-1.246-2.402-2.773c0.132-2.035-2.249-2.621-2.994-4.154
	c-1.55-1.049-3.147-2.141-4.522-3.496c-1.225-1.795-2.929-2.732-4.196-4.459c-0.634-0.785-0.306-1.988-1.246-2.578
	c-1.224-0.416-2.119-1.748-3.212-2.404c-1.421,0.09-2.994-0.482-3.606-1.834c0.24-1.553-0.284-2.885-1.114-4.043
	c-0.546-3.125-2.6-5.615-3.453-8.609c-1.181-1.729-1.944-3.652-2.579-5.617l-2.098-2.252c-1.158-1.441-1.923-3.125-2.557-4.83
	c-0.612-2.799-3.497-4.654-3.999-7.494c-0.655-3.301-2.646-6.033-3.191-9.377c-0.35-3.014-2.031-5.484-2.883-8.305
	c-0.613-1.857-0.396-4.086-0.309-6.119c-0.348-1.268-1.354-2.227-1.375-3.625c-1.335-2.121-1.617-4.678-2.557-6.973
	c0.063-1.836-1.924-2.818-2.164-4.525c0.021-1.9-1.726-3.08-1.421-5.135c-0.764-1.617-1.595-3.213-2.251-4.873
	c-1.332-1.201-1.311-3.037-1.618-4.721c-0.501-1.617-0.436-3.475-1.463-4.873c-0.437-1.377-0.239-2.994-0.59-4.414
	c0-1.465-0.787-2.623-0.722-4.131c-0.503-1.27-0.263-2.557-0.524-3.934c-0.027-0.529-1.566-4.611-1.313-5.006
	c0.251-0.398-0.19-0.697,0.012-1.111c-0.454-0.914-0.508-1.988-0.849-2.955c-0.473-0.365-0.353-1.027-0.694-1.508
	c-0.091-0.73-0.498-1.314-0.491-2.076c-0.477-0.4-0.535-1.029-0.579-1.625c-0.293-0.369-0.122-0.963-0.517-1.246
	c-0.208-0.846-0.826-1.549-1.034-2.393c-0.406-0.553-0.601-1.066-1.059-1.633c-1.15-0.541-1.791-1.277-2.842-2.066
	c-0.206-0.682-1.234-0.707-1.291-1.52c-1.031-1.002-2.468-1.314-3.229-2.695c0.068-0.314-0.078-0.664-0.307-0.863
	c-0.21-0.533,0.388-0.709,0.359-1.189c-0.327-0.531-0.006-1.076-0.099-1.639c0.469-0.475,0.87-1.047,1.061-1.691
	c0.614-0.492,0.245-1.404,0.73-2.012c-0.01-0.563,0.192-0.926,0.213-1.471c0.063-0.994,0.467-1.85,1.054-2.621
	c0.269-0.244,0.022-0.561-0.073-0.826c-0.312-0.367-0.857-0.309-1.336-0.377c-0.251,0.178-0.334,0.389-0.289,0.672
	c-0.075,0.848-1.233,0.883-1.405,1.576c-0.685,0.541-0.33,1.518-0.818,2.143c-0.962,0.42-0.878,1.775-1.497,2.596
	c-0.354,0.662-0.857,1.283-0.851,2.096c-0.201,0.248,0.045,0.664-0.207,0.875c0.074,0.76-0.476,1.283-0.729,1.861
	c0.08,0.133-0.203,0.361,0.06,0.479c-0.252,0.547,0.089,1.045,0.315,1.512c-0.138,0.643,0.554,1.063,0.729,1.561
	c1.021,0.525,1.885,1.775,2.922,2.363c0.836,0.721,1.557,1.324,2.194,2.209c0.903,0.521,0.943,1.465,1.682,2.201
	c1.517,0.559,1.748,2.119,2.347,3.398c0.19,0.861,0.728,1.594,0.768,2.506c0.708,0.506,0.118,1.439,0.742,1.992
	c0.012,0.498,0.372,0.732,0.35,1.246l-0.082,0.465c-0.148-0.057-0.301-0.111-0.457-0.154c-0.917-0.699-2.294-0.283-3.256,0.045
	c-1.18,0.393-2.055-0.635-3.147-0.787c-1.574,0.393-3.036-0.176-4.655,0c-0.479-0.176-0.916-0.438-1.42-0.568
	c-1.114,0.828-1.944,2.359-3.409,2.623c-1.201,0.873-2.817,0.918-4.304,1.201c-0.897,0.568-1.989,0.656-3.082,0.742
	c-1.749,0.701-4.021,0.088-5.77,0.723c-1.486,1.857-3.693,2.207-6.031,2.053c-1.398,0.283-2.886,0.328-4.372,0.373
	c-1.463,0.393-2.578,1.746-4.021,2.205c-1.049,0.611-0.394,1.947-1.312,2.623c-1.922,0.723-1.747,2.885-2.688,4.283
	c-0.306,2.055,0.569,3.695,0.262,5.684c0.241,1.443,0.722,2.818,1.312,4.129c0.197,0.787,0.722,1.574,0.371,2.471
	c-0.437,1.246,0.548,2.229,0.371,3.451c-0.392,0.352-0.086,0.984-0.479,1.313c-0.022,0.547-0.283,0.984-0.415,1.463
	c-0.022,0.658-0.371,1.182-0.306,1.838c0.262,1.529,0.917,2.883,1.2,4.414c0.417,0.633,0.832,1.266,1.247,1.881
	c0.021,1.42,0.568,2.619,0.699,3.998c0.918,1.025-0.35,1.922-0.699,2.818c0.176,2.645,2.426,4.436,3.059,6.883
	c1.989,2.295,3.082,4.961,4.131,7.65c0.984,3.627,2.818,6.926,4.457,10.293c1.771,3.211,3.891,6.271,5.662,9.484
	c0.83,1.791,2.207,3.342,2.469,5.354c-1.07,1.639,1.421,2.207,1.53,3.605l-0.219,1.529c0.044,1.465,1.333,2.492,2.055,3.563
	c1.026,1.881,1.683,3.934,3.409,5.465c0.765,2.598,3.758,4.041,4.916,6.447c1.881,2.84,3.804,5.637,5.616,8.502
	c0.743,1.045,2.143,1.834,2.361,3.08c3.321,4.5,7.888,7.539,11.057,12.172c4.064,5.266,9.551,9.025,14.009,14.051
	c3.3,3.061,6.797,5.791,9.179,9.441c0.874,1.244,2.12,2.055,2.95,3.301c0.24,1.178,1.049,2.447,2.294,2.73
	c1.333,1.18,3.476,0.371,5.136,0.678c0.897-0.307,1.29-1.375,1.574-2.184c0.219-1.795,2.119-2.471,3.365-3.41
	c1.639-1.094,3.628,0.59,5.2-0.635c0.176-0.523-0.13-1.049-0.108-1.531c0.066-0.5,0.809-0.959,0.371-1.42
	c-0.35-0.697-1.332-1.068-1.376-1.988c0.305-0.83,0.109-1.639,0.065-2.514c0.502-0.984,1.617-1.398,2.709-1.42
	c1.618,1.379,3.956-0.02,5.771,0.787c1.136-0.043,1.813,1.137,2.993,0.789c0.743-0.875,1.946-0.701,2.731-1.467
	c1.07-0.807,0.022-1.922-0.218-2.775c-0.066-1.377-0.938-2.402-0.983-3.779c-0.153-2.514,3.015-2.537,3.454-4.678
	C171.362,358.842,169.897,357.531,170.311,355.826z"/>
<path fill="#333333" d="M198.183,188.557c-0.297,0.066-0.274,0.408-0.319,0.66c0.068,0.229,0.344,0.275,0.548,0.32
	c0.136-0.092,0.364-0.229,0.272-0.436C198.547,188.896,198.524,188.533,198.183,188.557z"/>
<path fill="#FFFFFF" d="M140.634,324.504c1.42,1.375,1.223,3.43,2.098,5.025c0.283,0.764,0.699,1.441,0.831,2.25l0.152,0.111
	c-0.284,1.049,0.481,1.77,0.634,2.686c1.114,3.824,2.623,7.605,2.317,11.891c-0.7,1.789-0.94,4.195-3.147,4.893
	c-2.382-0.086-4.611-0.807-6.928-1.223c-1.377-0.414-2.316-1.881-3.716-2.252l-0.48,0.527c0.306,2.906,1.705,6.008,0.415,8.914
	c-0.939,1.246-2.512,1.201-3.562,2.316c-1.225,0.59-2.382-0.24-3.673-0.109c-1.834-0.654-3.561-1.639-5.462-2.16
	c-3.125-2.123-4.152-5.684-5.814-8.701l-1.091-2.885c-0.854-1.855-2.448-3.387-2.272-5.658c-0.482-0.875-1.837-1.729-0.983-2.844
	c0.568-0.852,1.572-1.682,2.62-1.396c1.684,1.465,1.837,3.758,3.083,5.508c1.682,2.84,2.119,6.184,4.195,8.85
	c1.05,1.574,2.579,2.887,3.999,4.195c0.853,0.307,2.164,0.371,2.995-0.043c0.809,0.043,1.376-0.611,1.726-1.266
	c0.087-3.238-0.132-6.143-0.262-9.289c-0.197-1.334-2.033-2.316-1.049-3.826c0-1.133-1.398-2.273-0.219-3.301
	c0.48-0.5,1.093-0.959,1.726-0.674c1.836,0.85,1.945,2.992,3.366,4.238c1.682,2.295,4.239,2.973,6.075,4.982
	c0.874,0.479,1.922,0.547,2.885,0.787c0.655-0.197,0.896-0.787,1.049-1.354c0.109-0.789-0.415-1.336-0.722-1.947
	c-0.918-2.557-0.503-5.682-1.572-8.174c-0.94-2.576-1.553-5.309-2.995-7.67c-0.24-0.896-0.698-2.164,0-2.994
	C137.989,322.031,139.475,324.045,140.634,324.504z"/>
<path fill="#FFFFFF" d="M123.758,296.531c0.046,0.273,0.183,0.525,0,0.775c0.434,1.186,0.866,2.533,1.528,3.719
	c1.301,5.543,4.402,11.152,2.417,17.244c-0.388,1.094-1.573,1.936-2.689,2.119c-2.943-0.023-6.501,0.686-8.965-0.82
	c-1.255-1.256-2.439-2.328-3.946-2.941l-0.159,0.16c0.662,2.096,0.251,4.561-0.707,6.41c-0.775,2.439-3.399,3.762-5.816,3.99
	c-2.257-0.184-4.015-1.506-6.181-1.916c-2.1-1.209-3.423-3.24-5.155-4.975c-0.434-0.818-0.41-1.869-0.866-2.689
	c0.365-1.963-0.639-3.51-0.548-5.43c0.159-0.477,0.502-1.025,1.049-1.184c0.775-0.344,1.438,0.295,2.075,0.707
	c0.959,1.025,0.435,2.689,0.662,4.035c0.593,2.441,1.757,4.789,3.878,6.479c2.006,0.363,3.444,2.461,5.747,1.801
	c2.029-0.41,2.714-2.646,3.443-4.219c0.138-3.672-1.414-6.818-1.847-10.355c-0.319-0.844-1.025-1.824-0.456-2.783
	c0.229-0.479,0.729-0.729,1.163-0.936c0.548-0.137,1.096,0.025,1.528,0.275c0.958,1.164,0.707,2.807,1.141,4.174
	c1.004,2.943,3.489,5.814,6.363,7.277c2.189,0.705,4.973,1,7.23,0.158c1.3-1.256,1.346-3.125,1.414-4.928
	c-0.57-4.014-1.14-8.051-2.691-11.654c-0.456-1.324-1.163-2.578-1.916-3.785c-0.182-0.549,0.046-1.211,0.616-1.414
	C122.755,295.598,123.394,295.939,123.758,296.531z"/>
<g>
	<path fill="#333333" d="M164.426,73.645c-0.364-0.525-1.208-1.025-1.277-1.756c-0.615-0.82-1.552-1.369-2.668-1.186
		c-0.959-0.775-2.121-1.188-3.011-1.984c-1.369,0.113-2.053-1.346-3.353-1.414c-1.255-0.641-2.624-1.025-4.197-0.936
		c-0.503-0.502-1.164-0.684-1.552-1.322c-0.501,0.41-1.3,0.205-1.846,0c-1.164-1.277-2.967-0.48-4.335-1.256
		c-2.007,0.092-3.353-1.391-5.314-1.482c-2.212-0.707-4.768-0.592-7.048-1.141c-3.992-1.527-8.622-1.551-13.024-2.074
		c-2.577-0.434-5.154-0.297-7.777-0.547c-1.3-0.48-2.919-0.162-4.174-0.707c-3.672-0.275-7.139-1.027-10.948-1.051
		c-0.57,0.229-1.231,0.229-1.916,0.229c-0.706-0.229-1.322-0.936-1.802-1.551c-1.277-0.57-1.825,1.004-2.941,1.004
		c-0.549,0.068-1.301-0.16-1.826,0.158c-1.483-0.615-3.169-0.227-4.744-0.113c-0.706-0.479-1.619,0.023-2.417-0.229
		c-1.346,0.549-2.873-0.615-4.265,0.184c-1.256,0.158-2.26-0.297-3.399-0.389c-0.661,0.547-1.346-0.137-2.03-0.158
		c-0.479-0.07-0.616,0.502-0.934,0.75c-0.504,0.162-0.982,0.686-1.574,0.344c-1.437,0.615-2.737-0.523-4.175,0.092
		c-0.89-0.139-2.007-1.414-2.737,0c-0.456,0.25-0.798-0.16-1.187-0.273c-0.41,0.455-0.957,0.66-1.209,1.209
		c-1.23,0.547-2.145,1.916-3.785,1.482c-0.708,0.273-0.434,1.025-0.662,1.527c-0.365,0.273-0.89,0.32-1.368,0.227
		c-0.067,0.275-0.479,0.504-0.479,0.869c0.64,0.957-0.569,1.369-0.821,2.143c-0.41,0.936,0.411,1.484,0.821,2.121
		c0.115,0.57,0.868,0.867,0.708,1.553c0.774,0.775,0.912,1.848,1.368,2.781c0.091,0.457,0.593,0.639,1.05,0.549
		c0.547-0.504,1.346-0.365,1.847-0.98c0.616-0.07,1.392-0.16,1.87,0.273c1.962-0.434,4.151-0.252,6.136-0.615
		c0.707-0.822,1.962-0.48,2.942-0.48c0.343,0.113,0.616,0.41,1.051,0.387c1.025-0.113,2.052-0.25,3.056-0.455
		c2.416-0.684,5.13-0.502,7.731-0.365c0.685,0.273,1.688-0.137,2.28,0.365c0.868-0.57,1.758,0.205,2.692-0.047
		c0.775-0.66,1.961-0.568,2.896-0.5c1.369-0.137,2.875-0.023,4.061,0.547c0.137-0.297,0.32-0.641,0.662-0.822
		c0.775-0.295,1.391,0.252,1.848,0.73c0.479-0.182,0.957-0.182,1.437,0c1.369,0.982,3.124,0.113,4.699,0.641
		c2.622,0.455,5.519,0.271,8.256,0.387c3.216,0.158,5.999,1.322,9.215,1.438c2.805,0.639,5.84,0.752,8.576,1.527
		c2.646,0.045,4.904,0.957,7.459,1.209c0.729,0.615,1.801,0.365,2.668,0.637c0.685-0.387,1.21,0.275,1.871,0.275
		c0.615,0.182,1.095,0.73,1.687,0.936c1.21-0.41,1.734,1.141,2.967,0.82c1.139,0.912,2.599,1.164,3.786,2.031
		c0.82-0.365,1.504,0.227,2.349,0.113c0.548,0.113,1.025,0.639,1.643,0.434c1.23,0.66,2.919,0.158,3.878,1.482
		c0.774,0.502,1.229-0.48,1.983-0.389c0.98-0.182,1.346-1.322,2.189-1.756c1.163,0.48,2.235-0.412,3.443-0.205
		c1.141,0.205,1.529-1.209,2.396-1.551c0.046-0.936,1.3-1.119,1.482-1.961C164.243,74.945,164.494,74.17,164.426,73.645z"/>
	<path fill="#333333" d="M55.383,125.828c-0.137-1.158-1.806-1.191-2.077-2.32c-0.871-0.621-1.008-1.713-2.045-2.205
		c-0.509-0.568-1.084-0.723-1.527-1.207c-0.988-0.439-1.858-1.16-2.964-1.305c-1.222-0.227-1.226-1.502-1.646-2.432
		c-0.202-1.078-0.892-1.779-1.678-2.516c-0.308-0.648-0.315-1.412-0.742-1.994c0.141-0.742-0.5-1.195-0.259-1.906
		c0.254-0.674-0.365-1.691,0.418-2.145c-0.007-0.91,0.432-1.668,0.934-2.34c0.819-0.672,0.269-1.951,0.757-2.771
		c-0.012-0.363,0.174-0.662,0.16-1.025c0.619-0.639,0.132-1.506,0.337-2.264c0.435-0.426,0.145-1.156,0.58-1.582
		c-0.143-0.729,0.641-1.117,0.383-1.865c0.65-0.605,0.349-1.701,0.854-2.41c0.979-0.416,1.171-1.41,1.493-2.281
		c0.211-1.107,0.8-2.043,1.141-3.082h0.033l0.003-0.166c0.354-0.557,0.46-1.252,0.895-1.744c0.226-1.107,0.799-2.109,1.471-2.996
		c0.47-0.674-0.752-1.033-0.115-1.674c-0.145-0.381-0.576-0.318-0.819-0.719c-0.345-0.318-0.109-0.762-0.221-1.111
		c0.188-0.791,0.313-1.5,0.617-2.258c-0.126-0.533-0.79-0.258-1.151-0.443c-1.128,0.219-1.634,1.125-1.974,2.113
		c-0.139,0.445-0.818,0.637-0.561,1.268c-0.521,0.707-0.563,1.666-1.265,2.338c-0.053,0.264-0.057,0.543-0.156,0.793
		c-0.142,0.891-0.696,1.498-0.902,2.373c-0.041,0.693-0.576,1.234-0.583,1.979c-0.308,0.939-0.861,1.777-0.971,2.77
		c-0.901,0.652-0.552,1.998-1.222,2.832c0.025,0.73-0.803,0.887-0.729,1.631c-0.438,0.775-0.497,1.701-0.704,2.576
		c-0.254,0.443-0.374,0.938-0.38,1.502c-0.205,0.51-0.588,0.918-0.446,1.582c-0.121,0.545-0.671,0.969-0.413,1.586
		c-0.518,0.473-0.161,1.188-0.499,1.748l-0.229,6.217l0.13,0.283c0.009,0.695,0.2,1.393,0.577,1.877
		c-0.223,0.527,0.055,1.061,0.298,1.508c0.076,0.646,0.566,1.113,0.728,1.711c-0.021,0.299,0.026,0.564,0.123,0.797
		c0.588,0.768,1.063,1.35,1.234,2.279c0.997,1.234,2.182,2.021,3.344,3.096c0.375,0.531,1.196,1.137,1.536,1.803
		c1.115,0.971,2.363,1.943,3.313,2.846c0.159,0.549,0.819,0.77,1.044,1.336c0.674,0.484,1.426,1.387,2.334,1.646
		c0.563-0.029,0.788,0.635,1.417,0.441c0.747-0.207,1.54-0.033,2.271-0.123c0.611-0.045,1.029-0.604,1.252-1.146
		C58.384,126.836,56.281,127.113,55.383,125.828z"/>
</g>
<path fill="#333333" d="M250.556,90.303c-0.274-0.73,0.705-1.164,0.387-1.916l-1.757-1.963c-0.113-0.41,0.023-0.752-0.341-1.004
	c-0.548-0.135-1.164-0.021-1.575,0.344c-1.186,0.41-1.641-1.049-2.463-1.596c-1.026-0.023-1.984-0.184-2.896-0.434
	c-0.89-0.342-1.438,0.637-2.372,0.227l-0.821-0.455c-0.844-0.207-1.164,0.934-1.803,1.322c-0.729,0.432-1.276-0.273-1.846-0.547
	c-0.48-0.184-1.097-0.092-1.483-0.434c-0.708-0.57-1.209,0.32-1.802,0.479c-0.729,0.434-1.256-0.297-1.985-0.205
	c-1.437,0.479-3.146,0.41-4.768,0.479c-0.638,0.344-1.23,1.141-2.073,0.66c-2.305-0.18-4.38,0.777-6.776,0.664
	c-1.48,0.5-3.352,0.09-4.652,0.98c-2.782,0.547-5.931,0.137-8.667,0.889c-1.004,0.229-2.074,1.438-3.104,0.434l-0.819,0.479
	c-0.866,0.365-1.346-0.547-1.984-0.867c-0.616-0.066-1.278-0.066-1.848-0.227c-1.094-1.096-2.761-0.822-4.288-0.867
	c-0.73,0.045-1.3,0.5-2.075,0.5c-0.548,0.412-0.615,1.234-1.3,1.416c-1.347-0.479-2.327,0.615-3.627,0.549
	c-0.41,0.225-0.707,0.729-1.255,0.592c-0.867-0.229-1.414,0.662-2.235,0.662c-0.821,0.797-1.984,0.295-3.079,0.432
	c-1.3,0.365-2.691-1.002-3.603,0.344c-0.867,1.186-2.213,0.479-3.445,0.592c-1.025,0.547-2.35,0.844-3.513,0.547
	c-0.434,0.457-1.642,0.615-1.255,1.529c-0.068,0.479-0.455,0.82-0.866,1.004c-1.756,0.09-3.262,0.615-5.041,0.82
	c-1.414-0.273-2.418,0.797-3.626,1.188c-2.532,0.34-4.744,1.504-7.321,1.754l-1.71,0.709c-2.168,0.729-4.54,0.957-6.615,1.916
	c-2.852,0.615-5.657,1.346-8.324,2.371c-0.525,0.41-1.096,0.936-1.803,1.025c-1.118-0.203-1.779,0.959-2.738,1.256
	c-0.866,0.867-2.052,0.891-3.056,1.369c-0.32,0.068-0.798,0.318-0.615,0.775c-0.365,0.295-0.685,0.684-1.209,0.594
	c-1.004,0.887-2.646,0.477-3.331,1.914c-0.228,0.502-1.049,0.867-0.661,1.484c-0.204,0.455-0.707,0.592-1.14,0.432
	c-0.776,0.615-1.712-0.547-2.351,0.389c-0.388,1.094-1.505,1.482-2.531,1.596c-0.238,0-0.385,0.074-0.49,0.184
	c-0.122-0.049-0.24-0.102-0.341-0.172c-0.644-0.174-0.835,0.635-1.398,0.777c-0.796,0.092-1.493,0.365-2.046,0.822
	c-2.181,1.648-4.77,2.4-6.398,4.615c-0.156,0.762-1.196,0.57-1.321,1.295c-0.649,0.457-1.285,1.111-1.723,1.654
	c-0.63,0.307-1.18,0.766-1.633,1.371c0.075,0.516-0.273,0.824-0.607,1.072c-0.105,0.527-0.671,0.818-1.088,1.129
	c-0.306,0.809-1.27,1.227-1.722,1.818c-0.609,1.234-1.169,2.602-2.156,3.668l-0.131,1.422c0.015,0.197,0.277,0.383,0.242,0.646
	c-0.284,0.328-0.158,0.895-0.148,1.307c-0.197,0.148-0.102,0.512-0.07,0.678c0.157,0.613-0.063,1.307,0.444,1.824
	c0.435,1.098,0.905,2.146,1.24,3.27c0.558,0.338,0.304,1.029,0.429,1.678c0.311,0.484,0.006,1.125,0.134,1.623
	c-0.904,1-1.148,2.139-2.331,2.955c-0.27,0.344-0.339,0.807-0.64,1.068c-1.182,0.617-2.281,1.449-3.171,2.547
	c-0.021,0.547,0.536,0.965,0.981,1.285c0.381-0.145,1.057,0.145,1.356-0.234c0.603-0.539,1.403-1.178,2.12-1.631
	c0.552-0.641,1.544-0.465,2.112-1.105c0.269-0.443,1.073-0.037,1.281-0.646c1.128-0.502,1.7-1.324,2.602-2.092
	c-0.208-0.729,0.327-1.221,0.695-1.648c-0.046-0.396,0.073-0.725,0.209-1.039c0.171-0.396-0.291-0.5-0.439-0.75
	c0.604-0.641-0.403-0.898-0.33-1.525c-0.262-0.301-0.107-0.813-0.552-1.064c0.058-0.727-0.717-1.117-0.576-1.875
	c-0.462-0.254-0.257-0.797-0.47-1.082c-0.095-0.365,0.024-0.727,0.21-1.021c-0.424-0.686,0.13-1.34,0.27-1.984
	c-0.1-1.689,1.269-2.801,1.384-4.352l1.209-1.709c0.806-1.068,2.508-0.969,3.285-2.299c0.827-0.143,0.938-1.135,1.717-1.488
	c0.11-0.139,0.236-0.275,0.35-0.414c0.243,0.389,0.536,0.943,1.057,0.965c1.073,1.393,2.988,0.891,3.878,2.578
	c1.003,0.205,2.099,1.004,2.418,2.029c0.502,1.164,1.871,1.256,2.782,1.916c0.434,0.25,0.456,0.775,0.935,0.936
	c1.118,0.434,0.754,1.711,1.642,2.35c-0.25,0.799,0.891,1.072,0.663,1.801c1.094,0.912,2.281,1.551,3.786,1.482
	c0.389-0.023,0.775-0.227,1.094,0.16c0.48,1.346,2.327,0.867,2.51,2.418c0.524,0.617,1.323,1.096,2.235,1.025
	c1.938-0.568,3.261,1.164,5.269,0.549c1.004,0.113,1.893,0.637,2.942,0.432c0.799,0.504,1.779,0.48,2.691,0.617
	c1.369,1.141,2.556-0.48,3.947-0.434c1.162,0.57,2.143-0.318,3.168-0.615c1.279-0.252,1.963,1.025,3.24,0.615
	c0.25-0.16,0.685,0.092,0.866-0.229c0.022-0.318-0.387-0.455-0.501-0.705c-0.161-0.299,0.068-0.57,0.228-0.822
	c1.962-0.844,4.356-0.639,6.137-1.916c1.893-1.688,4.835-0.912,6.842-2.35c2.007,0.068,3.559-0.889,5.314-1.482
	c1.322-0.957,3.056-1.004,4.539-1.643c2.166-0.297,3.923-1.641,6.226-1.596c1.803-1.074,3.924-1.414,5.909-2.076
	c1.231-0.389,2.76-0.045,3.945-0.547c2.646-1.051,6.112-0.113,8.554-1.643c1.459-0.775,3.352-0.502,4.973-0.867
	c1.551,0,2.714-0.867,4.219-0.936c1.62,0.48,3.125-0.342,4.493-0.979c1.391-0.092,2.418-1.143,3.878-1.098l1.368-1.551
	c0.114-1.139,0.981-1.982,1.528-2.941c0.229-0.912,0.73-2.008,1.801-2.143c0.389-0.207,0.799,0.18,1.165-0.115
	c0.775-0.844,1.822-1.346,2.85-1.732c1.164-0.525,1.597-1.781,2.828-2.145c1.414,0.092,2.076-1.619,3.398-1.688
	c1.277,0,2.326-0.914,3.627-0.502c0.57,0.318,0.822-0.275,1.14-0.594c0.411-0.48,0.982-0.547,1.597-0.502
	c0.366-0.25,0.708-0.705,0.982-1.094c0.09-0.662,1.276-1.141,0.593-1.871c-0.068-0.318-0.138-0.775,0.16-1.027
	c-0.138-0.889,0.73-1.436,0.341-2.348c0.138-0.594,0.753-0.662,1.141-1.004c0.98-0.57,1.733,0.912,2.623,0.068
	c0.412-0.822-0.57-1.027-0.98-1.643c-0.868-0.594,0.318-1.209-0.388-1.871c0.524-1.139,1.823-1.117,2.577-2.029
	c1.438-0.754,3.421-0.615,4.995-0.547c0.296-0.023,0.57-0.365,0.547-0.707c0.548-0.799,0.685-1.779,0.913-2.738
	c-0.274-1.094,0.799-1.664,1.483-2.234l0.158-0.936L250.556,90.303z"/>
<path fill="#333333" d="M62.713,159.445c0.327,0.352,0.09,0.777-0.012,1.141c0.096,0.166,0.127,0.451-0.007,0.596
	c-0.415,0.211-0.994,0.041-1.311,0.434c-0.569,0.459-0.63,1.582-1.574,1.721c-0.583,0.293-0.424,0.924-0.76,1.318
	c-0.455,0.838-0.959,1.742-0.82,2.77c-0.789,1.051-0.176,2.547-0.438,3.834c0.093,0.645,0.45,1.328,0.128,1.986
	c0.477,0.451,0.985,0.787,0.977,1.535c0.294,0.43,0.807,0.568,1.115,0.951l1.225,0.178c0.751,0.885,2.108,0.818,3.168,0.713
	c0.88-0.324,1.596-0.928,2.561-1.131c0.497-0.211,0.407-1.121,1.231-0.816c0.746-0.09,1.183-0.697,1.959-0.709
	c0.782-0.387,1.563-0.727,2.198-1.365c0.368-0.375,1.001-0.635,1.318-1.129c0.487-0.59,0.712-1.514,1.608-1.738
	c0.134-0.195,0.384-0.277,0.631-0.225c0.259,0.484,1.146-0.334,0.989,0.557c0.26,0.236,0.606,0.354,0.552,0.736
	c-0.318,0.424-0.325,1.004-0.692,1.414c-0.398,1.602,0.251,2.965,0.75,4.293c0.653,0.686,0.857,1.828,1.848,2.203
	c0.791,0.156,1.518,0.465,2.172,0.982c0.811,0.141,1.332,1.039,2.057,1.33c0.528-0.063,0.839,0.42,1.384,0.375
	c1.056,0.492,2.185-0.01,3.181-0.295c2.345-1.004,4.462-2.488,5.609-4.775c0.352-0.428,0.849-0.617,1.348-0.748
	c0.595,0.072,1.271,0.279,1.496,0.893c0.372,0.699-0.213,1.389-0.055,2.135c-0.336,0.393-0.292,0.973-0.774,1.266
	c-0.076,0.926-1.266,0.896-1.522,1.656c-0.149,0.014-0.233,0.178-0.352,0.275c-0.14,0.693-0.952,0.836-1.402,1.326
	c-0.796,0.174-1.202,0.98-2.078,0.939c-0.453,0.574-1.346,0.531-2.043,0.74c-1.674,0.23-3.548,0.791-5.162-0.021
	c-1.045,0.271-1.648-0.48-2.524-0.621c-0.806-0.539-2.013-0.5-2.368-1.414c-0.738-0.619-1.621-1.654-2.476-2.211
	c-0.18-0.217-0.259-0.482-0.273-0.762c-0.736-0.805-0.823-2.029-1.842-2.6c-0.825-0.209-1.362,0.33-2.072,0.424
	c-0.932,0.338-1.437,1.111-2.479,1.281c-0.771,0.885-2.074,0.477-2.908,1.244c-1.294,0.252-2.666,0.254-4.008,0.391
	c-1.046,0.303-2.101-0.01-2.939-0.545c-0.146-0.414-0.691-0.404-0.984-0.723c-1.465-0.791-2.263-2.223-3.06-3.523
	c-0.011-0.594-0.485-0.996-0.547-1.559c-0.466-1.195-0.852-2.523-0.669-3.895c-0.275-0.799-0.361-1.959,0.273-2.662
	c-0.045-0.416,0.405-0.625,0.474-0.988c-0.121-0.943,0.398-1.717,0.507-2.607c0.52-0.574,1.32-1.244,1.461-2.137
	c0.803-0.818,1.513-2.086,2.8-1.924c0.401-0.326,0.656-1.035,1.352-0.93C61.593,159.004,62.236,159.027,62.713,159.445z"/>
<g>
	<path fill="#333333" d="M198.958,185.75c-0.206-0.57,0.41-1.232-0.228-1.688c-0.16-1.141-0.069-2.326-0.479-3.445
		c1.162-1.641-1.46-2.418-0.821-4.105c-0.593-0.844-0.548-1.961-1.551-2.621c-0.434-1.734-2.533-1.689-3.103-3.285
		c-1.209-0.639-2.464-1.188-3.74-1.643c-1.164,0.205-2.122-0.844-3.331-0.389c-0.159,0.502-0.98,0.709-0.866,1.211
		c0.979,0.729,2.349,0.5,3.328,1.299c1.166-0.16,2.146,0.434,3.013,1.162c0.912,0.412,1.346,1.482,2.419,1.645
		c1.573,0.271,1.551,1.982,2.006,3.102c-0.113,0.797-0.958,0.479-1.368,0.934c-0.319,0.707,0.775,1.072,1.096,1.529
		c0.798,0.98,1.732,2.053,1.437,3.354c0.593,0.82,0.091,1.709-0.343,2.463c-0.845,0.023-0.296,0.936-0.913,1.139
		c-1.208-0.342-1.869-1.572-2.577-2.508c-0.455-0.662-0.091-1.299,0.047-1.984c-0.274-0.365-0.549-0.889-1.027-1.027
		c-1.505-0.273-1.803-1.982-2.965-2.691c-0.548-0.752-1.689-1.207-1.644-2.234c-0.113-0.502-0.661-0.434-0.935-0.822
		c-1.026,0.275-2.235,0.047-3.057-0.66c-0.844-2.168-3.328-1.254-4.697-2.576c-1.278,0.227-2.145-0.867-3.513-0.549
		c-0.525-0.25-1.049-0.547-1.644-0.66c-1.368,0.568-2.509-0.344-3.877-0.273c-0.435-0.16-0.89-0.572-1.367-0.275
		c-0.937-0.387-2.099-0.137-3.012-0.205c-0.502,0.342-1.186,0.455-1.824,0.32c-0.616-0.412-1.46-0.252-2.076-0.707
		c-0.957-0.184-1.985-0.297-2.941-0.32c-1.096,0.707-2.258-0.182-3.468,0.273l-0.866-0.775c-0.799-0.045-1.528-0.297-2.237-0.594
		c-0.546-0.25-0.955-0.867-1.549-1.002c-0.914,0.273-1.895,0.25-2.669-0.32c-0.708,0.184-0.935-0.752-1.597-0.66
		c-1.027,0.227-2.053,0.021-3.124,0.16l-0.434,0.273c-0.571,0.957-0.069,2.119,0,3.123c0.387,0.822,1.322,1.209,1.984,1.803
		c0.342,0.182,0.684,0.547,0.752,0.936c0.046,0.98-1.026,1.162-1.688,1.482c-1.048,0.363-1.527-1.004-2.576-0.822
		c-0.753-0.775-1.939-0.045-2.783-0.592c-0.57,0.615-1.3,0.16-2.028,0.205c-1.097,0.57-2.352,0.752-3.355,1.596
		c-0.707,0.068-1.231,0.73-2.006,0.48c-1.688-0.068-1.277,2.461-3.08,2.029c-1.848,0.754-2.576,2.828-3.011,4.605
		c-0.523,0.959-1.574,1.713-1.848,2.785c0.457,1.504-1.095,2.258-1.984,3.17c0.092,0.594-0.456,1.164,0.068,1.641
		c-0.113,0.686,0.502,1.484-0.341,1.871c-0.32,0.068-0.799,0.16-1.027-0.158c-0.136-0.299-0.456-0.525-0.342-0.938
		c0.912-0.912-0.365-1.869,0.068-2.852c-0.251-0.775,0.365-1.346,0.548-2.029c-0.183-0.295-0.046-1.025-0.661-0.865
		c-0.891,0.684-0.776,1.869-0.937,2.895c-0.639,1.074-0.114,2.625-0.66,3.721c0.434,0.82,0.021,2.006,0.66,2.736
		c0.32,0.775-0.615,1.367-0.045,2.098c-0.685,1.096,1.026,1.666,0.548,2.83c0.341,1.025,0.25,2.029,0.272,3.193
		c0.982,0.752,0.229,2.051,0.913,2.941c0.32,0.41-0.113,0.844-0.045,1.207l1.253,1.143c-0.091,2.074,2.327,3.102,1.984,5.268
		c-0.204,0.297-0.045,0.662,0,0.98c0.982,0.641,1.188,1.756,1.528,2.623c-0.296,0.686,0.343,1.117,0.161,1.803
		c1.208,1.412,1.413,3.217,2.234,4.766c0.799,1.027,1.095,2.258,1.87,3.285c1.46,2.852,3.742,5.428,6.341,7.549
		c1.438,0.936,2.76,2.123,4.289,2.852c2.463,1.713,5.154,2.941,8.211,3.285c2.121,0.047,4.104,0.709,6.111,1.164
		c1.072,0.889,2.1,1.801,3.285,2.508c0.617-0.021,1.393,0.068,1.917-0.273c0.182-0.25,0.045-0.502,0-0.775
		c0.478-0.912,1.687-0.502,2.531-0.752c0.57,0.547,1.163-0.137,1.802-0.068c1.117,0.82,2.349-0.092,3.513-0.16
		c0.501-0.387,1.163-0.686,1.801-0.434l1.961-0.707c0.525-0.297,1.256-0.068,1.644-0.662c1.369-0.229,2.6-0.775,3.673-1.643
		c2.144-1.938,4.858-2.553,7.161-4.105c2.029-1.824,3.993-3.764,6.091-5.473c0.89-0.639,1.824-1.529,1.961-2.623
		c0.57-0.754-0.023-1.984,0.775-2.623c1.369-1.004,1.345-2.578,1.916-3.9c0.296-0.936-0.502-1.436-0.662-2.189
		c0.594-0.594-0.045-1.482,0.549-2.076c-0.159-0.455-0.775-0.572-0.549-1.209c0.137-0.594,0.845-0.389,1.096-0.822
		c0.183-2.303,1.917-3.945,2.509-6.064c0.068-0.617-0.411-1.303,0.228-1.803c-0.159-1.004,1.004-1.803,0.274-2.691
		c0-0.594,0.729-0.73,0.821-1.324c-0.274-0.637,0.363-1.617-0.435-2.119c-0.25-0.686,0.114-1.232,0.549-1.713
		c-0.252-0.363-0.045-0.775,0.159-1.094c-0.342-0.891,0.934-1.711-0.068-2.465c0.548-1.322-1.369-1.162-1.733-2.119
		c0.09-1.164-0.434-2.168-0.548-3.287c0.161-0.545,0.776-0.545,1.095-0.979c0.913-0.252,0.569,1.162,1.527,0.979
		c0.411-0.385-0.318-0.545-0.228-0.934C198.389,186.365,198.615,186.023,198.958,185.75z"/>
	<path fill="#333333" d="M120.896,165.139c0.746-0.189,1.487,0.064,2.231,0.107c0.681-0.145,1.424-0.035,2.052-0.064
		c0.878-0.072,1.386,0.48,2.23,0.471c0.723,0.404,1.787,0.037,2.492,0.508c0.564-0.129,0.857,0.387,1.386,0.361
		c0.362,0.301,1.007,0.322,1.423,0.129c0.497-0.094,1.042-0.021,1.354,0.346c0.893-0.041,1.446-0.764,2.387-0.537
		c0.679,0.072,1.271,0.275,1.933,0.381c0.647-0.207,0.421-0.771,0.542-1.266c-0.227-0.467-0.42-0.996-0.981-1.119
		c-0.579,0.061-0.888-0.455-1.469-0.348c-1.136-0.473-2.154-1.195-3.394-1.424c-1.852-0.068-3.804-0.139-5.401-0.914
		c-0.314-0.088-0.678-0.025-0.94-0.211c-1.387-0.295-2.757-0.623-4.296-0.572c-0.482,0.244-1.094,0.188-1.655,0.182
		c-0.841-0.389-1.725,0.129-2.632,0.055c-0.496-0.121-1.158-0.129-1.671-0.018c-0.446-0.152-0.716,0.326-1.109,0.039
		c-1.074-0.078-2.285,0.158-2.825,1.193c-0.106,0.68-0.278,1.322-0.532,1.947c0.359,0.369,0.369,1.014,0.846,1.352
		c1.036,0.537,2.15-0.063,3.066-0.365C117.421,164.988,119.312,164.627,120.896,165.139z"/>
</g>
<polyline fill="#333333" points="72.081,210.313 70.748,214.311 72.081,216.086 74.746,214.311 75.19,210.313 73.414,209.867 "/>
<g>
	<path fill="#333333" d="M313.914,206.348c-0.773-1.119-2.121-1.553-3.399-1.096c-0.798,0.457-1.755,1.23-1.367,2.395
		c0.388,0.797,1.231,1.117,2.074,0.889c0.412-0.57,1.166-0.227,1.598-0.707C313.025,207.166,314.005,207.121,313.914,206.348z"/>
	<path fill="#333333" d="M277.945,214.557c0.342,0.82,0.296,2.166,1.528,2.236c0.478,0.48,0.912,0,1.482,0.227
		c0.342-0.316,0.912-0.09,1.209-0.547c0-0.229,0.228-0.479,0-0.66c0.136-1.256-0.57-2.26-0.616-3.514
		c-0.776-1.23,0.638-2.211,0.388-3.557c-0.524-0.959-1.688-1.096-2.736-1.141c-0.687,0.227-1.438,0.865-1.529,1.641
		C277.762,210.863,277.444,212.961,277.945,214.557z"/>
	<path fill="#333333" d="M330.063,241.107c-0.389-0.754,0.045-1.438-0.159-2.26c-0.685-0.957-0.616-2.303-1.713-3.01
		c-0.615-0.66-1.024-1.688-2.074-1.732c-1.438-1.232-3.559-0.822-4.766-2.578c-1.074-1.643-2.579-2.943-2.898-4.883
		c-0.092-0.752-0.752-1.525-0.273-2.234c1.05-0.502,2.305-0.387,3.444-0.66c1.344-0.775,2.987-0.848,4.218-1.871
		c1.005-0.434,1.964-1.393,2.579-2.348c0.229-1.211,0.958-2.625,0.206-3.834c-1.37-1.871-3.309-3.01-5.682-2.783
		c-1.983,0.205-3.739,0.912-5.359,1.963c-1.345,1.004-2.508,2.166-3.353,3.557c-0.137,0.594-0.523,1.164-0.433,1.758
		c-0.412,0.73-0.091,1.732-0.502,2.463c0.067,2.441,0.592,4.836,1.483,7.002c1.459,2.213,3.078,4.721,5.541,6.021
		c0.274,0.434,0.479,0.822,0.98,1.051c0.594,1.299,2.169,1.162,3.126,2.074c0.638,1.322,1.572,2.51,1.802,3.992
		c-0.39,1.117-1.278,2.281-2.464,2.623c-0.228,0.318-0.479,0.594-0.502,1.004c0.207,0.479,0.707,0.479,1.095,0.639
		c2.326,0,4.151-2.053,5.042-3.994C329.697,242.453,330.178,241.904,330.063,241.107z M318.453,218.275
		c1.277-1.848,3.307-2.807,5.634-2.35l0.501,0.318c0.411,0.459,0.754,1.006,0.547,1.643c-0.112,1.461-1.641,2.191-2.805,2.623
		c-1.368,0.389-2.896,0.891-4.379,0.615C317.222,220.215,318.134,219.164,318.453,218.275z"/>
	<path fill="#333333" d="M305.907,217.066c0.252,2.6-0.157,5.041-0.478,7.457c-0.114,1.598-0.206,2.99-0.434,4.541
		c0,1.254-0.067,2.555,0.434,3.557c0.593,0.549,1.208,0.068,1.961,0.205c0.798-0.479,1.643-0.979,2.303-1.641
		c-0.479-0.889-0.639-1.893-0.706-2.943c0.411-3.307,0.685-6.75,1.026-10.012c0.207-0.412,0.318-0.867,0.343-1.324
		c-0.753-0.846-1.825-1.139-2.898-1.254C306.865,215.949,306.228,216.473,305.907,217.066z"/>
	<path fill="#333333" d="M296.945,223.043c-0.571-1.256-1.711-2.281-2.031-3.627c1.346-1.666,3.9,0.068,5.315-1.414
		c0.205-0.229,0.73,0.023,0.753-0.436c-1.164-2.234-4.152-1.527-5.954-0.979c-1.527,0.752-3.422,1.025-4.379,2.668
		c0.068,1.301,0.388,2.645,1.255,3.627c1.391,2.943,3.444,5.564,4.652,8.576c0.775,2.418,2.235,5.018,1.254,7.662
		c-0.547,0.572-0.889,1.371-1.641,1.711c-0.251,0.092-0.708,0.23-0.936-0.066c-0.16-0.16-0.548-0.16-0.707,0.066
		c-0.184,0.822-1.688,1.211-0.981,2.121c0.593,1.072,1.825,0.732,2.783,0.732c1.847-0.754,3.489-2.123,4.768-3.74
		c1.46-1.781,1.185-4.381,0.661-6.502C300.89,229.656,298.609,226.465,296.945,223.043z"/>
	<path fill="#333333" d="M253.312,243.729c-0.456-4.652-0.73-9.373-3.238-13.184c-0.16-0.477-0.639-0.889-1.187-0.82
		c-0.82,0.068-1.985-0.5-2.578,0.479c-1.049,1.848-2.555,3.49-3.078,5.543c-0.685,0.959-0.639,2.213-1.3,3.172
		c-0.229,0.182-0.41-0.07-0.548-0.229c-0.229-3.809-0.616-7.643-0.935-11.541c0.091-0.891-0.297-2.098,0.547-2.533
		c-0.32-0.137-0.251-0.523-0.502-0.754c-1.118-1.002-3.01-0.568-3.924,0.549c0.161,6.705,1.072,13.389,1.734,20.025
		c0.137,3.787,1.255,7.232,1.369,10.949c0.113,0.525,0.593,0.754,1.002,0.982c1.026,0.387,1.665-0.549,2.464-0.912
		c0.251-0.684,1.117-0.959,1.027-1.758c-1.118-1.848-0.594-4.266-0.662-6.41c0.456-4.266,1.801-8.121,3.08-12.043
		c0.135-0.25,0.204-0.707,0.593-0.707c0.91,0.549,0.91,1.781,1.254,2.738c0.251,2.326,0.891,4.561,0.891,6.955
		c0.523,2.533,0.295,5.385,0.821,7.939c0.271,0.957-0.207,2.234,0.819,2.895c1.278,0.365,2.054-0.773,3.056-1.252
		c0.139-0.48,0.844-0.596,0.776-1.096C253.402,250.094,253.881,246.695,253.312,243.729z"/>
	<path fill="#333333" d="M283.146,254.725c-0.662-4.631-0.502-9.467-0.775-14.232c-0.091-1.189,0.045-2.396-0.319-3.559
		c-0.023-3.148-0.365-6.41-0.548-9.627l-0.318-0.434c-0.912-0.408-2.235-1.139-3.126-0.229c-0.569,0.549-0.913,1.188-0.98,1.918
		c0.821,1.322,0.411,2.965,0.752,4.492c0.274,5.088,0.594,10.264,0.775,15.441c0.115,3.148,0.891,6.16,0.595,9.352
		c0.135,0.457,0.113,1.027,0.66,1.256c0.935,0,1.963-0.344,2.51-1.211C284.194,257.688,282.804,255.75,283.146,254.725z"/>
	<path fill="#333333" d="M274.067,242.316c-0.273-0.754-1.095-0.686-1.551-1.209c-0.571-3.148-1.779-6.045-3.284-8.828
		c-1.803-3.17-5.086-5.107-8.69-5.086c-0.639-0.205-1.347,0.229-1.916-0.16c-0.707,0.48-2.053,1.186-1.756,2.305
		c0.228,0.387,0.639,0.799,1.049,1.027c0.434,0.113,0.958,0.113,1.3-0.207c1.46,0.023,2.76,0.457,3.9,1.301
		c2.487,1.914,3.604,4.813,4.698,7.504c0.047,0.365,0.593,0.73,0.16,1.094c-1.392-0.111-2.76,0.16-3.991,0.617
		c-3.218,1.393-6.547,3.352-8.53,6.568c-0.662,1.506,0.548,2.555,1.46,3.488c2.053,1.232,4.834,1.393,7.185,0.709
		c4.15-1.438,8.074-4.311,10.673-8.211C274.547,242.863,274.158,242.727,274.067,242.316z M268.754,246.033
		c-1.666,1.506-3.627,2.348-5.59,3.17c-0.912,0.16-2.075,0.48-2.782-0.273c-0.547-0.57-1.367-1.188-1.049-2.076
		c1.825-2.35,4.424-3.557,6.957-4.537c1.23-0.25,1.915,0.934,2.509,1.732C268.389,244.732,269.164,245.395,268.754,246.033z"/>
	<path fill="#333333" d="M233.879,258.168c-0.639,0.525-1.688,0.547-2.418,0.229c-2.76-0.936-4.631-3.719-5.565-6.297
		c-1.187-4.08-0.184-8.506,2.735-11.426c1.051-0.865,2.282,0.594,3.286-0.457c0.206-0.754,1.072-0.523,1.414-1.096
		c-0.525-0.842-1.414-1.299-2.235-1.643c-3.353-0.797-5.587,2.33-7.185,4.654c-2.782,3.764-2.874,10.061-0.593,14.072
		c1.756,2.988,4.813,5.566,8.484,5.316c1.025-0.16,2.03-0.434,2.897-0.982c0.524-1.164,1.938-1.389,2.416-2.578l-1.277-1.414
		C234.723,256.254,234.745,257.711,233.879,258.168z"/>
	<path fill="#333333" d="M205.915,273.404c-5.794-4.039-11.609-7.938-17.039-12.773l-0.112-0.273c1.573-1.207,3.123-2.67,4.72-3.922
		c1.963-1.164,3.604-3.15,5.907-3.514c0.823-0.729,2.214-1.346,2.306-2.578c-0.57-0.775-1.621-1.188-2.579-0.912
		c-0.593,0.365-1.209,0.754-1.755,1.299c-2.396,1.414-4.631,3.24-6.89,4.996c-0.865,0.502-1.185,1.664-2.258,1.689
		c-0.433-0.389-0.342-1.074-0.593-1.598c0.114-1.506-0.592-2.805-0.661-4.311c-0.479-1.117-0.592-2.396-0.866-3.627
		c0-1.164-0.183-2.395-0.116-3.65l-0.272-0.387c-0.752-0.115-1.482-0.662-2.235-0.158c-0.729,0.203-1.14,0.842-1.323,1.527
		c0.32,1.186,0.184,2.371,0.389,3.604c0.548,3.582,1.209,7.139,2.189,10.559c0.045,0.891-1.071,1.438-0.82,2.465
		c0.181,1.164,1.914,1.346,1.914,2.623c0.755,4.016,1.986,7.777,2.739,11.77c0.523,1.162-0.344,3.354,1.528,3.67
		c0.547-0.408,1.687,0,1.755-0.979c0.729-0.686,1.392-1.551,1.414-2.51c-0.685-0.547-0.707-1.369-0.821-2.145
		c-1.163-2.006-1.277-4.469-2.075-6.613l0.16-0.229c0.159,0,0.363-0.023,0.501,0.045c4.037,3.078,8.417,5.885,12.158,9.582
		c1.392,0.615,2.326-0.73,3.169-1.529c0.319-0.436,0.48-0.936,0.594-1.482C206.689,273.699,206.28,273.563,205.915,273.404z"/>
	<path fill="#333333" d="M211.39,246.9c-0.845-0.07-1.414,0.547-2.189,0.547c-1.164,0.912-2.556,1.232-3.559,2.463
		c-1.848,2.006-4.106,3.811-5.041,6.25c-0.617,1.527-0.571,3.559,0.389,4.928c1.049,2.188,3.397,3.762,5.839,3.602
		c1.824,0.23,3.17-0.705,4.562-1.527c3.375-2.576,6.111-5.908,8.211-9.42c-0.16-1.23-0.251-2.623-1.164-3.604
		C216.772,247.742,214.125,247.061,211.39,246.9z M212.849,258.555c-1.712,1.438-3.285,3.561-5.679,3.01
		c-1.711-0.637-2.942-2.439-3.17-4.148c-0.206-2.42,1.983-4.289,3.717-5.908c0.592-0.047,1.23,0.342,1.802-0.115
		c0.64-0.936,1.779-0.637,2.51-1.322c1.778-0.023,3.125,1.551,3.739,3.012C215.837,255.34,214.218,256.914,212.849,258.555z"/>
	<path fill="#333333" d="M181.487,269.023c0.022-0.25,0.183-0.273,0.272-0.5c-0.113-0.182-0.364-0.297-0.547-0.434
		c-1.003-1.984-1.619-4.105-3.284-5.818c-2.555-3.031-5.794-5.426-9.579-6.066c-2.829-0.41-5.588,0.207-7.437,2.236
		c-0.867,1.506-2.463,3.285-1.209,5.041c1.779,1.391,2.1-1.461,3.284-2.121c-0.067-0.342-0.137-0.799,0.274-1.004
		c1.141-0.615,2.486-0.844,3.899-0.639c3.97,0.775,7.526,4.084,9.398,7.709c-0.068,0.137-0.206,0.32-0.364,0.32
		c-2.054-0.229-4.381-0.48-6.479,0c-3.034,0.523-5.588,2.189-8.029,4.105c-1.071,1.482-2.053,2.986-1.71,5.041
		c0.912,2.623,3.444,4.674,5.907,5.699c4.699,1.689,10.515,0.686,15.486,0.664l0.662-0.502c0.547-1.051,2.76-1.916,1.529-3.33
		C183.288,275.775,182.513,272.332,181.487,269.023z M179.525,279.355c-0.41,1.529-2.372,0.936-3.672,1.164
		c-1.438,0.41-2.989-0.092-4.425,0c-3.057-0.523-6.546-2.326-7.504-5.588c-0.091-2.215,2.325-2.941,3.831-3.787
		c1.573-0.316,3.604-1.799,4.928,0l0.707,0.344c0.479,0.502,1.117,0.705,1.802,0.547c0.98-0.16,1.618-1.301,2.691-1.004
		c0.729,1.732,1.002,3.65,1.482,5.475C179.366,277.488,180.005,278.469,179.525,279.355z"/>
	<path fill="#333333" d="M157.744,285.813c-2.122,0.455-4.38,0.25-6.456,0.615c-2.714,0.367-5.314,1.301-8.12,1.094
		c-0.297-0.113-0.706-0.41-0.706-0.775c1.368-2.508,2.668-5.041,4.446-7.391c2.213-3.191,4.448-6.408,6.501-9.691
		c0.753-1.119,1.733-2.191,1.483-3.65l-0.114-0.342c-1.051-0.617-2.19-1.141-3.444-0.594c-1.46,0-2.715,0.594-4.106,0.754
		c-3.124,0.686-5.815,2.395-8.986,2.965c-0.98,0.295-0.57,1.619-0.98,2.303c0.319,0.365,0.183,0.936,0.616,1.256
		c0.342,0.387,0.752,0.592,1.3,0.5c2.532-2.076,5.656-2.713,8.599-3.785c0.936-0.115,2.076-0.729,2.897-0.115
		c0.182,0.252-0.069,0.482-0.206,0.662c-3.421,5.199-7.116,10.285-10.4,15.557c-0.661,0.75-1.163,1.572-1.644,2.393
		c-0.386,0.82,0.229,1.506,0.48,2.191c1.209,1.117,2.874,1.299,4.538,1.096c3.013-0.525,6.205-0.912,9.262-1.484
		c1.573,0.16,3.489-0.365,4.927,0.457c0.639,0.389,1.14-0.207,1.642-0.502c0.456-0.846,1.551-0.982,1.757-1.961
		c0.592-0.936-0.548-1.301-0.775-2.031C159.386,284.191,158.564,285.539,157.744,285.813z"/>
	<path fill="#333333" d="M290.284,257.346c0.205-0.295,0.411-0.613,0.32-1.049c-0.046-0.273-0.389-0.41-0.594-0.547
		c-1.118,0.318-1.893-1.025-2.896-0.16c-1.666,0.777-0.708,2.418-1.052,3.832c0.185,0.82-0.046,1.895,0.937,2.35
		c0.684,0.912,1.688,0.568,2.623,0.867c0.64-0.205,1.186-0.777,1.255-1.459C290.263,260.061,289.737,258.646,290.284,257.346z"/>
	<path fill="#333333" d="M313.389,287.227c-0.685-0.162-0.958,0.432-1.368,0.775c-0.319,0.139-0.614,0.09-0.89-0.068
		c-1.459,1.369-3.627,1.162-5.587,1.162c-2.556-0.73-5.155-2.645-6.296-5.201c-0.295-1.162-0.889-2.189-0.821-3.512
		c0.091-1.619-0.365-3.375-0.159-4.928c0.25-0.477-0.068-1.186,0.501-1.527c1.255-0.045,2.737,0.047,4.038,0.205
		c3.056-0.365,6.044-0.797,8.483-2.555c1.529-1.184,3.972-2.463,3.514-4.721c-0.317-1.025-1.415-1.848-2.19-2.621
		c-3.466-2.166-8.438-1.211-11.653,0.818c-2.533,1.232-4.678,3.672-5.476,6.297c-1.437,2.623-1.573,5.611-1.596,8.803l0.159,0.389
		c0.137,2.736,0.754,5.381,2.806,7.391c3.124,3.809,7.983,4.676,12.59,3.627c0.364-0.045,0.594-0.436,1.026-0.275
		c1.004-0.523,2.03-0.957,2.919-1.709c0.16-0.389,0.207-0.844,0.479-1.211C314.12,287.887,313.71,287.545,313.389,287.227z
		 M300.344,269.596c1.3-1.279,2.394-2.807,4.173-3.172c1.118-0.502,2.304-0.844,3.672-0.773c0.845,0.342,1.825,0.773,2.281,1.709
		c0.022,0.434,0.457,0.891,0.067,1.301c-2.713,1.982-6.338,3.215-9.738,2.029C300.504,270.395,300,270.029,300.344,269.596z"/>
	<path fill="#333333" d="M279.063,274.682c-0.159-0.367-0.137-0.822-0.434-1.143c-0.205-1.414-1.368-2.508-1.483-3.875
		c-0.706-0.799-2.006-1.232-3.078-0.73c-0.57,0.662-1.323,1.301-1.3,2.26c0.114,0.932,1.05,1.523,1.573,2.301
		c2.029,4.221,3.08,8.92,3.125,13.893c-0.137,1.686-0.113,3.238-0.662,4.766c-0.158,0.184-0.501,0.113-0.706,0.045
		c-2.577-1.572-5.589-3.33-7.163-6.18c-0.866-1.301-0.957-2.941-1.253-4.494c-0.389-1.049-0.047-2.418-0.776-3.33
		c-1.003-0.229-2.6-0.592-3.398,0.32c-0.364,0.479-0.615,1.004-0.595,1.641c0.413,1.689,0.459,3.49,1.029,5.109
		c-0.024,0.525,0.251,0.914,0.455,1.369c0.229,3.057-0.25,5.885-1.484,8.484c-0.66,0.502-0.819,1.643-1.8,1.574
		c-1.757-0.615-3.148-2.213-4.174-3.762c-2.236-4.197-4.379-8.418-4.54-13.482c-0.548-0.957-1.961-0.684-3.009-0.66
		c-0.731,0.297-1.005,1.072-1.096,1.756c0.364,1.984,0.568,4.059,1.096,5.975c1.254,3.398,2.599,6.777,4.767,9.785
		c1.825,2.303,4.311,3.832,7.32,3.469c0.685-0.207,1.254-0.686,1.872-1.051c1.413-1.824,3.42-3.512,3.83-5.791
		c0.251-0.436,0.046-1.027,0.503-1.369c0.159-0.023,0.296,0.023,0.433,0.045c1.003,1.004,2.122,1.756,3.216,2.508
		c1.391,0.48,2.601,1.393,4.06,1.643c2.304,0.594,3.49-1.619,4.699-3.012c1.277-2.713,1.231-5.77,1.096-8.85
		C280.887,280.658,280.34,277.51,279.063,274.682z"/>
	<path fill="#333333" d="M288.026,273.539c-0.137-1.139-0.204-2.369-0.045-3.441c-0.229-0.457-0.685-0.777-1.21-0.707
		c-0.936-0.252-1.893-0.139-2.668,0.363c-0.571,0.615-1.003,1.416-0.661,2.258c0.614,1.711,0.593,3.672,0.865,5.521
		c-0.204,1.254,0.388,2.303,0.343,3.559c0.16,2.416,0.981,4.605,0.981,7c0.204,0.412,0.317,0.867,0.661,1.211
		c0.479,0.182,1.163,0.137,1.688,0.066c0.64-0.936,1.71-1.209,2.349-2.143c0.205-0.594-0.342-1.027-0.547-1.529
		C288.711,281.844,288.3,277.738,288.026,273.539z"/>
	<path fill="#333333" d="M245.876,299.656c0.067-0.365,0.479-0.365,0.662-0.66c-0.047-0.641,0.773-0.959,0.547-1.598
		c-0.936-0.662-0.776-1.893-1.688-2.623c-1.62-4.973-4.881-10.264-9.921-12.795c-2.235-0.846-4.835-1.621-7.276-0.662
		c-1.779,1.004-3.079,2.92-3.444,4.859c0.661,0.592,1.392,0.934,2.351,0.82l0.979-0.48c0.457-0.57,0.662-1.23,0.821-1.916
		c0.252-0.727,1.05-0.707,1.643-0.613c5.177,1.002,8.326,6.363,10.469,10.629l0.114,0.5c-0.068,0.184-0.273,0.275-0.457,0.32
		c-2.599-0.184-5.337-0.023-7.663,0.82c-1.505,0.594-2.987,1.232-4.381,2.143c-1.436,1.301-3.421,2.396-3.922,4.314
		c0.024,1.982,1.461,3.785,3.217,4.605c4.15,1.848,9.351,0.82,13.365-0.617c1.003-0.455,2.03-0.82,3.011-1.367
		c1.323-0.068,2.417-1.139,3.171-2.121c0.113-0.639-0.047-1.209,0.159-1.801C247.336,300.592,246.081,300.592,245.876,299.656z
		 M243.207,302.875c-1.095,0.818-2.417,1.047-3.626,1.639c-2.008,0.48-3.97,1.072-6.113,1.209c-1.757-0.158-3.558-1.047-4.287-2.736
		c-0.412-0.889,0.501-1.367,0.821-2.029c2.667-2.328,5.93-3.398,9.647-3.285c0.844,0.273,1.802,0.273,2.509,0.889
		c0.343,0.596,0.297,1.371,0.98,1.758c0.365,0.092,0.821,0,1.095,0.273C244.006,301.414,243.55,302.119,243.207,302.875z"/>
	<path fill="#333333" d="M198.913,301.619c-0.891-1.848-1.482-4.609,0.114-6.342c0.706-0.205,1.414-0.434,2.03-0.889
		c0.182-0.777,1.162-0.686,1.368-1.414c-0.753-0.502-1.368-1.277-2.305-1.324c-1.071-0.045-1.824,0.707-2.737,1.049
		c-1.938,1.301-2.486,3.377-3.329,5.201c0.045,1.688-0.251,3.809,0.706,5.246c1.073,3.146,3.719,5.473,5.2,8.439
		c1.323,2.076,2.875,4.059,3.674,6.34c1.642,2.807,0.752,6.729-0.73,9.307c-0.365,1.666-2.145,2.736-2.508,4.379
		c0.045,0.432,0.569,0.615,0.865,0.615c3.695-0.09,4.584-4.311,6.091-6.797c1.869-3.605,1.572-8.803-0.775-12.088
		C204.409,309.236,201.104,305.723,198.913,301.619z"/>
	<path fill="#333333" d="M227.606,314.711c-1.643,1.049-4.084,0.73-5.977,0.707c-1.505,0.432-2.805-0.32-4.037-0.936
		c-2.668-2.234-0.594-5.541,0.045-8.051c1.188-2.121,1.94-4.402,3.172-6.5c-0.138-1.119,0.797-1.85,0.775-2.854
		c0.479-0.729,0.456-1.664,0.593-2.508c-0.274-0.959-1.004-1.871-1.962-2.258l-0.936-0.16c-1.62-0.568-3.58-0.363-5.2,0.045
		c-2.44,0.641-4.743,1.76-7.002,2.646c-0.821,0.297-1.254,1.162-1.437,1.916c-0.114,0.822,0.798,0.73,1.162,1.254
		c0.891,0.365,1.438-0.363,2.076-0.773c0.889-0.459,1.711-1.072,2.693-1.369c1.846-0.387,3.968-1.598,5.838-0.434
		c0.433,0.434,0.455,1.002,0.501,1.596c-0.661,2.828-1.848,5.475-3.011,8.098c-1.186,2.646-2.69,5.201-2.69,8.258
		c0.181,0.387-0.138,0.979,0.272,1.254c0.183,1.094,1.301,1.756,2.099,2.371c0.775,0.436,1.643,0.662,2.509,0.912
		c3.034,0.387,6.522,0.479,9.533,0.113l2.557-1.803c0.046-0.225-0.069-0.361-0.091-0.547
		C228.747,315.166,228.29,314.643,227.606,314.711z"/>
	<path fill="#333333" d="M189.767,304.469c-0.981-0.115-1.916,0.365-2.35,1.254c-0.8,1.984-2.259,3.697-2.942,5.701
		c-0.548,0.891-0.479,2.055-1.004,2.943c-0.228,0.322-0.523-0.068-0.638-0.27c-0.593-1.395-1.255-2.764-1.209-4.428
		c-0.252-0.365-0.411-0.729-0.502-1.143c-0.16-0.729-0.935-0.91-1.573-0.889c-1.142-0.271-1.985,0.754-2.578,1.598
		c-0.273,0.912,0.206,1.643,0.593,2.35c1.598,4.789,3.924,9.26,6.021,13.844c0.548,1.027,1.255,2.01,1.596,3.125
		c0.525,0.775,1.097,1.301,2.121,1.049c1.119-0.479,1.826-1.732,2.465-2.691c0.251-0.867-0.639-1.275-1.095-1.914
		c-2.896-4.996-2.738-12.521,1.003-17.084c0.685-0.938,2.212-1.391,2.122-2.738C191.317,304.629,190.496,304.266,189.767,304.469z"
		/>
	<path fill="#333333" d="M178.773,327.848c-0.366-1.48-1.689-2.621-2.145-3.988c-1.711-3.402-4.54-6.98-8.029-8.875
		c-1.573-0.934-3.467-1.117-5.313-1.369c-3.285,0.047-5.886,1.758-8.325,3.834c-1.62,1.502-2.213,3.441-3.673,5.037
		c-0.229,0.574-0.183,1.281-0.434,1.85c0.411,0.639,0.866,1.459,1.757,1.438c2.35-0.912,2.03-3.604,3.33-5.271
		c2.28-1.914,4.63-3.83,7.846-3.328c1.916,0.525,3.649,1.459,5.246,2.781l2.19,2.463c0.137,0.229,0,0.504-0.229,0.666
		c-4.79,2.072-10.49,2.984-13.342,8.367c-0.229,0.479-0.205,1.051-0.549,1.482c-0.432,1.551-0.501,3.742,0.821,4.975
		c1.21,0.842,2.465,1.801,3.947,2.098c2.395,0.549,4.332-0.73,6.569-0.936c0.684-0.434,1.664-0.229,2.279-0.822
		c3.012-1.391,5.611-3.764,8.165-6.021c1.21-0.387,0.365-1.826,0.936-2.576C179.982,328.83,179.32,328.303,178.773,327.848z
		 M174.553,330.15c0.092,1.871-1.436,3.15-2.782,4.266c-2.28,1.438-4.813,2.328-7.55,2.625c-1.527-0.092-2.692-1.326-3.513-2.578
		c-0.318-1.139,0.342-2.008,0.502-3.012c1.984-3.557,6.159-3.74,9.191-5.748l1.688-1.141c0.639-0.113,0.616,0.619,0.936,0.936
		C173.526,327.025,175.192,328.395,174.553,330.15z"/>
</g>
<g id="Layer_2" display="none">
	<g id="Layer_3">
	</g>
	<g id="Layer_4">
	</g>
</g>
</svg>
